<svg xmlns="http://www.w3.org/2000/svg" viewBox="0 0 240 440" width="240" height="440" font-family="Arial,sans-serif">
  <defs>
    <radialGradient id="bgGrad" cx="50%" cy="40%" r="65%">
      <stop offset="0%" stop-color="#2a2a2a"/>
      <stop offset="100%" stop-color="#0a0a0a"/>
    </radialGradient>
    <linearGradient id="bodyGrad" x1="0%" y1="0%" x2="100%" y2="100%">
      <stop offset="0%" stop-color="#434343"/>
      <stop offset="25%" stop-color="#111111"/>
      <stop offset="75%" stop-color="#111111"/>
      <stop offset="100%" stop-color="#000000"/>
    </linearGradient>
    <linearGradient id="bodyGradV" x1="0%" y1="0%" x2="0%" y2="100%">
      <stop offset="0%" stop-color="#434343"/>
      <stop offset="20%" stop-color="#111111"/>
      <stop offset="80%" stop-color="#111111"/>
      <stop offset="100%" stop-color="#000000"/>
    </linearGradient>
    <radialGradient id="bodyRadGrad" cx="38%" cy="32%" r="65%">
      <stop offset="0%" stop-color="#434343"/>
      <stop offset="35%" stop-color="#111111"/>
      <stop offset="100%" stop-color="#000000"/>
    </radialGradient>
    <radialGradient id="knobRingGrad" cx="35%" cy="30%" r="65%">
      <stop offset="0%" stop-color="#999"/>
      <stop offset="50%" stop-color="#444"/>
      <stop offset="100%" stop-color="#1a1a1a"/>
    </radialGradient>
    <radialGradient id="knobGrad" cx="35%" cy="30%" r="65%">
      <stop offset="0%" stop-color="#666"/>
      <stop offset="60%" stop-color="#2a2a2a"/>
      <stop offset="100%" stop-color="#0d0d0d"/>
    </radialGradient>
    <radialGradient id="screwGrad" cx="35%" cy="30%" r="65%">
      <stop offset="0%" stop-color="#bbb"/>
      <stop offset="100%" stop-color="#333"/>
    </radialGradient>
    <radialGradient id="jackGrad" cx="40%" cy="35%" r="60%">
      <stop offset="0%" stop-color="#777"/>
      <stop offset="100%" stop-color="#1a1a1a"/>
    </radialGradient>
    <linearGradient id="switchGrad" x1="0%" y1="0%" x2="0%" y2="100%">
      <stop offset="0%" stop-color="#333"/>
      <stop offset="50%" stop-color="#111"/>
      <stop offset="100%" stop-color="#080808"/>
    </linearGradient>
    <linearGradient id="grillGrad" x1="0%" y1="0%" x2="100%" y2="100%">
      <stop offset="0%" stop-color="#a99173"/>
      <stop offset="100%" stop-color="#775f41"/>
    </linearGradient>
    <linearGradient id="speakerGrad" cx="40%" cy="35%" r="60%" gradientUnits="objectBoundingBox">
      <stop offset="0%" stop-color="#555"/>
      <stop offset="100%" stop-color="#111"/>
    </linearGradient>
    <radialGradient id="speakerRadGrad" cx="45%" cy="40%" r="60%">
      <stop offset="0%" stop-color="#444"/>
      <stop offset="70%" stop-color="#1a1a1a"/>
      <stop offset="100%" stop-color="#0a0a0a"/>
    </radialGradient>
    <filter id="ledGlow" x="-80%" y="-80%" width="260%" height="260%">
      <feGaussianBlur stdDeviation="3" result="blur"/>
      <feMerge><feMergeNode in="blur"/><feMergeNode in="SourceGraphic"/></feMerge>
    </filter>
    <filter id="bodyShadow" x="-15%" y="-10%" width="140%" height="140%">
      <feDropShadow dx="5" dy="8" stdDeviation="10" flood-color="#000" flood-opacity="0.7"/>
    </filter>
    <filter id="knobShadow" x="-30%" y="-30%" width="170%" height="170%">
      <feDropShadow dx="1" dy="3" stdDeviation="4" flood-color="#000" flood-opacity="0.8"/>
    </filter>
    <filter id="textEmboss">
      <feDropShadow dx="0" dy="1" stdDeviation="0.5" flood-color="#000" flood-opacity="0.6"/>
    </filter>
    <filter id="innerShadow" x="-5%" y="-5%" width="110%" height="110%">
      <feDropShadow dx="0" dy="2" stdDeviation="3" flood-color="#000" flood-opacity="0.5"/>
    </filter>
    <clipPath id="bodyClip">
      <rect x="0" y="0" width="320" height="480"/>
    </clipPath>
  </defs>
  <rect width="240" height="440" fill="url(#bgGrad)"/>
  <polygon points="30,30 210,30 230,360 10,360" fill="url(#bodyGrad)" filter="url(#bodyShadow)"/>
  <polygon points="30,30 210,30 230,360 10,360" fill="none" stroke="white" stroke-width="0.5" opacity="0.1"/>
  <polygon points="30,30 210,30 215,42 25,42" fill="white" opacity="0.1"/>
  <rect x="25" y="60" width="190" height="260" rx="8" fill="#1a1a1a" opacity="0.85"/>
  <rect x="25" y="60" width="190" height="8" rx="8" fill="#555" opacity="0.4"/>
  <line x1="25" y1="190" x2="215" y2="190" stroke="#555" stroke-width="2" opacity="0.6"/>
  <text x="120" y="155" fill="white" font-size="14" text-anchor="middle" font-weight="bold" font-style="normal" letter-spacing="1" opacity="0.95" filter="url(#textEmboss)" clip-path="url(#bodyClip)">V845 wah</text>
  <text x="120" y="173" fill="#aaa" font-size="9" text-anchor="middle" font-weight="bold" font-style="normal" letter-spacing="3" opacity="0.8" filter="url(#textEmboss)" clip-path="url(#bodyClip)">VOX</text>
  <circle cx="10" cy="80" r="10" fill="url(#jackGrad)"/>
  <circle cx="10" cy="80" r="7" fill="#1a1a1a"/>
  <circle cx="10" cy="80" r="4" fill="#0d0d0d"/>
  <circle cx="8" cy="78" r="1.5" fill="#999" opacity="0.5"/>
  <text x="26" y="84" fill="white" font-size="7" text-anchor="start" opacity="0.8">IN</text>
  <circle cx="230" cy="80" r="10" fill="url(#jackGrad)"/>
  <circle cx="230" cy="80" r="7" fill="#1a1a1a"/>
  <circle cx="230" cy="80" r="4" fill="#0d0d0d"/>
  <circle cx="228" cy="78" r="1.5" fill="#999" opacity="0.5"/>
  <text x="214" y="84" fill="white" font-size="7" text-anchor="end" opacity="0.8">OUT</text>
  <circle cx="42" cy="45" r="5" fill="url(#screwGrad)"/>
  <line x1="38.5" y1="45" x2="45.5" y2="45" stroke="#222" stroke-width="1.2"/>
  <line x1="42" y1="41.5" x2="42" y2="48.5" stroke="#222" stroke-width="1.2"/>
  <circle cx="198" cy="45" r="5" fill="url(#screwGrad)"/>
  <line x1="194.5" y1="45" x2="201.5" y2="45" stroke="#222" stroke-width="1.2"/>
  <line x1="198" y1="41.5" x2="198" y2="48.5" stroke="#222" stroke-width="1.2"/>
  <circle cx="35" cy="348" r="5" fill="url(#screwGrad)"/>
  <line x1="31.5" y1="348" x2="38.5" y2="348" stroke="#222" stroke-width="1.2"/>
  <line x1="35" y1="344.5" x2="35" y2="351.5" stroke="#222" stroke-width="1.2"/>
  <circle cx="205" cy="348" r="5" fill="url(#screwGrad)"/>
  <line x1="201.5" y1="348" x2="208.5" y2="348" stroke="#222" stroke-width="1.2"/>
  <line x1="205" y1="344.5" x2="205" y2="351.5" stroke="#222" stroke-width="1.2"/>
  <text x="120" y="400" fill="white" font-size="13" text-anchor="middle" font-weight="bold" font-style="normal" letter-spacing="1" opacity="0.95" filter="url(#textEmboss)" clip-path="url(#bodyClip)">Vox V845 wah</text>
  <text x="120" y="418" fill="#aaa" font-size="9" text-anchor="middle" font-weight="normal" font-style="normal" letter-spacing="1" opacity="0.7" filter="url(#textEmboss)" clip-path="url(#bodyClip)">Wah Pedal</text>
</svg>