<svg xmlns="http://www.w3.org/2000/svg" viewBox="0 0 280 400" width="280" height="400" font-family="Arial,sans-serif">
  <defs>
    <radialGradient id="bgGrad" cx="50%" cy="40%" r="65%">
      <stop offset="0%" stop-color="#2a2a2a"/>
      <stop offset="100%" stop-color="#0a0a0a"/>
    </radialGradient>
    <linearGradient id="bodyGrad" x1="0%" y1="0%" x2="100%" y2="100%">
      <stop offset="0%" stop-color="#54bd54"/>
      <stop offset="25%" stop-color="#228B22"/>
      <stop offset="75%" stop-color="#228B22"/>
      <stop offset="100%" stop-color="#006300"/>
    </linearGradient>
    <linearGradient id="bodyGradV" x1="0%" y1="0%" x2="0%" y2="100%">
      <stop offset="0%" stop-color="#54bd54"/>
      <stop offset="20%" stop-color="#228B22"/>
      <stop offset="80%" stop-color="#228B22"/>
      <stop offset="100%" stop-color="#006300"/>
    </linearGradient>
    <radialGradient id="bodyRadGrad" cx="38%" cy="32%" r="65%">
      <stop offset="0%" stop-color="#54bd54"/>
      <stop offset="35%" stop-color="#228B22"/>
      <stop offset="100%" stop-color="#006300"/>
    </radialGradient>
    <radialGradient id="knobRingGrad" cx="35%" cy="30%" r="65%">
      <stop offset="0%" stop-color="#999"/>
      <stop offset="50%" stop-color="#444"/>
      <stop offset="100%" stop-color="#1a1a1a"/>
    </radialGradient>
    <radialGradient id="knobGrad" cx="35%" cy="30%" r="65%">
      <stop offset="0%" stop-color="#666"/>
      <stop offset="60%" stop-color="#2a2a2a"/>
      <stop offset="100%" stop-color="#0d0d0d"/>
    </radialGradient>
    <radialGradient id="screwGrad" cx="35%" cy="30%" r="65%">
      <stop offset="0%" stop-color="#bbb"/>
      <stop offset="100%" stop-color="#333"/>
    </radialGradient>
    <radialGradient id="jackGrad" cx="40%" cy="35%" r="60%">
      <stop offset="0%" stop-color="#777"/>
      <stop offset="100%" stop-color="#1a1a1a"/>
    </radialGradient>
    <linearGradient id="switchGrad" x1="0%" y1="0%" x2="0%" y2="100%">
      <stop offset="0%" stop-color="#333"/>
      <stop offset="50%" stop-color="#111"/>
      <stop offset="100%" stop-color="#080808"/>
    </linearGradient>
    <linearGradient id="grillGrad" x1="0%" y1="0%" x2="100%" y2="100%">
      <stop offset="0%" stop-color="#a99173"/>
      <stop offset="100%" stop-color="#775f41"/>
    </linearGradient>
    <linearGradient id="speakerGrad" cx="40%" cy="35%" r="60%" gradientUnits="objectBoundingBox">
      <stop offset="0%" stop-color="#555"/>
      <stop offset="100%" stop-color="#111"/>
    </linearGradient>
    <radialGradient id="speakerRadGrad" cx="45%" cy="40%" r="60%">
      <stop offset="0%" stop-color="#444"/>
      <stop offset="70%" stop-color="#1a1a1a"/>
      <stop offset="100%" stop-color="#0a0a0a"/>
    </radialGradient>
    <filter id="ledGlow" x="-80%" y="-80%" width="260%" height="260%">
      <feGaussianBlur stdDeviation="3" result="blur"/>
      <feMerge><feMergeNode in="blur"/><feMergeNode in="SourceGraphic"/></feMerge>
    </filter>
    <filter id="bodyShadow" x="-15%" y="-10%" width="140%" height="140%">
      <feDropShadow dx="5" dy="8" stdDeviation="10" flood-color="#000" flood-opacity="0.7"/>
    </filter>
    <filter id="knobShadow" x="-30%" y="-30%" width="170%" height="170%">
      <feDropShadow dx="1" dy="3" stdDeviation="4" flood-color="#000" flood-opacity="0.8"/>
    </filter>
    <filter id="textEmboss">
      <feDropShadow dx="0" dy="1" stdDeviation="0.5" flood-color="#000" flood-opacity="0.6"/>
    </filter>
    <filter id="innerShadow" x="-5%" y="-5%" width="110%" height="110%">
      <feDropShadow dx="0" dy="2" stdDeviation="3" flood-color="#000" flood-opacity="0.5"/>
    </filter>
    <clipPath id="bodyClip">
      <rect x="0" y="0" width="320" height="480"/>
    </clipPath>
  </defs>
  <rect width="280" height="400" fill="url(#bgGrad)"/>
  <rect x="30" y="20" width="220" height="290" rx="10" fill="url(#bodyGrad)" filter="url(#bodyShadow)"/>
  <rect x="30" y="20" width="220" height="8" rx="10" fill="white" opacity="0.15"/>
  <rect x="30" y="20" width="5" height="290" rx="3" fill="white" opacity="0.12"/>
  <circle cx="47" cy="36" r="5" fill="url(#screwGrad)"/>
  <line x1="43.5" y1="36" x2="50.5" y2="36" stroke="#222" stroke-width="1.2"/>
  <line x1="47" y1="32.5" x2="47" y2="39.5" stroke="#222" stroke-width="1.2"/>
  <circle cx="233" cy="36" r="5" fill="url(#screwGrad)"/>
  <line x1="229.5" y1="36" x2="236.5" y2="36" stroke="#222" stroke-width="1.2"/>
  <line x1="233" y1="32.5" x2="233" y2="39.5" stroke="#222" stroke-width="1.2"/>
  <circle cx="47" cy="293" r="5" fill="url(#screwGrad)"/>
  <line x1="43.5" y1="293" x2="50.5" y2="293" stroke="#222" stroke-width="1.2"/>
  <line x1="47" y1="289.5" x2="47" y2="296.5" stroke="#222" stroke-width="1.2"/>
  <circle cx="233" cy="293" r="5" fill="url(#screwGrad)"/>
  <line x1="229.5" y1="293" x2="236.5" y2="293" stroke="#222" stroke-width="1.2"/>
  <line x1="233" y1="289.5" x2="233" y2="296.5" stroke="#222" stroke-width="1.2"/>
  <rect x="50" y="45" width="180" height="40" rx="4" fill="white" opacity="0.12"/>
  <text x="140" y="70" fill="white" font-size="14" text-anchor="middle" font-weight="bold" font-style="normal" letter-spacing="2" opacity="0.95" filter="url(#textEmboss)" clip-path="url(#bodyClip)">TS-808 Tube Screamer</text>
  <circle cx="230" cy="60" r="7" fill="#111"/>
  <circle cx="230" cy="60" r="5" fill="#cc0000" filter="url(#ledGlow)"/>
  <circle cx="228.5" cy="58.5" r="2" fill="white" opacity="0.5"/>
  <circle cx="230" cy="60" r="8" fill="none" stroke="#ff0000" stroke-width="1" opacity="0.25"/>
  <!-- Knob: OVERDRIVE -->
  <line x1="66.2" y1="157.0" x2="63.6" y2="158.5" stroke="white" stroke-width="1" opacity="0.4"/>
  <line x1="66.2" y1="133.0" x2="63.6" y2="131.5" stroke="white" stroke-width="1" opacity="0.4"/>
  <line x1="87.0" y1="121.0" x2="87.0" y2="118.0" stroke="white" stroke-width="1" opacity="0.4"/>
  <line x1="107.8" y1="133.0" x2="110.4" y2="131.5" stroke="white" stroke-width="1" opacity="0.4"/>
  <line x1="107.8" y1="157.0" x2="110.4" y2="158.5" stroke="white" stroke-width="1" opacity="0.4"/>
  <circle cx="87" cy="145" r="22" fill="url(#knobRingGrad)" filter="url(#knobShadow)"/>
  <circle cx="87" cy="145" r="22" fill="none" stroke="#888" stroke-width="0.5" opacity="0.4"/>
  <circle cx="87" cy="145" r="17.16" fill="url(#knobGrad)"/>
  <ellipse cx="82.7" cy="139.9" rx="7.7" ry="4.8" fill="white" opacity="0.07"/>
  <line x1="87.0" y1="145.0" x2="73.8" y2="145.0" stroke="white" stroke-width="2" stroke-linecap="round" opacity="0.9"/>
  <circle cx="87" cy="145" r="3" fill="#3a3a3a"/>
  <text x="87" y="181" fill="white" font-size="9" text-anchor="middle" font-weight="bold" letter-spacing="0.5" filter="url(#textEmboss)" clip-path="url(#bodyClip)">OVERDRIVE</text>
  <!-- Knob: TONE -->
  <line x1="119.2" y1="157.0" x2="116.6" y2="158.5" stroke="white" stroke-width="1" opacity="0.4"/>
  <line x1="119.2" y1="133.0" x2="116.6" y2="131.5" stroke="white" stroke-width="1" opacity="0.4"/>
  <line x1="140.0" y1="121.0" x2="140.0" y2="118.0" stroke="white" stroke-width="1" opacity="0.4"/>
  <line x1="160.8" y1="133.0" x2="163.4" y2="131.5" stroke="white" stroke-width="1" opacity="0.4"/>
  <line x1="160.8" y1="157.0" x2="163.4" y2="158.5" stroke="white" stroke-width="1" opacity="0.4"/>
  <circle cx="140" cy="145" r="22" fill="url(#knobRingGrad)" filter="url(#knobShadow)"/>
  <circle cx="140" cy="145" r="22" fill="none" stroke="#888" stroke-width="0.5" opacity="0.4"/>
  <circle cx="140" cy="145" r="17.16" fill="url(#knobGrad)"/>
  <ellipse cx="135.7" cy="139.9" rx="7.7" ry="4.8" fill="white" opacity="0.07"/>
  <line x1="140.0" y1="145.0" x2="127.6" y2="140.5" stroke="white" stroke-width="2" stroke-linecap="round" opacity="0.9"/>
  <circle cx="140" cy="145" r="3" fill="#3a3a3a"/>
  <text x="140" y="181" fill="white" font-size="9" text-anchor="middle" font-weight="bold" letter-spacing="0.5" filter="url(#textEmboss)" clip-path="url(#bodyClip)">TONE</text>
  <!-- Knob: LEVEL -->
  <line x1="172.2" y1="157.0" x2="169.6" y2="158.5" stroke="white" stroke-width="1" opacity="0.4"/>
  <line x1="172.2" y1="133.0" x2="169.6" y2="131.5" stroke="white" stroke-width="1" opacity="0.4"/>
  <line x1="193.0" y1="121.0" x2="193.0" y2="118.0" stroke="white" stroke-width="1" opacity="0.4"/>
  <line x1="213.8" y1="133.0" x2="216.4" y2="131.5" stroke="white" stroke-width="1" opacity="0.4"/>
  <line x1="213.8" y1="157.0" x2="216.4" y2="158.5" stroke="white" stroke-width="1" opacity="0.4"/>
  <circle cx="193" cy="145" r="22" fill="url(#knobRingGrad)" filter="url(#knobShadow)"/>
  <circle cx="193" cy="145" r="22" fill="none" stroke="#888" stroke-width="0.5" opacity="0.4"/>
  <circle cx="193" cy="145" r="17.16" fill="url(#knobGrad)"/>
  <ellipse cx="188.7" cy="139.9" rx="7.7" ry="4.8" fill="white" opacity="0.07"/>
  <line x1="193.0" y1="145.0" x2="182.9" y2="136.5" stroke="white" stroke-width="2" stroke-linecap="round" opacity="0.9"/>
  <circle cx="193" cy="145" r="3" fill="#3a3a3a"/>
  <text x="193" y="181" fill="white" font-size="9" text-anchor="middle" font-weight="bold" letter-spacing="0.5" filter="url(#textEmboss)" clip-path="url(#bodyClip)">LEVEL</text>
  <rect x="90" y="210" width="100" height="55" rx="6" fill="url(#switchGrad)"/>
  <rect x="90" y="210" width="100" height="8" rx="6" fill="#555" opacity="0.5"/>
  <rect x="92" y="212" width="96" height="51" rx="5" fill="none" stroke="#666" stroke-width="0.5" opacity="0.4"/>
  <circle cx="30" cy="185" r="10" fill="url(#jackGrad)"/>
  <circle cx="30" cy="185" r="7" fill="#1a1a1a"/>
  <circle cx="30" cy="185" r="4" fill="#0d0d0d"/>
  <circle cx="28" cy="183" r="1.5" fill="#999" opacity="0.5"/>
  <text x="46" y="189" fill="white" font-size="7" text-anchor="start" opacity="0.8">IN</text>
  <circle cx="250" cy="185" r="10" fill="url(#jackGrad)"/>
  <circle cx="250" cy="185" r="7" fill="#1a1a1a"/>
  <circle cx="250" cy="185" r="4" fill="#0d0d0d"/>
  <circle cx="248" cy="183" r="1.5" fill="#999" opacity="0.5"/>
  <text x="234" y="189" fill="white" font-size="7" text-anchor="end" opacity="0.8">OUT</text>
  <text x="140" y="295" fill="white" font-size="9" text-anchor="middle" font-weight="bold" font-style="normal" letter-spacing="3" opacity="0.7" filter="url(#textEmboss)" clip-path="url(#bodyClip)">IBANEZ</text>
  <text x="140" y="345" fill="white" font-size="13" text-anchor="middle" font-weight="bold" font-style="normal" letter-spacing="1" opacity="0.95" filter="url(#textEmboss)" clip-path="url(#bodyClip)">Ibanez TS-808 Tube Screamer</text>
  <text x="140" y="363" fill="#aaa" font-size="9" text-anchor="middle" font-weight="normal" font-style="normal" letter-spacing="1" opacity="0.7" filter="url(#textEmboss)" clip-path="url(#bodyClip)">Overdrive Pedal</text>
</svg>