<svg xmlns="http://www.w3.org/2000/svg" viewBox="0 0 280 400" width="280" height="400" font-family="Arial,sans-serif">
  <defs>
    <radialGradient id="bgGrad" cx="50%" cy="40%" r="65%">
      <stop offset="0%" stop-color="#2a2a2a"/>
      <stop offset="100%" stop-color="#0a0a0a"/>
    </radialGradient>
    <linearGradient id="bodyGrad" x1="0%" y1="0%" x2="100%" y2="100%">
      <stop offset="0%" stop-color="#434343"/>
      <stop offset="25%" stop-color="#111111"/>
      <stop offset="75%" stop-color="#111111"/>
      <stop offset="100%" stop-color="#000000"/>
    </linearGradient>
    <linearGradient id="bodyGradV" x1="0%" y1="0%" x2="0%" y2="100%">
      <stop offset="0%" stop-color="#434343"/>
      <stop offset="20%" stop-color="#111111"/>
      <stop offset="80%" stop-color="#111111"/>
      <stop offset="100%" stop-color="#000000"/>
    </linearGradient>
    <radialGradient id="bodyRadGrad" cx="38%" cy="32%" r="65%">
      <stop offset="0%" stop-color="#434343"/>
      <stop offset="35%" stop-color="#111111"/>
      <stop offset="100%" stop-color="#000000"/>
    </radialGradient>
    <radialGradient id="knobRingGrad" cx="35%" cy="30%" r="65%">
      <stop offset="0%" stop-color="#999"/>
      <stop offset="50%" stop-color="#444"/>
      <stop offset="100%" stop-color="#1a1a1a"/>
    </radialGradient>
    <radialGradient id="knobGrad" cx="35%" cy="30%" r="65%">
      <stop offset="0%" stop-color="#666"/>
      <stop offset="60%" stop-color="#2a2a2a"/>
      <stop offset="100%" stop-color="#0d0d0d"/>
    </radialGradient>
    <radialGradient id="screwGrad" cx="35%" cy="30%" r="65%">
      <stop offset="0%" stop-color="#bbb"/>
      <stop offset="100%" stop-color="#333"/>
    </radialGradient>
    <radialGradient id="jackGrad" cx="40%" cy="35%" r="60%">
      <stop offset="0%" stop-color="#777"/>
      <stop offset="100%" stop-color="#1a1a1a"/>
    </radialGradient>
    <linearGradient id="switchGrad" x1="0%" y1="0%" x2="0%" y2="100%">
      <stop offset="0%" stop-color="#333"/>
      <stop offset="50%" stop-color="#111"/>
      <stop offset="100%" stop-color="#080808"/>
    </linearGradient>
    <linearGradient id="grillGrad" x1="0%" y1="0%" x2="100%" y2="100%">
      <stop offset="0%" stop-color="#a99173"/>
      <stop offset="100%" stop-color="#775f41"/>
    </linearGradient>
    <linearGradient id="speakerGrad" cx="40%" cy="35%" r="60%" gradientUnits="objectBoundingBox">
      <stop offset="0%" stop-color="#555"/>
      <stop offset="100%" stop-color="#111"/>
    </linearGradient>
    <radialGradient id="speakerRadGrad" cx="45%" cy="40%" r="60%">
      <stop offset="0%" stop-color="#444"/>
      <stop offset="70%" stop-color="#1a1a1a"/>
      <stop offset="100%" stop-color="#0a0a0a"/>
    </radialGradient>
    <filter id="ledGlow" x="-80%" y="-80%" width="260%" height="260%">
      <feGaussianBlur stdDeviation="3" result="blur"/>
      <feMerge><feMergeNode in="blur"/><feMergeNode in="SourceGraphic"/></feMerge>
    </filter>
    <filter id="bodyShadow" x="-15%" y="-10%" width="140%" height="140%">
      <feDropShadow dx="5" dy="8" stdDeviation="10" flood-color="#000" flood-opacity="0.7"/>
    </filter>
    <filter id="knobShadow" x="-30%" y="-30%" width="170%" height="170%">
      <feDropShadow dx="1" dy="3" stdDeviation="4" flood-color="#000" flood-opacity="0.8"/>
    </filter>
    <filter id="textEmboss">
      <feDropShadow dx="0" dy="1" stdDeviation="0.5" flood-color="#000" flood-opacity="0.6"/>
    </filter>
    <filter id="innerShadow" x="-5%" y="-5%" width="110%" height="110%">
      <feDropShadow dx="0" dy="2" stdDeviation="3" flood-color="#000" flood-opacity="0.5"/>
    </filter>
    <clipPath id="bodyClip">
      <rect x="0" y="0" width="320" height="480"/>
    </clipPath>
  </defs>
  <rect width="280" height="400" fill="url(#bgGrad)"/>
  <rect x="30" y="20" width="220" height="295" rx="8" fill="url(#bodyGrad)" filter="url(#bodyShadow)"/>
  <rect x="30" y="20" width="220" height="6" rx="8" fill="#555" opacity="0.3"/>
  <circle cx="47" cy="35" r="5" fill="url(#screwGrad)"/>
  <line x1="43.5" y1="35" x2="50.5" y2="35" stroke="#222" stroke-width="1.2"/>
  <line x1="47" y1="31.5" x2="47" y2="38.5" stroke="#222" stroke-width="1.2"/>
  <circle cx="233" cy="35" r="5" fill="url(#screwGrad)"/>
  <line x1="229.5" y1="35" x2="236.5" y2="35" stroke="#222" stroke-width="1.2"/>
  <line x1="233" y1="31.5" x2="233" y2="38.5" stroke="#222" stroke-width="1.2"/>
  <circle cx="47" cy="298" r="5" fill="url(#screwGrad)"/>
  <line x1="43.5" y1="298" x2="50.5" y2="298" stroke="#222" stroke-width="1.2"/>
  <line x1="47" y1="294.5" x2="47" y2="301.5" stroke="#222" stroke-width="1.2"/>
  <circle cx="233" cy="298" r="5" fill="url(#screwGrad)"/>
  <line x1="229.5" y1="298" x2="236.5" y2="298" stroke="#222" stroke-width="1.2"/>
  <line x1="233" y1="294.5" x2="233" y2="301.5" stroke="#222" stroke-width="1.2"/>
  <circle cx="230" cy="55" r="7" fill="#111"/>
  <circle cx="230" cy="55" r="5" fill="#cc4400" filter="url(#ledGlow)"/>
  <circle cx="228.5" cy="53.5" r="2" fill="white" opacity="0.5"/>
  <circle cx="230" cy="55" r="8" fill="none" stroke="#ff6600" stroke-width="1" opacity="0.25"/>
  <circle cx="70" cy="30" r="8" fill="url(#jackGrad)"/>
  <circle cx="70" cy="30" r="5.5" fill="#1a1a1a"/>
  <circle cx="70" cy="30" r="3" fill="#0d0d0d"/>
  <circle cx="68.5" cy="28.5" r="1.2" fill="#999" opacity="0.5"/>
  <text x="70" y="48" fill="white" font-size="7" text-anchor="middle" opacity="0.8">IN</text>
  <circle cx="210" cy="30" r="8" fill="url(#jackGrad)"/>
  <circle cx="210" cy="30" r="5.5" fill="#1a1a1a"/>
  <circle cx="210" cy="30" r="3" fill="#0d0d0d"/>
  <circle cx="208.5" cy="28.5" r="1.2" fill="#999" opacity="0.5"/>
  <text x="210" y="48" fill="white" font-size="7" text-anchor="middle" opacity="0.8">OUT</text>
  <!-- Knob: DISTORTION -->
  <line x1="64.5" y1="143.0" x2="61.9" y2="144.5" stroke="white" stroke-width="1" opacity="0.4"/>
  <line x1="64.5" y1="117.0" x2="61.9" y2="115.5" stroke="white" stroke-width="1" opacity="0.4"/>
  <line x1="87.0" y1="104.0" x2="87.0" y2="101.0" stroke="white" stroke-width="1" opacity="0.4"/>
  <line x1="109.5" y1="117.0" x2="112.1" y2="115.5" stroke="white" stroke-width="1" opacity="0.4"/>
  <line x1="109.5" y1="143.0" x2="112.1" y2="144.5" stroke="white" stroke-width="1" opacity="0.4"/>
  <circle cx="87" cy="130" r="24" fill="url(#knobRingGrad)" filter="url(#knobShadow)"/>
  <circle cx="87" cy="130" r="24" fill="none" stroke="#888" stroke-width="0.5" opacity="0.4"/>
  <circle cx="87" cy="130" r="18.72" fill="url(#knobGrad)"/>
  <ellipse cx="82.3" cy="124.4" rx="8.4" ry="5.2" fill="white" opacity="0.07"/>
  <line x1="87.0" y1="130.0" x2="72.3" y2="130.0" stroke="white" stroke-width="2" stroke-linecap="round" opacity="0.9"/>
  <circle cx="87" cy="130" r="3" fill="#3a3a3a"/>
  <text x="87" y="168" fill="#ccc" font-size="9" text-anchor="middle" font-weight="bold" letter-spacing="0.5" filter="url(#textEmboss)" clip-path="url(#bodyClip)">DISTORTION</text>
  <!-- Knob: FILTER -->
  <line x1="117.5" y1="143.0" x2="114.9" y2="144.5" stroke="white" stroke-width="1" opacity="0.4"/>
  <line x1="117.5" y1="117.0" x2="114.9" y2="115.5" stroke="white" stroke-width="1" opacity="0.4"/>
  <line x1="140.0" y1="104.0" x2="140.0" y2="101.0" stroke="white" stroke-width="1" opacity="0.4"/>
  <line x1="162.5" y1="117.0" x2="165.1" y2="115.5" stroke="white" stroke-width="1" opacity="0.4"/>
  <line x1="162.5" y1="143.0" x2="165.1" y2="144.5" stroke="white" stroke-width="1" opacity="0.4"/>
  <circle cx="140" cy="130" r="24" fill="url(#knobRingGrad)" filter="url(#knobShadow)"/>
  <circle cx="140" cy="130" r="24" fill="none" stroke="#888" stroke-width="0.5" opacity="0.4"/>
  <circle cx="140" cy="130" r="18.72" fill="url(#knobGrad)"/>
  <ellipse cx="135.3" cy="124.4" rx="8.4" ry="5.2" fill="white" opacity="0.07"/>
  <line x1="140.0" y1="130.0" x2="126.7" y2="123.8" stroke="white" stroke-width="2" stroke-linecap="round" opacity="0.9"/>
  <circle cx="140" cy="130" r="3" fill="#3a3a3a"/>
  <text x="140" y="168" fill="#ccc" font-size="9" text-anchor="middle" font-weight="bold" letter-spacing="0.5" filter="url(#textEmboss)" clip-path="url(#bodyClip)">FILTER</text>
  <!-- Knob: VOLUME -->
  <line x1="170.5" y1="143.0" x2="167.9" y2="144.5" stroke="white" stroke-width="1" opacity="0.4"/>
  <line x1="170.5" y1="117.0" x2="167.9" y2="115.5" stroke="white" stroke-width="1" opacity="0.4"/>
  <line x1="193.0" y1="104.0" x2="193.0" y2="101.0" stroke="white" stroke-width="1" opacity="0.4"/>
  <line x1="215.5" y1="117.0" x2="218.1" y2="115.5" stroke="white" stroke-width="1" opacity="0.4"/>
  <line x1="215.5" y1="143.0" x2="218.1" y2="144.5" stroke="white" stroke-width="1" opacity="0.4"/>
  <circle cx="193" cy="130" r="24" fill="url(#knobRingGrad)" filter="url(#knobShadow)"/>
  <circle cx="193" cy="130" r="24" fill="none" stroke="#888" stroke-width="0.5" opacity="0.4"/>
  <circle cx="193" cy="130" r="18.72" fill="url(#knobGrad)"/>
  <ellipse cx="188.3" cy="124.4" rx="8.4" ry="5.2" fill="white" opacity="0.07"/>
  <line x1="193.0" y1="130.0" x2="183.5" y2="118.7" stroke="white" stroke-width="2" stroke-linecap="round" opacity="0.9"/>
  <circle cx="193" cy="130" r="3" fill="#3a3a3a"/>
  <text x="193" y="168" fill="#ccc" font-size="9" text-anchor="middle" font-weight="bold" letter-spacing="0.5" filter="url(#textEmboss)" clip-path="url(#bodyClip)">VOLUME</text>
  <text x="140" y="210" fill="white" font-size="20" text-anchor="middle" font-weight="bold" font-style="normal" letter-spacing="4" opacity="0.95" filter="url(#textEmboss)" clip-path="url(#bodyClip)">RAT2</text>
  <text x="140" y="228" fill="#888" font-size="8" text-anchor="middle" font-weight="normal" font-style="normal" letter-spacing="1" opacity="0.8" filter="url(#textEmboss)" clip-path="url(#bodyClip)">ProCo</text>
  <circle cx="140" cy="270" r="26" fill="#1a1a1a"/>
  <circle cx="140" cy="270" r="26" fill="none" stroke="#555" stroke-width="1" opacity="0.5"/>
  <circle cx="140" cy="270" r="22" fill="url(#switchGrad)"/>
  <ellipse cx="136" cy="265" rx="10" ry="6" fill="white" opacity="0.05"/>
  <circle cx="140" cy="270" r="6" fill="#2a2a2a"/>
  <circle cx="138" cy="268" r="2" fill="#555" opacity="0.4"/>
  <text x="140" y="350" fill="white" font-size="13" text-anchor="middle" font-weight="bold" font-style="normal" letter-spacing="1" opacity="0.95" filter="url(#textEmboss)" clip-path="url(#bodyClip)">ProCo RAT2</text>
  <text x="140" y="368" fill="#aaa" font-size="9" text-anchor="middle" font-weight="normal" font-style="normal" letter-spacing="1" opacity="0.7" filter="url(#textEmboss)" clip-path="url(#bodyClip)">Distortion Pedal</text>
</svg>