<svg xmlns="http://www.w3.org/2000/svg" viewBox="0 0 340 400" width="340" height="400" font-family="Arial,sans-serif">
  <defs>
    <radialGradient id="bgGrad" cx="50%" cy="40%" r="65%">
      <stop offset="0%" stop-color="#2a2a2a"/>
      <stop offset="100%" stop-color="#0a0a0a"/>
    </radialGradient>
    <linearGradient id="bodyGrad" x1="0%" y1="0%" x2="100%" y2="100%">
      <stop offset="0%" stop-color="#686294"/>
      <stop offset="25%" stop-color="#363062"/>
      <stop offset="75%" stop-color="#363062"/>
      <stop offset="100%" stop-color="#0e083a"/>
    </linearGradient>
    <linearGradient id="bodyGradV" x1="0%" y1="0%" x2="0%" y2="100%">
      <stop offset="0%" stop-color="#686294"/>
      <stop offset="20%" stop-color="#363062"/>
      <stop offset="80%" stop-color="#363062"/>
      <stop offset="100%" stop-color="#0e083a"/>
    </linearGradient>
    <radialGradient id="bodyRadGrad" cx="38%" cy="32%" r="65%">
      <stop offset="0%" stop-color="#686294"/>
      <stop offset="35%" stop-color="#363062"/>
      <stop offset="100%" stop-color="#0e083a"/>
    </radialGradient>
    <radialGradient id="knobRingGrad" cx="35%" cy="30%" r="65%">
      <stop offset="0%" stop-color="#999"/>
      <stop offset="50%" stop-color="#444"/>
      <stop offset="100%" stop-color="#1a1a1a"/>
    </radialGradient>
    <radialGradient id="knobGrad" cx="35%" cy="30%" r="65%">
      <stop offset="0%" stop-color="#666"/>
      <stop offset="60%" stop-color="#2a2a2a"/>
      <stop offset="100%" stop-color="#0d0d0d"/>
    </radialGradient>
    <radialGradient id="screwGrad" cx="35%" cy="30%" r="65%">
      <stop offset="0%" stop-color="#bbb"/>
      <stop offset="100%" stop-color="#333"/>
    </radialGradient>
    <radialGradient id="jackGrad" cx="40%" cy="35%" r="60%">
      <stop offset="0%" stop-color="#777"/>
      <stop offset="100%" stop-color="#1a1a1a"/>
    </radialGradient>
    <linearGradient id="switchGrad" x1="0%" y1="0%" x2="0%" y2="100%">
      <stop offset="0%" stop-color="#333"/>
      <stop offset="50%" stop-color="#111"/>
      <stop offset="100%" stop-color="#080808"/>
    </linearGradient>
    <linearGradient id="grillGrad" x1="0%" y1="0%" x2="100%" y2="100%">
      <stop offset="0%" stop-color="#a99173"/>
      <stop offset="100%" stop-color="#775f41"/>
    </linearGradient>
    <linearGradient id="speakerGrad" cx="40%" cy="35%" r="60%" gradientUnits="objectBoundingBox">
      <stop offset="0%" stop-color="#555"/>
      <stop offset="100%" stop-color="#111"/>
    </linearGradient>
    <radialGradient id="speakerRadGrad" cx="45%" cy="40%" r="60%">
      <stop offset="0%" stop-color="#444"/>
      <stop offset="70%" stop-color="#1a1a1a"/>
      <stop offset="100%" stop-color="#0a0a0a"/>
    </radialGradient>
    <filter id="ledGlow" x="-80%" y="-80%" width="260%" height="260%">
      <feGaussianBlur stdDeviation="3" result="blur"/>
      <feMerge><feMergeNode in="blur"/><feMergeNode in="SourceGraphic"/></feMerge>
    </filter>
    <filter id="bodyShadow" x="-15%" y="-10%" width="140%" height="140%">
      <feDropShadow dx="5" dy="8" stdDeviation="10" flood-color="#000" flood-opacity="0.7"/>
    </filter>
    <filter id="knobShadow" x="-30%" y="-30%" width="170%" height="170%">
      <feDropShadow dx="1" dy="3" stdDeviation="4" flood-color="#000" flood-opacity="0.8"/>
    </filter>
    <filter id="textEmboss">
      <feDropShadow dx="0" dy="1" stdDeviation="0.5" flood-color="#000" flood-opacity="0.6"/>
    </filter>
    <filter id="innerShadow" x="-5%" y="-5%" width="110%" height="110%">
      <feDropShadow dx="0" dy="2" stdDeviation="3" flood-color="#000" flood-opacity="0.5"/>
    </filter>
    <clipPath id="bodyClip">
      <rect x="0" y="0" width="320" height="480"/>
    </clipPath>
  </defs>
  <rect width="340" height="400" fill="url(#bgGrad)"/>
  <rect x="25" y="20" width="290" height="295" rx="12" fill="url(#bodyGrad)" filter="url(#bodyShadow)"/>
  <rect x="25" y="20" width="290" height="8" rx="12" fill="white" opacity="0.12"/>
  <circle cx="42" cy="36" r="5" fill="url(#screwGrad)"/>
  <line x1="38.5" y1="36" x2="45.5" y2="36" stroke="#222" stroke-width="1.2"/>
  <line x1="42" y1="32.5" x2="42" y2="39.5" stroke="#222" stroke-width="1.2"/>
  <circle cx="298" cy="36" r="5" fill="url(#screwGrad)"/>
  <line x1="294.5" y1="36" x2="301.5" y2="36" stroke="#222" stroke-width="1.2"/>
  <line x1="298" y1="32.5" x2="298" y2="39.5" stroke="#222" stroke-width="1.2"/>
  <circle cx="42" cy="298" r="5" fill="url(#screwGrad)"/>
  <line x1="38.5" y1="298" x2="45.5" y2="298" stroke="#222" stroke-width="1.2"/>
  <line x1="42" y1="294.5" x2="42" y2="301.5" stroke="#222" stroke-width="1.2"/>
  <circle cx="298" cy="298" r="5" fill="url(#screwGrad)"/>
  <line x1="294.5" y1="298" x2="301.5" y2="298" stroke="#222" stroke-width="1.2"/>
  <line x1="298" y1="294.5" x2="298" y2="301.5" stroke="#222" stroke-width="1.2"/>
  <circle cx="55" cy="60" r="7" fill="#111"/>
  <circle cx="55" cy="60" r="5" fill="#cc0000" filter="url(#ledGlow)"/>
  <circle cx="53.5" cy="58.5" r="2" fill="white" opacity="0.5"/>
  <circle cx="55" cy="60" r="8" fill="none" stroke="#ff0000" stroke-width="1" opacity="0.25"/>
  <!-- Knob: MANUAL -->
  <line x1="60.9" y1="111.0" x2="58.3" y2="112.5" stroke="white" stroke-width="1" opacity="0.4"/>
  <line x1="60.9" y1="89.0" x2="58.3" y2="87.5" stroke="white" stroke-width="1" opacity="0.4"/>
  <line x1="80.0" y1="78.0" x2="80.0" y2="75.0" stroke="white" stroke-width="1" opacity="0.4"/>
  <line x1="99.1" y1="89.0" x2="101.7" y2="87.5" stroke="white" stroke-width="1" opacity="0.4"/>
  <line x1="99.1" y1="111.0" x2="101.7" y2="112.5" stroke="white" stroke-width="1" opacity="0.4"/>
  <circle cx="80" cy="100" r="20" fill="url(#knobRingGrad)" filter="url(#knobShadow)"/>
  <circle cx="80" cy="100" r="20" fill="none" stroke="#888" stroke-width="0.5" opacity="0.4"/>
  <circle cx="80" cy="100" r="15.600000000000001" fill="url(#knobGrad)"/>
  <ellipse cx="76.1" cy="95.3" rx="7.0" ry="4.4" fill="white" opacity="0.07"/>
  <line x1="80.0" y1="100.0" x2="68.4" y2="100.0" stroke="white" stroke-width="2" stroke-linecap="round" opacity="0.9"/>
  <circle cx="80" cy="100" r="3" fill="#3a3a3a"/>
  <text x="80" y="134" fill="white" font-size="8" text-anchor="middle" font-weight="bold" letter-spacing="0.5" filter="url(#textEmboss)" clip-path="url(#bodyClip)">MANUAL</text>
  <!-- Knob: DEPTH -->
  <line x1="120.9" y1="111.0" x2="118.3" y2="112.5" stroke="white" stroke-width="1" opacity="0.4"/>
  <line x1="120.9" y1="89.0" x2="118.3" y2="87.5" stroke="white" stroke-width="1" opacity="0.4"/>
  <line x1="140.0" y1="78.0" x2="140.0" y2="75.0" stroke="white" stroke-width="1" opacity="0.4"/>
  <line x1="159.1" y1="89.0" x2="161.7" y2="87.5" stroke="white" stroke-width="1" opacity="0.4"/>
  <line x1="159.1" y1="111.0" x2="161.7" y2="112.5" stroke="white" stroke-width="1" opacity="0.4"/>
  <circle cx="140" cy="100" r="20" fill="url(#knobRingGrad)" filter="url(#knobShadow)"/>
  <circle cx="140" cy="100" r="20" fill="none" stroke="#888" stroke-width="0.5" opacity="0.4"/>
  <circle cx="140" cy="100" r="15.600000000000001" fill="url(#knobGrad)"/>
  <ellipse cx="136.1" cy="95.3" rx="7.0" ry="4.4" fill="white" opacity="0.07"/>
  <line x1="140.0" y1="100.0" x2="128.8" y2="97.0" stroke="white" stroke-width="2" stroke-linecap="round" opacity="0.9"/>
  <circle cx="140" cy="100" r="3" fill="#3a3a3a"/>
  <text x="140" y="134" fill="white" font-size="8" text-anchor="middle" font-weight="bold" letter-spacing="0.5" filter="url(#textEmboss)" clip-path="url(#bodyClip)">DEPTH</text>
  <!-- Knob: RATE -->
  <line x1="180.9" y1="111.0" x2="178.3" y2="112.5" stroke="white" stroke-width="1" opacity="0.4"/>
  <line x1="180.9" y1="89.0" x2="178.3" y2="87.5" stroke="white" stroke-width="1" opacity="0.4"/>
  <line x1="200.0" y1="78.0" x2="200.0" y2="75.0" stroke="white" stroke-width="1" opacity="0.4"/>
  <line x1="219.1" y1="89.0" x2="221.7" y2="87.5" stroke="white" stroke-width="1" opacity="0.4"/>
  <line x1="219.1" y1="111.0" x2="221.7" y2="112.5" stroke="white" stroke-width="1" opacity="0.4"/>
  <circle cx="200" cy="100" r="20" fill="url(#knobRingGrad)" filter="url(#knobShadow)"/>
  <circle cx="200" cy="100" r="20" fill="none" stroke="#888" stroke-width="0.5" opacity="0.4"/>
  <circle cx="200" cy="100" r="15.600000000000001" fill="url(#knobGrad)"/>
  <ellipse cx="196.1" cy="95.3" rx="7.0" ry="4.4" fill="white" opacity="0.07"/>
  <line x1="200.0" y1="100.0" x2="190.0" y2="94.2" stroke="white" stroke-width="2" stroke-linecap="round" opacity="0.9"/>
  <circle cx="200" cy="100" r="3" fill="#3a3a3a"/>
  <text x="200" y="134" fill="white" font-size="8" text-anchor="middle" font-weight="bold" letter-spacing="0.5" filter="url(#textEmboss)" clip-path="url(#bodyClip)">RATE</text>
  <!-- Knob: RES -->
  <line x1="240.9" y1="111.0" x2="238.3" y2="112.5" stroke="white" stroke-width="1" opacity="0.4"/>
  <line x1="240.9" y1="89.0" x2="238.3" y2="87.5" stroke="white" stroke-width="1" opacity="0.4"/>
  <line x1="260.0" y1="78.0" x2="260.0" y2="75.0" stroke="white" stroke-width="1" opacity="0.4"/>
  <line x1="279.1" y1="89.0" x2="281.7" y2="87.5" stroke="white" stroke-width="1" opacity="0.4"/>
  <line x1="279.1" y1="111.0" x2="281.7" y2="112.5" stroke="white" stroke-width="1" opacity="0.4"/>
  <circle cx="260" cy="100" r="20" fill="url(#knobRingGrad)" filter="url(#knobShadow)"/>
  <circle cx="260" cy="100" r="20" fill="none" stroke="#888" stroke-width="0.5" opacity="0.4"/>
  <circle cx="260" cy="100" r="15.600000000000001" fill="url(#knobGrad)"/>
  <ellipse cx="256.1" cy="95.3" rx="7.0" ry="4.4" fill="white" opacity="0.07"/>
  <line x1="260.0" y1="100.0" x2="251.8" y2="91.8" stroke="white" stroke-width="2" stroke-linecap="round" opacity="0.9"/>
  <circle cx="260" cy="100" r="3" fill="#3a3a3a"/>
  <text x="260" y="134" fill="white" font-size="8" text-anchor="middle" font-weight="bold" letter-spacing="0.5" filter="url(#textEmboss)" clip-path="url(#bodyClip)">RES</text>
  <text x="170" y="235" fill="white" font-size="14" text-anchor="middle" font-weight="bold" font-style="normal" letter-spacing="1" opacity="0.95" filter="url(#textEmboss)" clip-path="url(#bodyClip)">Plexitortion</text>
  <text x="170" y="252" fill="#aaa" font-size="8" text-anchor="middle" font-weight="bold" font-style="normal" letter-spacing="2" opacity="0.7" filter="url(#textEmboss)" clip-path="url(#bodyClip)">WAMPLER</text>
  <circle cx="110" cy="275" r="22" fill="#1a1a1a"/>
  <circle cx="110" cy="275" r="22" fill="none" stroke="#555" stroke-width="1" opacity="0.5"/>
  <circle cx="110" cy="275" r="18" fill="url(#switchGrad)"/>
  <ellipse cx="106" cy="270" rx="8" ry="5" fill="white" opacity="0.05"/>
  <circle cx="110" cy="275" r="6" fill="#2a2a2a"/>
  <circle cx="108" cy="273" r="2" fill="#555" opacity="0.4"/>
  <circle cx="230" cy="275" r="22" fill="#1a1a1a"/>
  <circle cx="230" cy="275" r="22" fill="none" stroke="#555" stroke-width="1" opacity="0.5"/>
  <circle cx="230" cy="275" r="18" fill="url(#switchGrad)"/>
  <ellipse cx="226" cy="270" rx="8" ry="5" fill="white" opacity="0.05"/>
  <circle cx="230" cy="275" r="6" fill="#2a2a2a"/>
  <circle cx="228" cy="273" r="2" fill="#555" opacity="0.4"/>
  <circle cx="25" cy="200" r="10" fill="url(#jackGrad)"/>
  <circle cx="25" cy="200" r="7" fill="#1a1a1a"/>
  <circle cx="25" cy="200" r="4" fill="#0d0d0d"/>
  <circle cx="23" cy="198" r="1.5" fill="#999" opacity="0.5"/>
  <text x="41" y="204" fill="white" font-size="7" text-anchor="start" opacity="0.8">IN</text>
  <circle cx="315" cy="200" r="10" fill="url(#jackGrad)"/>
  <circle cx="315" cy="200" r="7" fill="#1a1a1a"/>
  <circle cx="315" cy="200" r="4" fill="#0d0d0d"/>
  <circle cx="313" cy="198" r="1.5" fill="#999" opacity="0.5"/>
  <text x="299" y="204" fill="white" font-size="7" text-anchor="end" opacity="0.8">OUT</text>
  <text x="170" y="345" fill="white" font-size="13" text-anchor="middle" font-weight="bold" font-style="normal" letter-spacing="1" opacity="0.95" filter="url(#textEmboss)" clip-path="url(#bodyClip)">Wampler Plexitortion</text>
  <text x="170" y="363" fill="#aaa" font-size="9" text-anchor="middle" font-weight="normal" font-style="normal" letter-spacing="1" opacity="0.7" filter="url(#textEmboss)" clip-path="url(#bodyClip)">Multi-Effects Pedal</text>
</svg>