<svg xmlns="http://www.w3.org/2000/svg" viewBox="0 0 340 400" width="340" height="400" font-family="Arial,sans-serif">
  <defs>
    <radialGradient id="bgGrad" cx="50%" cy="40%" r="65%">
      <stop offset="0%" stop-color="#2a2a2a"/>
      <stop offset="100%" stop-color="#0a0a0a"/>
    </radialGradient>
    <linearGradient id="bodyGrad" x1="0%" y1="0%" x2="100%" y2="100%">
      <stop offset="0%" stop-color="#434343"/>
      <stop offset="25%" stop-color="#111111"/>
      <stop offset="75%" stop-color="#111111"/>
      <stop offset="100%" stop-color="#000000"/>
    </linearGradient>
    <linearGradient id="bodyGradV" x1="0%" y1="0%" x2="0%" y2="100%">
      <stop offset="0%" stop-color="#434343"/>
      <stop offset="20%" stop-color="#111111"/>
      <stop offset="80%" stop-color="#111111"/>
      <stop offset="100%" stop-color="#000000"/>
    </linearGradient>
    <radialGradient id="bodyRadGrad" cx="38%" cy="32%" r="65%">
      <stop offset="0%" stop-color="#434343"/>
      <stop offset="35%" stop-color="#111111"/>
      <stop offset="100%" stop-color="#000000"/>
    </radialGradient>
    <radialGradient id="knobRingGrad" cx="35%" cy="30%" r="65%">
      <stop offset="0%" stop-color="#999"/>
      <stop offset="50%" stop-color="#444"/>
      <stop offset="100%" stop-color="#1a1a1a"/>
    </radialGradient>
    <radialGradient id="knobGrad" cx="35%" cy="30%" r="65%">
      <stop offset="0%" stop-color="#666"/>
      <stop offset="60%" stop-color="#2a2a2a"/>
      <stop offset="100%" stop-color="#0d0d0d"/>
    </radialGradient>
    <radialGradient id="screwGrad" cx="35%" cy="30%" r="65%">
      <stop offset="0%" stop-color="#bbb"/>
      <stop offset="100%" stop-color="#333"/>
    </radialGradient>
    <radialGradient id="jackGrad" cx="40%" cy="35%" r="60%">
      <stop offset="0%" stop-color="#777"/>
      <stop offset="100%" stop-color="#1a1a1a"/>
    </radialGradient>
    <linearGradient id="switchGrad" x1="0%" y1="0%" x2="0%" y2="100%">
      <stop offset="0%" stop-color="#333"/>
      <stop offset="50%" stop-color="#111"/>
      <stop offset="100%" stop-color="#080808"/>
    </linearGradient>
    <linearGradient id="grillGrad" x1="0%" y1="0%" x2="100%" y2="100%">
      <stop offset="0%" stop-color="#dedede"/>
      <stop offset="100%" stop-color="#acacac"/>
    </linearGradient>
    <linearGradient id="speakerGrad" cx="40%" cy="35%" r="60%" gradientUnits="objectBoundingBox">
      <stop offset="0%" stop-color="#555"/>
      <stop offset="100%" stop-color="#111"/>
    </linearGradient>
    <radialGradient id="speakerRadGrad" cx="45%" cy="40%" r="60%">
      <stop offset="0%" stop-color="#444"/>
      <stop offset="70%" stop-color="#1a1a1a"/>
      <stop offset="100%" stop-color="#0a0a0a"/>
    </radialGradient>
    <filter id="ledGlow" x="-80%" y="-80%" width="260%" height="260%">
      <feGaussianBlur stdDeviation="3" result="blur"/>
      <feMerge><feMergeNode in="blur"/><feMergeNode in="SourceGraphic"/></feMerge>
    </filter>
    <filter id="bodyShadow" x="-15%" y="-10%" width="140%" height="140%">
      <feDropShadow dx="5" dy="8" stdDeviation="10" flood-color="#000" flood-opacity="0.7"/>
    </filter>
    <filter id="knobShadow" x="-30%" y="-30%" width="170%" height="170%">
      <feDropShadow dx="1" dy="3" stdDeviation="4" flood-color="#000" flood-opacity="0.8"/>
    </filter>
    <filter id="textEmboss">
      <feDropShadow dx="0" dy="1" stdDeviation="0.5" flood-color="#000" flood-opacity="0.6"/>
    </filter>
    <filter id="innerShadow" x="-5%" y="-5%" width="110%" height="110%">
      <feDropShadow dx="0" dy="2" stdDeviation="3" flood-color="#000" flood-opacity="0.5"/>
    </filter>
    <clipPath id="bodyClip">
      <rect x="0" y="0" width="320" height="480"/>
    </clipPath>
  </defs>
  <rect width="340" height="400" fill="url(#bgGrad)"/>
  <rect x="15" y="15" width="310" height="330" rx="8" fill="url(#bodyGrad)" filter="url(#bodyShadow)"/>
  <circle cx="28" cy="28" r="5" fill="url(#screwGrad)"/>
  <line x1="24.5" y1="28" x2="31.5" y2="28" stroke="#222" stroke-width="1.2"/>
  <line x1="28" y1="24.5" x2="28" y2="31.5" stroke="#222" stroke-width="1.2"/>
  <circle cx="302" cy="28" r="5" fill="url(#screwGrad)"/>
  <line x1="298.5" y1="28" x2="305.5" y2="28" stroke="#222" stroke-width="1.2"/>
  <line x1="302" y1="24.5" x2="302" y2="31.5" stroke="#222" stroke-width="1.2"/>
  <circle cx="28" cy="328" r="5" fill="url(#screwGrad)"/>
  <line x1="24.5" y1="328" x2="31.5" y2="328" stroke="#222" stroke-width="1.2"/>
  <line x1="28" y1="324.5" x2="28" y2="331.5" stroke="#222" stroke-width="1.2"/>
  <circle cx="302" cy="328" r="5" fill="url(#screwGrad)"/>
  <line x1="298.5" y1="328" x2="305.5" y2="328" stroke="#222" stroke-width="1.2"/>
  <line x1="302" y1="324.5" x2="302" y2="331.5" stroke="#222" stroke-width="1.2"/>
  <rect x="15" y="15" width="310" height="72" rx="8" fill="#b8b8b8" opacity="0.9"/>
  <rect x="15" y="15" width="310" height="72" rx="8" fill="none" stroke="#888" stroke-width="0.5"/>
  <!-- Knob: MIX -->
  <line x1="61.1" y1="58.0" x2="58.5" y2="59.5" stroke="white" stroke-width="1" opacity="0.4"/>
  <line x1="61.1" y1="42.0" x2="58.5" y2="40.5" stroke="white" stroke-width="1" opacity="0.4"/>
  <line x1="75.0" y1="34.0" x2="75.0" y2="31.0" stroke="white" stroke-width="1" opacity="0.4"/>
  <line x1="88.9" y1="42.0" x2="91.5" y2="40.5" stroke="white" stroke-width="1" opacity="0.4"/>
  <line x1="88.9" y1="58.0" x2="91.5" y2="59.5" stroke="white" stroke-width="1" opacity="0.4"/>
  <circle cx="75" cy="50" r="14" fill="url(#knobRingGrad)" filter="url(#knobShadow)"/>
  <circle cx="75" cy="50" r="14" fill="none" stroke="#888" stroke-width="0.5" opacity="0.4"/>
  <circle cx="75" cy="50" r="10.92" fill="url(#knobGrad)"/>
  <ellipse cx="72.3" cy="46.7" rx="4.9" ry="3.1" fill="white" opacity="0.07"/>
  <line x1="75.0" y1="50.0" x2="68.1" y2="50.0" stroke="white" stroke-width="2" stroke-linecap="round" opacity="0.9"/>
  <circle cx="75" cy="50" r="3" fill="#3a3a3a"/>
  <text x="75" y="78" fill="#222" font-size="7" text-anchor="middle" font-weight="bold" letter-spacing="0.5" filter="url(#textEmboss)" clip-path="url(#bodyClip)">MIX</text>
  <!-- Knob: FEEDBACK -->
  <line x1="99.1" y1="58.0" x2="96.5" y2="59.5" stroke="white" stroke-width="1" opacity="0.4"/>
  <line x1="99.1" y1="42.0" x2="96.5" y2="40.5" stroke="white" stroke-width="1" opacity="0.4"/>
  <line x1="113.0" y1="34.0" x2="113.0" y2="31.0" stroke="white" stroke-width="1" opacity="0.4"/>
  <line x1="126.9" y1="42.0" x2="129.5" y2="40.5" stroke="white" stroke-width="1" opacity="0.4"/>
  <line x1="126.9" y1="58.0" x2="129.5" y2="59.5" stroke="white" stroke-width="1" opacity="0.4"/>
  <circle cx="113" cy="50" r="14" fill="url(#knobRingGrad)" filter="url(#knobShadow)"/>
  <circle cx="113" cy="50" r="14" fill="none" stroke="#888" stroke-width="0.5" opacity="0.4"/>
  <circle cx="113" cy="50" r="10.92" fill="url(#knobGrad)"/>
  <ellipse cx="110.3" cy="46.7" rx="4.9" ry="3.1" fill="white" opacity="0.07"/>
  <line x1="113.0" y1="50.0" x2="106.2" y2="48.8" stroke="white" stroke-width="2" stroke-linecap="round" opacity="0.9"/>
  <circle cx="113" cy="50" r="3" fill="#3a3a3a"/>
  <text x="113" y="78" fill="#222" font-size="7" text-anchor="middle" font-weight="bold" letter-spacing="0.5" filter="url(#textEmboss)" clip-path="url(#bodyClip)">FEEDBACK</text>
  <!-- Knob: RATE -->
  <line x1="137.1" y1="58.0" x2="134.5" y2="59.5" stroke="white" stroke-width="1" opacity="0.4"/>
  <line x1="137.1" y1="42.0" x2="134.5" y2="40.5" stroke="white" stroke-width="1" opacity="0.4"/>
  <line x1="151.0" y1="34.0" x2="151.0" y2="31.0" stroke="white" stroke-width="1" opacity="0.4"/>
  <line x1="164.9" y1="42.0" x2="167.5" y2="40.5" stroke="white" stroke-width="1" opacity="0.4"/>
  <line x1="164.9" y1="58.0" x2="167.5" y2="59.5" stroke="white" stroke-width="1" opacity="0.4"/>
  <circle cx="151" cy="50" r="14" fill="url(#knobRingGrad)" filter="url(#knobShadow)"/>
  <circle cx="151" cy="50" r="14" fill="none" stroke="#888" stroke-width="0.5" opacity="0.4"/>
  <circle cx="151" cy="50" r="10.92" fill="url(#knobGrad)"/>
  <ellipse cx="148.3" cy="46.7" rx="4.9" ry="3.1" fill="white" opacity="0.07"/>
  <line x1="151.0" y1="50.0" x2="144.5" y2="47.6" stroke="white" stroke-width="2" stroke-linecap="round" opacity="0.9"/>
  <circle cx="151" cy="50" r="3" fill="#3a3a3a"/>
  <text x="151" y="78" fill="#222" font-size="7" text-anchor="middle" font-weight="bold" letter-spacing="0.5" filter="url(#textEmboss)" clip-path="url(#bodyClip)">RATE</text>
  <!-- Knob: MOD -->
  <line x1="175.1" y1="58.0" x2="172.5" y2="59.5" stroke="white" stroke-width="1" opacity="0.4"/>
  <line x1="175.1" y1="42.0" x2="172.5" y2="40.5" stroke="white" stroke-width="1" opacity="0.4"/>
  <line x1="189.0" y1="34.0" x2="189.0" y2="31.0" stroke="white" stroke-width="1" opacity="0.4"/>
  <line x1="202.9" y1="42.0" x2="205.5" y2="40.5" stroke="white" stroke-width="1" opacity="0.4"/>
  <line x1="202.9" y1="58.0" x2="205.5" y2="59.5" stroke="white" stroke-width="1" opacity="0.4"/>
  <circle cx="189" cy="50" r="14" fill="url(#knobRingGrad)" filter="url(#knobShadow)"/>
  <circle cx="189" cy="50" r="14" fill="none" stroke="#888" stroke-width="0.5" opacity="0.4"/>
  <circle cx="189" cy="50" r="10.92" fill="url(#knobGrad)"/>
  <ellipse cx="186.3" cy="46.7" rx="4.9" ry="3.1" fill="white" opacity="0.07"/>
  <line x1="189.0" y1="50.0" x2="183.0" y2="46.5" stroke="white" stroke-width="2" stroke-linecap="round" opacity="0.9"/>
  <circle cx="189" cy="50" r="3" fill="#3a3a3a"/>
  <text x="189" y="78" fill="#222" font-size="7" text-anchor="middle" font-weight="bold" letter-spacing="0.5" filter="url(#textEmboss)" clip-path="url(#bodyClip)">MOD</text>
  <!-- Knob: PITCH -->
  <line x1="213.1" y1="58.0" x2="210.5" y2="59.5" stroke="white" stroke-width="1" opacity="0.4"/>
  <line x1="213.1" y1="42.0" x2="210.5" y2="40.5" stroke="white" stroke-width="1" opacity="0.4"/>
  <line x1="227.0" y1="34.0" x2="227.0" y2="31.0" stroke="white" stroke-width="1" opacity="0.4"/>
  <line x1="240.9" y1="42.0" x2="243.5" y2="40.5" stroke="white" stroke-width="1" opacity="0.4"/>
  <line x1="240.9" y1="58.0" x2="243.5" y2="59.5" stroke="white" stroke-width="1" opacity="0.4"/>
  <circle cx="227" cy="50" r="14" fill="url(#knobRingGrad)" filter="url(#knobShadow)"/>
  <circle cx="227" cy="50" r="14" fill="none" stroke="#888" stroke-width="0.5" opacity="0.4"/>
  <circle cx="227" cy="50" r="10.92" fill="url(#knobGrad)"/>
  <ellipse cx="224.3" cy="46.7" rx="4.9" ry="3.1" fill="white" opacity="0.07"/>
  <line x1="227.0" y1="50.0" x2="221.7" y2="45.6" stroke="white" stroke-width="2" stroke-linecap="round" opacity="0.9"/>
  <circle cx="227" cy="50" r="3" fill="#3a3a3a"/>
  <text x="227" y="78" fill="#222" font-size="7" text-anchor="middle" font-weight="bold" letter-spacing="0.5" filter="url(#textEmboss)" clip-path="url(#bodyClip)">PITCH</text>
  <!-- Knob: DELAY -->
  <line x1="251.1" y1="58.0" x2="248.5" y2="59.5" stroke="white" stroke-width="1" opacity="0.4"/>
  <line x1="251.1" y1="42.0" x2="248.5" y2="40.5" stroke="white" stroke-width="1" opacity="0.4"/>
  <line x1="265.0" y1="34.0" x2="265.0" y2="31.0" stroke="white" stroke-width="1" opacity="0.4"/>
  <line x1="278.9" y1="42.0" x2="281.5" y2="40.5" stroke="white" stroke-width="1" opacity="0.4"/>
  <line x1="278.9" y1="58.0" x2="281.5" y2="59.5" stroke="white" stroke-width="1" opacity="0.4"/>
  <circle cx="265" cy="50" r="14" fill="url(#knobRingGrad)" filter="url(#knobShadow)"/>
  <circle cx="265" cy="50" r="14" fill="none" stroke="#888" stroke-width="0.5" opacity="0.4"/>
  <circle cx="265" cy="50" r="10.92" fill="url(#knobGrad)"/>
  <ellipse cx="262.3" cy="46.7" rx="4.9" ry="3.1" fill="white" opacity="0.07"/>
  <line x1="265.0" y1="50.0" x2="260.6" y2="44.7" stroke="white" stroke-width="2" stroke-linecap="round" opacity="0.9"/>
  <circle cx="265" cy="50" r="3" fill="#3a3a3a"/>
  <text x="265" y="78" fill="#222" font-size="7" text-anchor="middle" font-weight="bold" letter-spacing="0.5" filter="url(#textEmboss)" clip-path="url(#bodyClip)">DELAY</text>
  <circle cx="295" cy="38" r="7" fill="#111"/>
  <circle cx="295" cy="38" r="5" fill="#cc0000" filter="url(#ledGlow)"/>
  <circle cx="293.5" cy="36.5" r="2" fill="white" opacity="0.5"/>
  <circle cx="295" cy="38" r="8" fill="none" stroke="#ff0000" stroke-width="1" opacity="0.25"/>
  <text x="75" y="58" fill="#222" font-size="14" text-anchor="middle" font-weight="bold" font-style="normal" letter-spacing="2" opacity="0.95" filter="url(#textEmboss)" clip-path="url(#bodyClip)">FENDER</text>
  <rect x="25" y="95" width="290" height="220" rx="4" fill="url(#grillGrad)" filter="url(#innerShadow)"/>
  <line x1="25" y1="95" x2="25" y2="315" stroke="#000" stroke-width="0.4" opacity="0.2"/>
  <line x1="31" y1="95" x2="31" y2="315" stroke="#000" stroke-width="0.4" opacity="0.2"/>
  <line x1="37" y1="95" x2="37" y2="315" stroke="#000" stroke-width="0.4" opacity="0.2"/>
  <line x1="43" y1="95" x2="43" y2="315" stroke="#000" stroke-width="0.4" opacity="0.2"/>
  <line x1="49" y1="95" x2="49" y2="315" stroke="#000" stroke-width="0.4" opacity="0.2"/>
  <line x1="55" y1="95" x2="55" y2="315" stroke="#000" stroke-width="0.4" opacity="0.2"/>
  <line x1="61" y1="95" x2="61" y2="315" stroke="#000" stroke-width="0.4" opacity="0.2"/>
  <line x1="67" y1="95" x2="67" y2="315" stroke="#000" stroke-width="0.4" opacity="0.2"/>
  <line x1="73" y1="95" x2="73" y2="315" stroke="#000" stroke-width="0.4" opacity="0.2"/>
  <line x1="79" y1="95" x2="79" y2="315" stroke="#000" stroke-width="0.4" opacity="0.2"/>
  <line x1="85" y1="95" x2="85" y2="315" stroke="#000" stroke-width="0.4" opacity="0.2"/>
  <line x1="91" y1="95" x2="91" y2="315" stroke="#000" stroke-width="0.4" opacity="0.2"/>
  <line x1="97" y1="95" x2="97" y2="315" stroke="#000" stroke-width="0.4" opacity="0.2"/>
  <line x1="103" y1="95" x2="103" y2="315" stroke="#000" stroke-width="0.4" opacity="0.2"/>
  <line x1="109" y1="95" x2="109" y2="315" stroke="#000" stroke-width="0.4" opacity="0.2"/>
  <line x1="115" y1="95" x2="115" y2="315" stroke="#000" stroke-width="0.4" opacity="0.2"/>
  <line x1="121" y1="95" x2="121" y2="315" stroke="#000" stroke-width="0.4" opacity="0.2"/>
  <line x1="127" y1="95" x2="127" y2="315" stroke="#000" stroke-width="0.4" opacity="0.2"/>
  <line x1="133" y1="95" x2="133" y2="315" stroke="#000" stroke-width="0.4" opacity="0.2"/>
  <line x1="139" y1="95" x2="139" y2="315" stroke="#000" stroke-width="0.4" opacity="0.2"/>
  <line x1="145" y1="95" x2="145" y2="315" stroke="#000" stroke-width="0.4" opacity="0.2"/>
  <line x1="151" y1="95" x2="151" y2="315" stroke="#000" stroke-width="0.4" opacity="0.2"/>
  <line x1="157" y1="95" x2="157" y2="315" stroke="#000" stroke-width="0.4" opacity="0.2"/>
  <line x1="163" y1="95" x2="163" y2="315" stroke="#000" stroke-width="0.4" opacity="0.2"/>
  <line x1="169" y1="95" x2="169" y2="315" stroke="#000" stroke-width="0.4" opacity="0.2"/>
  <line x1="175" y1="95" x2="175" y2="315" stroke="#000" stroke-width="0.4" opacity="0.2"/>
  <line x1="181" y1="95" x2="181" y2="315" stroke="#000" stroke-width="0.4" opacity="0.2"/>
  <line x1="187" y1="95" x2="187" y2="315" stroke="#000" stroke-width="0.4" opacity="0.2"/>
  <line x1="193" y1="95" x2="193" y2="315" stroke="#000" stroke-width="0.4" opacity="0.2"/>
  <line x1="199" y1="95" x2="199" y2="315" stroke="#000" stroke-width="0.4" opacity="0.2"/>
  <line x1="205" y1="95" x2="205" y2="315" stroke="#000" stroke-width="0.4" opacity="0.2"/>
  <line x1="211" y1="95" x2="211" y2="315" stroke="#000" stroke-width="0.4" opacity="0.2"/>
  <line x1="217" y1="95" x2="217" y2="315" stroke="#000" stroke-width="0.4" opacity="0.2"/>
  <line x1="223" y1="95" x2="223" y2="315" stroke="#000" stroke-width="0.4" opacity="0.2"/>
  <line x1="229" y1="95" x2="229" y2="315" stroke="#000" stroke-width="0.4" opacity="0.2"/>
  <line x1="235" y1="95" x2="235" y2="315" stroke="#000" stroke-width="0.4" opacity="0.2"/>
  <line x1="241" y1="95" x2="241" y2="315" stroke="#000" stroke-width="0.4" opacity="0.2"/>
  <line x1="247" y1="95" x2="247" y2="315" stroke="#000" stroke-width="0.4" opacity="0.2"/>
  <line x1="253" y1="95" x2="253" y2="315" stroke="#000" stroke-width="0.4" opacity="0.2"/>
  <line x1="259" y1="95" x2="259" y2="315" stroke="#000" stroke-width="0.4" opacity="0.2"/>
  <line x1="265" y1="95" x2="265" y2="315" stroke="#000" stroke-width="0.4" opacity="0.2"/>
  <line x1="271" y1="95" x2="271" y2="315" stroke="#000" stroke-width="0.4" opacity="0.2"/>
  <line x1="277" y1="95" x2="277" y2="315" stroke="#000" stroke-width="0.4" opacity="0.2"/>
  <line x1="283" y1="95" x2="283" y2="315" stroke="#000" stroke-width="0.4" opacity="0.2"/>
  <line x1="289" y1="95" x2="289" y2="315" stroke="#000" stroke-width="0.4" opacity="0.2"/>
  <line x1="295" y1="95" x2="295" y2="315" stroke="#000" stroke-width="0.4" opacity="0.2"/>
  <line x1="301" y1="95" x2="301" y2="315" stroke="#000" stroke-width="0.4" opacity="0.2"/>
  <line x1="307" y1="95" x2="307" y2="315" stroke="#000" stroke-width="0.4" opacity="0.2"/>
  <line x1="313" y1="95" x2="313" y2="315" stroke="#000" stroke-width="0.4" opacity="0.2"/>
  <line x1="25" y1="95" x2="315" y2="95" stroke="#000" stroke-width="0.4" opacity="0.2"/>
  <line x1="25" y1="101" x2="315" y2="101" stroke="#000" stroke-width="0.4" opacity="0.2"/>
  <line x1="25" y1="107" x2="315" y2="107" stroke="#000" stroke-width="0.4" opacity="0.2"/>
  <line x1="25" y1="113" x2="315" y2="113" stroke="#000" stroke-width="0.4" opacity="0.2"/>
  <line x1="25" y1="119" x2="315" y2="119" stroke="#000" stroke-width="0.4" opacity="0.2"/>
  <line x1="25" y1="125" x2="315" y2="125" stroke="#000" stroke-width="0.4" opacity="0.2"/>
  <line x1="25" y1="131" x2="315" y2="131" stroke="#000" stroke-width="0.4" opacity="0.2"/>
  <line x1="25" y1="137" x2="315" y2="137" stroke="#000" stroke-width="0.4" opacity="0.2"/>
  <line x1="25" y1="143" x2="315" y2="143" stroke="#000" stroke-width="0.4" opacity="0.2"/>
  <line x1="25" y1="149" x2="315" y2="149" stroke="#000" stroke-width="0.4" opacity="0.2"/>
  <line x1="25" y1="155" x2="315" y2="155" stroke="#000" stroke-width="0.4" opacity="0.2"/>
  <line x1="25" y1="161" x2="315" y2="161" stroke="#000" stroke-width="0.4" opacity="0.2"/>
  <line x1="25" y1="167" x2="315" y2="167" stroke="#000" stroke-width="0.4" opacity="0.2"/>
  <line x1="25" y1="173" x2="315" y2="173" stroke="#000" stroke-width="0.4" opacity="0.2"/>
  <line x1="25" y1="179" x2="315" y2="179" stroke="#000" stroke-width="0.4" opacity="0.2"/>
  <line x1="25" y1="185" x2="315" y2="185" stroke="#000" stroke-width="0.4" opacity="0.2"/>
  <line x1="25" y1="191" x2="315" y2="191" stroke="#000" stroke-width="0.4" opacity="0.2"/>
  <line x1="25" y1="197" x2="315" y2="197" stroke="#000" stroke-width="0.4" opacity="0.2"/>
  <line x1="25" y1="203" x2="315" y2="203" stroke="#000" stroke-width="0.4" opacity="0.2"/>
  <line x1="25" y1="209" x2="315" y2="209" stroke="#000" stroke-width="0.4" opacity="0.2"/>
  <line x1="25" y1="215" x2="315" y2="215" stroke="#000" stroke-width="0.4" opacity="0.2"/>
  <line x1="25" y1="221" x2="315" y2="221" stroke="#000" stroke-width="0.4" opacity="0.2"/>
  <line x1="25" y1="227" x2="315" y2="227" stroke="#000" stroke-width="0.4" opacity="0.2"/>
  <line x1="25" y1="233" x2="315" y2="233" stroke="#000" stroke-width="0.4" opacity="0.2"/>
  <line x1="25" y1="239" x2="315" y2="239" stroke="#000" stroke-width="0.4" opacity="0.2"/>
  <line x1="25" y1="245" x2="315" y2="245" stroke="#000" stroke-width="0.4" opacity="0.2"/>
  <line x1="25" y1="251" x2="315" y2="251" stroke="#000" stroke-width="0.4" opacity="0.2"/>
  <line x1="25" y1="257" x2="315" y2="257" stroke="#000" stroke-width="0.4" opacity="0.2"/>
  <line x1="25" y1="263" x2="315" y2="263" stroke="#000" stroke-width="0.4" opacity="0.2"/>
  <line x1="25" y1="269" x2="315" y2="269" stroke="#000" stroke-width="0.4" opacity="0.2"/>
  <line x1="25" y1="275" x2="315" y2="275" stroke="#000" stroke-width="0.4" opacity="0.2"/>
  <line x1="25" y1="281" x2="315" y2="281" stroke="#000" stroke-width="0.4" opacity="0.2"/>
  <line x1="25" y1="287" x2="315" y2="287" stroke="#000" stroke-width="0.4" opacity="0.2"/>
  <line x1="25" y1="293" x2="315" y2="293" stroke="#000" stroke-width="0.4" opacity="0.2"/>
  <line x1="25" y1="299" x2="315" y2="299" stroke="#000" stroke-width="0.4" opacity="0.2"/>
  <line x1="25" y1="305" x2="315" y2="305" stroke="#000" stroke-width="0.4" opacity="0.2"/>
  <line x1="25" y1="311" x2="315" y2="311" stroke="#000" stroke-width="0.4" opacity="0.2"/>
  <rect x="25" y="95" width="290" height="220" rx="4" fill="none" stroke="#000" stroke-width="1" opacity="0.3"/>
  <circle cx="170" cy="205" r="105" fill="url(#speakerRadGrad)" filter="url(#innerShadow)"/>
  <circle cx="170" cy="205" r="105.0" fill="none" stroke="#888" stroke-width="0.8" opacity="0.15"/>
  <circle cx="170" cy="205" r="86.1" fill="none" stroke="#888" stroke-width="0.8" opacity="0.20"/>
  <circle cx="170" cy="205" r="67.2" fill="none" stroke="#888" stroke-width="0.8" opacity="0.25"/>
  <circle cx="170" cy="205" r="48.3" fill="none" stroke="#888" stroke-width="0.8" opacity="0.30"/>
  <circle cx="170" cy="205" r="29.4" fill="none" stroke="#888" stroke-width="0.8" opacity="0.35"/>
  <circle cx="170" cy="205" r="14.7" fill="none" stroke="#888" stroke-width="0.8" opacity="0.40"/>
  <circle cx="170" cy="205" r="12.6" fill="#222"/>
  <circle cx="161.6" cy="196.6" r="5.2" fill="#555" opacity="0.4"/>
  <path d="M 120 18 Q 170 7 220 18" fill="none" stroke="#555" stroke-width="5" stroke-linecap="round"/>
  <rect x="27" y="340" width="16" height="8" rx="3" fill="#222"/>
  <rect x="297" y="340" width="16" height="8" rx="3" fill="#222"/>
  <text x="170" y="370" fill="white" font-size="13" text-anchor="middle" font-weight="bold" font-style="normal" letter-spacing="1" opacity="0.95" filter="url(#textEmboss)" clip-path="url(#bodyClip)">Fender Brownface Vibro-King</text>
  <text x="170" y="388" fill="#aaa" font-size="9" text-anchor="middle" font-weight="normal" font-style="normal" letter-spacing="1" opacity="0.7" filter="url(#textEmboss)" clip-path="url(#bodyClip)">Combo Amplifier</text>
</svg>