<svg xmlns="http://www.w3.org/2000/svg" viewBox="0 0 280 400" width="280" height="400" font-family="Arial,sans-serif">
  <defs>
    <radialGradient id="bgGrad" cx="50%" cy="40%" r="65%">
      <stop offset="0%" stop-color="#2a2a2a"/>
      <stop offset="100%" stop-color="#0a0a0a"/>
    </radialGradient>
    <linearGradient id="bodyGrad" x1="0%" y1="0%" x2="100%" y2="100%">
      <stop offset="0%" stop-color="#4c4c4c"/>
      <stop offset="25%" stop-color="#1a1a1a"/>
      <stop offset="75%" stop-color="#1a1a1a"/>
      <stop offset="100%" stop-color="#000000"/>
    </linearGradient>
    <linearGradient id="bodyGradV" x1="0%" y1="0%" x2="0%" y2="100%">
      <stop offset="0%" stop-color="#4c4c4c"/>
      <stop offset="20%" stop-color="#1a1a1a"/>
      <stop offset="80%" stop-color="#1a1a1a"/>
      <stop offset="100%" stop-color="#000000"/>
    </linearGradient>
    <radialGradient id="bodyRadGrad" cx="38%" cy="32%" r="65%">
      <stop offset="0%" stop-color="#4c4c4c"/>
      <stop offset="35%" stop-color="#1a1a1a"/>
      <stop offset="100%" stop-color="#000000"/>
    </radialGradient>
    <radialGradient id="knobRingGrad" cx="35%" cy="30%" r="65%">
      <stop offset="0%" stop-color="#999"/>
      <stop offset="50%" stop-color="#444"/>
      <stop offset="100%" stop-color="#1a1a1a"/>
    </radialGradient>
    <radialGradient id="knobGrad" cx="35%" cy="30%" r="65%">
      <stop offset="0%" stop-color="#666"/>
      <stop offset="60%" stop-color="#2a2a2a"/>
      <stop offset="100%" stop-color="#0d0d0d"/>
    </radialGradient>
    <radialGradient id="screwGrad" cx="35%" cy="30%" r="65%">
      <stop offset="0%" stop-color="#bbb"/>
      <stop offset="100%" stop-color="#333"/>
    </radialGradient>
    <radialGradient id="jackGrad" cx="40%" cy="35%" r="60%">
      <stop offset="0%" stop-color="#777"/>
      <stop offset="100%" stop-color="#1a1a1a"/>
    </radialGradient>
    <linearGradient id="switchGrad" x1="0%" y1="0%" x2="0%" y2="100%">
      <stop offset="0%" stop-color="#333"/>
      <stop offset="50%" stop-color="#111"/>
      <stop offset="100%" stop-color="#080808"/>
    </linearGradient>
    <linearGradient id="grillGrad" x1="0%" y1="0%" x2="100%" y2="100%">
      <stop offset="0%" stop-color="#a99173"/>
      <stop offset="100%" stop-color="#775f41"/>
    </linearGradient>
    <linearGradient id="speakerGrad" cx="40%" cy="35%" r="60%" gradientUnits="objectBoundingBox">
      <stop offset="0%" stop-color="#555"/>
      <stop offset="100%" stop-color="#111"/>
    </linearGradient>
    <radialGradient id="speakerRadGrad" cx="45%" cy="40%" r="60%">
      <stop offset="0%" stop-color="#444"/>
      <stop offset="70%" stop-color="#1a1a1a"/>
      <stop offset="100%" stop-color="#0a0a0a"/>
    </radialGradient>
    <filter id="ledGlow" x="-80%" y="-80%" width="260%" height="260%">
      <feGaussianBlur stdDeviation="3" result="blur"/>
      <feMerge><feMergeNode in="blur"/><feMergeNode in="SourceGraphic"/></feMerge>
    </filter>
    <filter id="bodyShadow" x="-15%" y="-10%" width="140%" height="140%">
      <feDropShadow dx="5" dy="8" stdDeviation="10" flood-color="#000" flood-opacity="0.7"/>
    </filter>
    <filter id="knobShadow" x="-30%" y="-30%" width="170%" height="170%">
      <feDropShadow dx="1" dy="3" stdDeviation="4" flood-color="#000" flood-opacity="0.8"/>
    </filter>
    <filter id="textEmboss">
      <feDropShadow dx="0" dy="1" stdDeviation="0.5" flood-color="#000" flood-opacity="0.6"/>
    </filter>
    <filter id="innerShadow" x="-5%" y="-5%" width="110%" height="110%">
      <feDropShadow dx="0" dy="2" stdDeviation="3" flood-color="#000" flood-opacity="0.5"/>
    </filter>
    <clipPath id="bodyClip">
      <rect x="0" y="0" width="320" height="480"/>
    </clipPath>
  </defs>
  <rect width="280" height="400" fill="url(#bgGrad)"/>
  <rect x="35" y="25" width="210" height="270" rx="10" fill="url(#bodyGrad)" filter="url(#bodyShadow)"/>
  <rect x="35" y="25" width="210" height="8" rx="10" fill="white" opacity="0.15"/>
  <rect x="35" y="25" width="5" height="270" rx="3" fill="white" opacity="0.1"/>
  <circle cx="52" cy="42" r="5" fill="url(#screwGrad)"/>
  <line x1="48.5" y1="42" x2="55.5" y2="42" stroke="#222" stroke-width="1.2"/>
  <line x1="52" y1="38.5" x2="52" y2="45.5" stroke="#222" stroke-width="1.2"/>
  <circle cx="228" cy="42" r="5" fill="url(#screwGrad)"/>
  <line x1="224.5" y1="42" x2="231.5" y2="42" stroke="#222" stroke-width="1.2"/>
  <line x1="228" y1="38.5" x2="228" y2="45.5" stroke="#222" stroke-width="1.2"/>
  <circle cx="52" cy="278" r="5" fill="url(#screwGrad)"/>
  <line x1="48.5" y1="278" x2="55.5" y2="278" stroke="#222" stroke-width="1.2"/>
  <line x1="52" y1="274.5" x2="52" y2="281.5" stroke="#222" stroke-width="1.2"/>
  <circle cx="228" cy="278" r="5" fill="url(#screwGrad)"/>
  <line x1="224.5" y1="278" x2="231.5" y2="278" stroke="#222" stroke-width="1.2"/>
  <line x1="228" y1="274.5" x2="228" y2="281.5" stroke="#222" stroke-width="1.2"/>
  <circle cx="52" cy="75" r="7" fill="#111"/>
  <circle cx="52" cy="75" r="5" fill="#cc0000" filter="url(#ledGlow)"/>
  <circle cx="50.5" cy="73.5" r="2" fill="white" opacity="0.5"/>
  <circle cx="52" cy="75" r="8" fill="none" stroke="#ff0000" stroke-width="1" opacity="0.25"/>
  <!-- Knob: TIME -->
  <line x1="52.2" y1="142.0" x2="49.6" y2="143.5" stroke="white" stroke-width="1" opacity="0.4"/>
  <line x1="52.2" y1="118.0" x2="49.6" y2="116.5" stroke="white" stroke-width="1" opacity="0.4"/>
  <line x1="73.0" y1="106.0" x2="73.0" y2="103.0" stroke="white" stroke-width="1" opacity="0.4"/>
  <line x1="93.8" y1="118.0" x2="96.4" y2="116.5" stroke="white" stroke-width="1" opacity="0.4"/>
  <line x1="93.8" y1="142.0" x2="96.4" y2="143.5" stroke="white" stroke-width="1" opacity="0.4"/>
  <circle cx="73" cy="130" r="22" fill="url(#knobRingGrad)" filter="url(#knobShadow)"/>
  <circle cx="73" cy="130" r="22" fill="none" stroke="#888" stroke-width="0.5" opacity="0.4"/>
  <circle cx="73" cy="130" r="17.16" fill="url(#knobGrad)"/>
  <ellipse cx="68.7" cy="124.9" rx="7.7" ry="4.8" fill="white" opacity="0.07"/>
  <line x1="73.0" y1="130.0" x2="59.8" y2="130.0" stroke="white" stroke-width="2" stroke-linecap="round" opacity="0.9"/>
  <circle cx="73" cy="130" r="3" fill="#3a3a3a"/>
  <text x="73" y="166" fill="white" font-size="9" text-anchor="middle" font-weight="bold" letter-spacing="0.5" filter="url(#textEmboss)" clip-path="url(#bodyClip)">TIME</text>
  <!-- Knob: DEGRADE -->
  <line x1="97.2" y1="142.0" x2="94.6" y2="143.5" stroke="white" stroke-width="1" opacity="0.4"/>
  <line x1="97.2" y1="118.0" x2="94.6" y2="116.5" stroke="white" stroke-width="1" opacity="0.4"/>
  <line x1="118.0" y1="106.0" x2="118.0" y2="103.0" stroke="white" stroke-width="1" opacity="0.4"/>
  <line x1="138.8" y1="118.0" x2="141.4" y2="116.5" stroke="white" stroke-width="1" opacity="0.4"/>
  <line x1="138.8" y1="142.0" x2="141.4" y2="143.5" stroke="white" stroke-width="1" opacity="0.4"/>
  <circle cx="118" cy="130" r="22" fill="url(#knobRingGrad)" filter="url(#knobShadow)"/>
  <circle cx="118" cy="130" r="22" fill="none" stroke="#888" stroke-width="0.5" opacity="0.4"/>
  <circle cx="118" cy="130" r="17.16" fill="url(#knobGrad)"/>
  <ellipse cx="113.7" cy="124.9" rx="7.7" ry="4.8" fill="white" opacity="0.07"/>
  <line x1="118.0" y1="130.0" x2="105.6" y2="125.5" stroke="white" stroke-width="2" stroke-linecap="round" opacity="0.9"/>
  <circle cx="118" cy="130" r="3" fill="#3a3a3a"/>
  <text x="118" y="166" fill="white" font-size="9" text-anchor="middle" font-weight="bold" letter-spacing="0.5" filter="url(#textEmboss)" clip-path="url(#bodyClip)">DEGRADE</text>
  <!-- Knob: MIX -->
  <line x1="142.2" y1="142.0" x2="139.6" y2="143.5" stroke="white" stroke-width="1" opacity="0.4"/>
  <line x1="142.2" y1="118.0" x2="139.6" y2="116.5" stroke="white" stroke-width="1" opacity="0.4"/>
  <line x1="163.0" y1="106.0" x2="163.0" y2="103.0" stroke="white" stroke-width="1" opacity="0.4"/>
  <line x1="183.8" y1="118.0" x2="186.4" y2="116.5" stroke="white" stroke-width="1" opacity="0.4"/>
  <line x1="183.8" y1="142.0" x2="186.4" y2="143.5" stroke="white" stroke-width="1" opacity="0.4"/>
  <circle cx="163" cy="130" r="22" fill="url(#knobRingGrad)" filter="url(#knobShadow)"/>
  <circle cx="163" cy="130" r="22" fill="none" stroke="#888" stroke-width="0.5" opacity="0.4"/>
  <circle cx="163" cy="130" r="17.16" fill="url(#knobGrad)"/>
  <ellipse cx="158.7" cy="124.9" rx="7.7" ry="4.8" fill="white" opacity="0.07"/>
  <line x1="163.0" y1="130.0" x2="152.9" y2="121.5" stroke="white" stroke-width="2" stroke-linecap="round" opacity="0.9"/>
  <circle cx="163" cy="130" r="3" fill="#3a3a3a"/>
  <text x="163" y="166" fill="white" font-size="9" text-anchor="middle" font-weight="bold" letter-spacing="0.5" filter="url(#textEmboss)" clip-path="url(#bodyClip)">MIX</text>
  <!-- Knob: FEEDBACK -->
  <line x1="187.2" y1="142.0" x2="184.6" y2="143.5" stroke="white" stroke-width="1" opacity="0.4"/>
  <line x1="187.2" y1="118.0" x2="184.6" y2="116.5" stroke="white" stroke-width="1" opacity="0.4"/>
  <line x1="208.0" y1="106.0" x2="208.0" y2="103.0" stroke="white" stroke-width="1" opacity="0.4"/>
  <line x1="228.8" y1="118.0" x2="231.4" y2="116.5" stroke="white" stroke-width="1" opacity="0.4"/>
  <line x1="228.8" y1="142.0" x2="231.4" y2="143.5" stroke="white" stroke-width="1" opacity="0.4"/>
  <circle cx="208" cy="130" r="22" fill="url(#knobRingGrad)" filter="url(#knobShadow)"/>
  <circle cx="208" cy="130" r="22" fill="none" stroke="#888" stroke-width="0.5" opacity="0.4"/>
  <circle cx="208" cy="130" r="17.16" fill="url(#knobGrad)"/>
  <ellipse cx="203.7" cy="124.9" rx="7.7" ry="4.8" fill="white" opacity="0.07"/>
  <line x1="208.0" y1="130.0" x2="201.4" y2="118.6" stroke="white" stroke-width="2" stroke-linecap="round" opacity="0.9"/>
  <circle cx="208" cy="130" r="3" fill="#3a3a3a"/>
  <text x="208" y="166" fill="white" font-size="9" text-anchor="middle" font-weight="bold" letter-spacing="0.5" filter="url(#textEmboss)" clip-path="url(#bodyClip)">FEEDBACK</text>
  <text x="140" y="195" fill="white" font-size="16" text-anchor="middle" font-weight="bold" font-style="normal" letter-spacing="1" opacity="0.95" filter="url(#textEmboss)" clip-path="url(#bodyClip)">Scout</text>
  <text x="140" y="213" fill="white" font-size="9" text-anchor="middle" font-weight="bold" font-style="normal" letter-spacing="3" opacity="0.7" filter="url(#textEmboss)" clip-path="url(#bodyClip)">GIBSON</text>
  <circle cx="140" cy="255" r="24" fill="#1a1a1a"/>
  <circle cx="140" cy="255" r="24" fill="none" stroke="#555" stroke-width="1" opacity="0.5"/>
  <circle cx="140" cy="255" r="20" fill="url(#switchGrad)"/>
  <ellipse cx="136" cy="250" rx="9" ry="6" fill="white" opacity="0.05"/>
  <circle cx="140" cy="255" r="6" fill="#2a2a2a"/>
  <circle cx="138" cy="253" r="2" fill="#555" opacity="0.4"/>
  <circle cx="35" cy="200" r="10" fill="url(#jackGrad)"/>
  <circle cx="35" cy="200" r="7" fill="#1a1a1a"/>
  <circle cx="35" cy="200" r="4" fill="#0d0d0d"/>
  <circle cx="33" cy="198" r="1.5" fill="#999" opacity="0.5"/>
  <text x="51" y="204" fill="white" font-size="7" text-anchor="start" opacity="0.8">IN</text>
  <circle cx="245" cy="200" r="10" fill="url(#jackGrad)"/>
  <circle cx="245" cy="200" r="7" fill="#1a1a1a"/>
  <circle cx="245" cy="200" r="4" fill="#0d0d0d"/>
  <circle cx="243" cy="198" r="1.5" fill="#999" opacity="0.5"/>
  <text x="229" y="204" fill="white" font-size="7" text-anchor="end" opacity="0.8">OUT</text>
  <text x="140" y="340" fill="white" font-size="13" text-anchor="middle" font-weight="bold" font-style="normal" letter-spacing="1" opacity="0.95" filter="url(#textEmboss)" clip-path="url(#bodyClip)">Gibson Scout</text>
  <text x="140" y="358" fill="#aaa" font-size="9" text-anchor="middle" font-weight="normal" font-style="normal" letter-spacing="1" opacity="0.7" filter="url(#textEmboss)" clip-path="url(#bodyClip)">Guitar Effects Pedal</text>
</svg>