<svg xmlns="http://www.w3.org/2000/svg" viewBox="0 0 320 380" width="320" height="380" font-family="Arial,sans-serif">
  <defs>
    <radialGradient id="bgGrad" cx="50%" cy="40%" r="65%">
      <stop offset="0%" stop-color="#2a2a2a"/>
      <stop offset="100%" stop-color="#0a0a0a"/>
    </radialGradient>
    <linearGradient id="bodyGrad" x1="0%" y1="0%" x2="100%" y2="100%">
      <stop offset="0%" stop-color="#ff9832"/>
      <stop offset="25%" stop-color="#FF6600"/>
      <stop offset="75%" stop-color="#FF6600"/>
      <stop offset="100%" stop-color="#d73e00"/>
    </linearGradient>
    <linearGradient id="bodyGradV" x1="0%" y1="0%" x2="0%" y2="100%">
      <stop offset="0%" stop-color="#ff9832"/>
      <stop offset="20%" stop-color="#FF6600"/>
      <stop offset="80%" stop-color="#FF6600"/>
      <stop offset="100%" stop-color="#d73e00"/>
    </linearGradient>
    <radialGradient id="bodyRadGrad" cx="38%" cy="32%" r="65%">
      <stop offset="0%" stop-color="#ff9832"/>
      <stop offset="35%" stop-color="#FF6600"/>
      <stop offset="100%" stop-color="#d73e00"/>
    </radialGradient>
    <radialGradient id="knobRingGrad" cx="35%" cy="30%" r="65%">
      <stop offset="0%" stop-color="#999"/>
      <stop offset="50%" stop-color="#444"/>
      <stop offset="100%" stop-color="#1a1a1a"/>
    </radialGradient>
    <radialGradient id="knobGrad" cx="35%" cy="30%" r="65%">
      <stop offset="0%" stop-color="#666"/>
      <stop offset="60%" stop-color="#2a2a2a"/>
      <stop offset="100%" stop-color="#0d0d0d"/>
    </radialGradient>
    <radialGradient id="screwGrad" cx="35%" cy="30%" r="65%">
      <stop offset="0%" stop-color="#bbb"/>
      <stop offset="100%" stop-color="#333"/>
    </radialGradient>
    <radialGradient id="jackGrad" cx="40%" cy="35%" r="60%">
      <stop offset="0%" stop-color="#777"/>
      <stop offset="100%" stop-color="#1a1a1a"/>
    </radialGradient>
    <linearGradient id="switchGrad" x1="0%" y1="0%" x2="0%" y2="100%">
      <stop offset="0%" stop-color="#333"/>
      <stop offset="50%" stop-color="#111"/>
      <stop offset="100%" stop-color="#080808"/>
    </linearGradient>
    <linearGradient id="grillGrad" x1="0%" y1="0%" x2="100%" y2="100%">
      <stop offset="0%" stop-color="#f2d2a1"/>
      <stop offset="100%" stop-color="#c0a06f"/>
    </linearGradient>
    <linearGradient id="speakerGrad" cx="40%" cy="35%" r="60%" gradientUnits="objectBoundingBox">
      <stop offset="0%" stop-color="#555"/>
      <stop offset="100%" stop-color="#111"/>
    </linearGradient>
    <radialGradient id="speakerRadGrad" cx="45%" cy="40%" r="60%">
      <stop offset="0%" stop-color="#444"/>
      <stop offset="70%" stop-color="#1a1a1a"/>
      <stop offset="100%" stop-color="#0a0a0a"/>
    </radialGradient>
    <filter id="ledGlow" x="-80%" y="-80%" width="260%" height="260%">
      <feGaussianBlur stdDeviation="3" result="blur"/>
      <feMerge><feMergeNode in="blur"/><feMergeNode in="SourceGraphic"/></feMerge>
    </filter>
    <filter id="bodyShadow" x="-15%" y="-10%" width="140%" height="140%">
      <feDropShadow dx="5" dy="8" stdDeviation="10" flood-color="#000" flood-opacity="0.7"/>
    </filter>
    <filter id="knobShadow" x="-30%" y="-30%" width="170%" height="170%">
      <feDropShadow dx="1" dy="3" stdDeviation="4" flood-color="#000" flood-opacity="0.8"/>
    </filter>
    <filter id="textEmboss">
      <feDropShadow dx="0" dy="1" stdDeviation="0.5" flood-color="#000" flood-opacity="0.6"/>
    </filter>
    <filter id="innerShadow" x="-5%" y="-5%" width="110%" height="110%">
      <feDropShadow dx="0" dy="2" stdDeviation="3" flood-color="#000" flood-opacity="0.5"/>
    </filter>
    <clipPath id="bodyClip">
      <rect x="0" y="0" width="320" height="480"/>
    </clipPath>
  </defs>
  <rect width="320" height="380" fill="url(#bgGrad)"/>
  <rect x="15" y="15" width="290" height="310" rx="10" fill="url(#bodyGrad)" filter="url(#bodyShadow)"/>
  <rect x="15" y="15" width="290" height="8" rx="10" fill="white" opacity="0.15"/>
  <rect x="15" y="15" width="5" height="310" rx="3" fill="white" opacity="0.1"/>
  <circle cx="15" cy="15" r="8" fill="#222" opacity="0.6"/>
  <circle cx="305" cy="15" r="8" fill="#222" opacity="0.6"/>
  <circle cx="15" cy="325" r="8" fill="#222" opacity="0.6"/>
  <circle cx="305" cy="325" r="8" fill="#222" opacity="0.6"/>
  <circle cx="28" cy="28" r="5" fill="url(#screwGrad)"/>
  <line x1="24.5" y1="28" x2="31.5" y2="28" stroke="#222" stroke-width="1.2"/>
  <line x1="28" y1="24.5" x2="28" y2="31.5" stroke="#222" stroke-width="1.2"/>
  <circle cx="292" cy="28" r="5" fill="url(#screwGrad)"/>
  <line x1="288.5" y1="28" x2="295.5" y2="28" stroke="#222" stroke-width="1.2"/>
  <line x1="292" y1="24.5" x2="292" y2="31.5" stroke="#222" stroke-width="1.2"/>
  <circle cx="28" cy="312" r="5" fill="url(#screwGrad)"/>
  <line x1="24.5" y1="312" x2="31.5" y2="312" stroke="#222" stroke-width="1.2"/>
  <line x1="28" y1="308.5" x2="28" y2="315.5" stroke="#222" stroke-width="1.2"/>
  <circle cx="292" cy="312" r="5" fill="url(#screwGrad)"/>
  <line x1="288.5" y1="312" x2="295.5" y2="312" stroke="#222" stroke-width="1.2"/>
  <line x1="292" y1="308.5" x2="292" y2="315.5" stroke="#222" stroke-width="1.2"/>
  <rect x="15" y="15" width="290" height="65" rx="10" fill="#111" opacity="0.9"/>
  <!-- Knob: VOLUME -->
  <line x1="66.1" y1="55.0" x2="63.5" y2="56.5" stroke="white" stroke-width="1" opacity="0.4"/>
  <line x1="66.1" y1="39.0" x2="63.5" y2="37.5" stroke="white" stroke-width="1" opacity="0.4"/>
  <line x1="80.0" y1="31.0" x2="80.0" y2="28.0" stroke="white" stroke-width="1" opacity="0.4"/>
  <line x1="93.9" y1="39.0" x2="96.5" y2="37.5" stroke="white" stroke-width="1" opacity="0.4"/>
  <line x1="93.9" y1="55.0" x2="96.5" y2="56.5" stroke="white" stroke-width="1" opacity="0.4"/>
  <circle cx="80" cy="47" r="14" fill="url(#knobRingGrad)" filter="url(#knobShadow)"/>
  <circle cx="80" cy="47" r="14" fill="none" stroke="#888" stroke-width="0.5" opacity="0.4"/>
  <circle cx="80" cy="47" r="10.92" fill="url(#knobGrad)"/>
  <ellipse cx="77.3" cy="43.7" rx="4.9" ry="3.1" fill="white" opacity="0.07"/>
  <line x1="80.0" y1="47.0" x2="73.1" y2="47.0" stroke="white" stroke-width="2" stroke-linecap="round" opacity="0.9"/>
  <circle cx="80" cy="47" r="3" fill="#3a3a3a"/>
  <text x="80" y="75" fill="white" font-size="7" text-anchor="middle" font-weight="bold" letter-spacing="0.5" filter="url(#textEmboss)" clip-path="url(#bodyClip)">VOLUME</text>
  <!-- Knob: GATE -->
  <line x1="106.1" y1="55.0" x2="103.5" y2="56.5" stroke="white" stroke-width="1" opacity="0.4"/>
  <line x1="106.1" y1="39.0" x2="103.5" y2="37.5" stroke="white" stroke-width="1" opacity="0.4"/>
  <line x1="120.0" y1="31.0" x2="120.0" y2="28.0" stroke="white" stroke-width="1" opacity="0.4"/>
  <line x1="133.9" y1="39.0" x2="136.5" y2="37.5" stroke="white" stroke-width="1" opacity="0.4"/>
  <line x1="133.9" y1="55.0" x2="136.5" y2="56.5" stroke="white" stroke-width="1" opacity="0.4"/>
  <circle cx="120" cy="47" r="14" fill="url(#knobRingGrad)" filter="url(#knobShadow)"/>
  <circle cx="120" cy="47" r="14" fill="none" stroke="#888" stroke-width="0.5" opacity="0.4"/>
  <circle cx="120" cy="47" r="10.92" fill="url(#knobGrad)"/>
  <ellipse cx="117.3" cy="43.7" rx="4.9" ry="3.1" fill="white" opacity="0.07"/>
  <line x1="120.0" y1="47.0" x2="113.2" y2="45.6" stroke="white" stroke-width="2" stroke-linecap="round" opacity="0.9"/>
  <circle cx="120" cy="47" r="3" fill="#3a3a3a"/>
  <text x="120" y="75" fill="white" font-size="7" text-anchor="middle" font-weight="bold" letter-spacing="0.5" filter="url(#textEmboss)" clip-path="url(#bodyClip)">GATE</text>
  <!-- Knob: COMPRESS -->
  <line x1="146.1" y1="55.0" x2="143.5" y2="56.5" stroke="white" stroke-width="1" opacity="0.4"/>
  <line x1="146.1" y1="39.0" x2="143.5" y2="37.5" stroke="white" stroke-width="1" opacity="0.4"/>
  <line x1="160.0" y1="31.0" x2="160.0" y2="28.0" stroke="white" stroke-width="1" opacity="0.4"/>
  <line x1="173.9" y1="39.0" x2="176.5" y2="37.5" stroke="white" stroke-width="1" opacity="0.4"/>
  <line x1="173.9" y1="55.0" x2="176.5" y2="56.5" stroke="white" stroke-width="1" opacity="0.4"/>
  <circle cx="160" cy="47" r="14" fill="url(#knobRingGrad)" filter="url(#knobShadow)"/>
  <circle cx="160" cy="47" r="14" fill="none" stroke="#888" stroke-width="0.5" opacity="0.4"/>
  <circle cx="160" cy="47" r="10.92" fill="url(#knobGrad)"/>
  <ellipse cx="157.3" cy="43.7" rx="4.9" ry="3.1" fill="white" opacity="0.07"/>
  <line x1="160.0" y1="47.0" x2="153.7" y2="44.2" stroke="white" stroke-width="2" stroke-linecap="round" opacity="0.9"/>
  <circle cx="160" cy="47" r="3" fill="#3a3a3a"/>
  <text x="160" y="75" fill="white" font-size="7" text-anchor="middle" font-weight="bold" letter-spacing="0.5" filter="url(#textEmboss)" clip-path="url(#bodyClip)">COMPRESS</text>
  <!-- Knob: DRIVE -->
  <line x1="186.1" y1="55.0" x2="183.5" y2="56.5" stroke="white" stroke-width="1" opacity="0.4"/>
  <line x1="186.1" y1="39.0" x2="183.5" y2="37.5" stroke="white" stroke-width="1" opacity="0.4"/>
  <line x1="200.0" y1="31.0" x2="200.0" y2="28.0" stroke="white" stroke-width="1" opacity="0.4"/>
  <line x1="213.9" y1="39.0" x2="216.5" y2="37.5" stroke="white" stroke-width="1" opacity="0.4"/>
  <line x1="213.9" y1="55.0" x2="216.5" y2="56.5" stroke="white" stroke-width="1" opacity="0.4"/>
  <circle cx="200" cy="47" r="14" fill="url(#knobRingGrad)" filter="url(#knobShadow)"/>
  <circle cx="200" cy="47" r="14" fill="none" stroke="#888" stroke-width="0.5" opacity="0.4"/>
  <circle cx="200" cy="47" r="10.92" fill="url(#knobGrad)"/>
  <ellipse cx="197.3" cy="43.7" rx="4.9" ry="3.1" fill="white" opacity="0.07"/>
  <line x1="200.0" y1="47.0" x2="194.4" y2="42.9" stroke="white" stroke-width="2" stroke-linecap="round" opacity="0.9"/>
  <circle cx="200" cy="47" r="3" fill="#3a3a3a"/>
  <text x="200" y="75" fill="white" font-size="7" text-anchor="middle" font-weight="bold" letter-spacing="0.5" filter="url(#textEmboss)" clip-path="url(#bodyClip)">DRIVE</text>
  <!-- Knob: STABILITY -->
  <line x1="226.1" y1="55.0" x2="223.5" y2="56.5" stroke="white" stroke-width="1" opacity="0.4"/>
  <line x1="226.1" y1="39.0" x2="223.5" y2="37.5" stroke="white" stroke-width="1" opacity="0.4"/>
  <line x1="240.0" y1="31.0" x2="240.0" y2="28.0" stroke="white" stroke-width="1" opacity="0.4"/>
  <line x1="253.9" y1="39.0" x2="256.5" y2="37.5" stroke="white" stroke-width="1" opacity="0.4"/>
  <line x1="253.9" y1="55.0" x2="256.5" y2="56.5" stroke="white" stroke-width="1" opacity="0.4"/>
  <circle cx="240" cy="47" r="14" fill="url(#knobRingGrad)" filter="url(#knobShadow)"/>
  <circle cx="240" cy="47" r="14" fill="none" stroke="#888" stroke-width="0.5" opacity="0.4"/>
  <circle cx="240" cy="47" r="10.92" fill="url(#knobGrad)"/>
  <ellipse cx="237.3" cy="43.7" rx="4.9" ry="3.1" fill="white" opacity="0.07"/>
  <line x1="240.0" y1="47.0" x2="235.4" y2="41.9" stroke="white" stroke-width="2" stroke-linecap="round" opacity="0.9"/>
  <circle cx="240" cy="47" r="3" fill="#3a3a3a"/>
  <text x="240" y="75" fill="white" font-size="7" text-anchor="middle" font-weight="bold" letter-spacing="0.5" filter="url(#textEmboss)" clip-path="url(#bodyClip)">STABILIT</text>
  <circle cx="280" cy="35" r="7" fill="#111"/>
  <circle cx="280" cy="35" r="5" fill="#ff6600" filter="url(#ledGlow)"/>
  <circle cx="278.5" cy="33.5" r="2" fill="white" opacity="0.5"/>
  <circle cx="280" cy="35" r="8" fill="none" stroke="#ff8800" stroke-width="1" opacity="0.25"/>
  <rect x="25" y="88" width="270" height="218" rx="6" fill="url(#grillGrad)" filter="url(#innerShadow)"/>
  <line x1="25" y1="88" x2="25" y2="306" stroke="#000" stroke-width="0.4" opacity="0.2"/>
  <line x1="31" y1="88" x2="31" y2="306" stroke="#000" stroke-width="0.4" opacity="0.2"/>
  <line x1="37" y1="88" x2="37" y2="306" stroke="#000" stroke-width="0.4" opacity="0.2"/>
  <line x1="43" y1="88" x2="43" y2="306" stroke="#000" stroke-width="0.4" opacity="0.2"/>
  <line x1="49" y1="88" x2="49" y2="306" stroke="#000" stroke-width="0.4" opacity="0.2"/>
  <line x1="55" y1="88" x2="55" y2="306" stroke="#000" stroke-width="0.4" opacity="0.2"/>
  <line x1="61" y1="88" x2="61" y2="306" stroke="#000" stroke-width="0.4" opacity="0.2"/>
  <line x1="67" y1="88" x2="67" y2="306" stroke="#000" stroke-width="0.4" opacity="0.2"/>
  <line x1="73" y1="88" x2="73" y2="306" stroke="#000" stroke-width="0.4" opacity="0.2"/>
  <line x1="79" y1="88" x2="79" y2="306" stroke="#000" stroke-width="0.4" opacity="0.2"/>
  <line x1="85" y1="88" x2="85" y2="306" stroke="#000" stroke-width="0.4" opacity="0.2"/>
  <line x1="91" y1="88" x2="91" y2="306" stroke="#000" stroke-width="0.4" opacity="0.2"/>
  <line x1="97" y1="88" x2="97" y2="306" stroke="#000" stroke-width="0.4" opacity="0.2"/>
  <line x1="103" y1="88" x2="103" y2="306" stroke="#000" stroke-width="0.4" opacity="0.2"/>
  <line x1="109" y1="88" x2="109" y2="306" stroke="#000" stroke-width="0.4" opacity="0.2"/>
  <line x1="115" y1="88" x2="115" y2="306" stroke="#000" stroke-width="0.4" opacity="0.2"/>
  <line x1="121" y1="88" x2="121" y2="306" stroke="#000" stroke-width="0.4" opacity="0.2"/>
  <line x1="127" y1="88" x2="127" y2="306" stroke="#000" stroke-width="0.4" opacity="0.2"/>
  <line x1="133" y1="88" x2="133" y2="306" stroke="#000" stroke-width="0.4" opacity="0.2"/>
  <line x1="139" y1="88" x2="139" y2="306" stroke="#000" stroke-width="0.4" opacity="0.2"/>
  <line x1="145" y1="88" x2="145" y2="306" stroke="#000" stroke-width="0.4" opacity="0.2"/>
  <line x1="151" y1="88" x2="151" y2="306" stroke="#000" stroke-width="0.4" opacity="0.2"/>
  <line x1="157" y1="88" x2="157" y2="306" stroke="#000" stroke-width="0.4" opacity="0.2"/>
  <line x1="163" y1="88" x2="163" y2="306" stroke="#000" stroke-width="0.4" opacity="0.2"/>
  <line x1="169" y1="88" x2="169" y2="306" stroke="#000" stroke-width="0.4" opacity="0.2"/>
  <line x1="175" y1="88" x2="175" y2="306" stroke="#000" stroke-width="0.4" opacity="0.2"/>
  <line x1="181" y1="88" x2="181" y2="306" stroke="#000" stroke-width="0.4" opacity="0.2"/>
  <line x1="187" y1="88" x2="187" y2="306" stroke="#000" stroke-width="0.4" opacity="0.2"/>
  <line x1="193" y1="88" x2="193" y2="306" stroke="#000" stroke-width="0.4" opacity="0.2"/>
  <line x1="199" y1="88" x2="199" y2="306" stroke="#000" stroke-width="0.4" opacity="0.2"/>
  <line x1="205" y1="88" x2="205" y2="306" stroke="#000" stroke-width="0.4" opacity="0.2"/>
  <line x1="211" y1="88" x2="211" y2="306" stroke="#000" stroke-width="0.4" opacity="0.2"/>
  <line x1="217" y1="88" x2="217" y2="306" stroke="#000" stroke-width="0.4" opacity="0.2"/>
  <line x1="223" y1="88" x2="223" y2="306" stroke="#000" stroke-width="0.4" opacity="0.2"/>
  <line x1="229" y1="88" x2="229" y2="306" stroke="#000" stroke-width="0.4" opacity="0.2"/>
  <line x1="235" y1="88" x2="235" y2="306" stroke="#000" stroke-width="0.4" opacity="0.2"/>
  <line x1="241" y1="88" x2="241" y2="306" stroke="#000" stroke-width="0.4" opacity="0.2"/>
  <line x1="247" y1="88" x2="247" y2="306" stroke="#000" stroke-width="0.4" opacity="0.2"/>
  <line x1="253" y1="88" x2="253" y2="306" stroke="#000" stroke-width="0.4" opacity="0.2"/>
  <line x1="259" y1="88" x2="259" y2="306" stroke="#000" stroke-width="0.4" opacity="0.2"/>
  <line x1="265" y1="88" x2="265" y2="306" stroke="#000" stroke-width="0.4" opacity="0.2"/>
  <line x1="271" y1="88" x2="271" y2="306" stroke="#000" stroke-width="0.4" opacity="0.2"/>
  <line x1="277" y1="88" x2="277" y2="306" stroke="#000" stroke-width="0.4" opacity="0.2"/>
  <line x1="283" y1="88" x2="283" y2="306" stroke="#000" stroke-width="0.4" opacity="0.2"/>
  <line x1="289" y1="88" x2="289" y2="306" stroke="#000" stroke-width="0.4" opacity="0.2"/>
  <line x1="25" y1="88" x2="295" y2="88" stroke="#000" stroke-width="0.4" opacity="0.2"/>
  <line x1="25" y1="94" x2="295" y2="94" stroke="#000" stroke-width="0.4" opacity="0.2"/>
  <line x1="25" y1="100" x2="295" y2="100" stroke="#000" stroke-width="0.4" opacity="0.2"/>
  <line x1="25" y1="106" x2="295" y2="106" stroke="#000" stroke-width="0.4" opacity="0.2"/>
  <line x1="25" y1="112" x2="295" y2="112" stroke="#000" stroke-width="0.4" opacity="0.2"/>
  <line x1="25" y1="118" x2="295" y2="118" stroke="#000" stroke-width="0.4" opacity="0.2"/>
  <line x1="25" y1="124" x2="295" y2="124" stroke="#000" stroke-width="0.4" opacity="0.2"/>
  <line x1="25" y1="130" x2="295" y2="130" stroke="#000" stroke-width="0.4" opacity="0.2"/>
  <line x1="25" y1="136" x2="295" y2="136" stroke="#000" stroke-width="0.4" opacity="0.2"/>
  <line x1="25" y1="142" x2="295" y2="142" stroke="#000" stroke-width="0.4" opacity="0.2"/>
  <line x1="25" y1="148" x2="295" y2="148" stroke="#000" stroke-width="0.4" opacity="0.2"/>
  <line x1="25" y1="154" x2="295" y2="154" stroke="#000" stroke-width="0.4" opacity="0.2"/>
  <line x1="25" y1="160" x2="295" y2="160" stroke="#000" stroke-width="0.4" opacity="0.2"/>
  <line x1="25" y1="166" x2="295" y2="166" stroke="#000" stroke-width="0.4" opacity="0.2"/>
  <line x1="25" y1="172" x2="295" y2="172" stroke="#000" stroke-width="0.4" opacity="0.2"/>
  <line x1="25" y1="178" x2="295" y2="178" stroke="#000" stroke-width="0.4" opacity="0.2"/>
  <line x1="25" y1="184" x2="295" y2="184" stroke="#000" stroke-width="0.4" opacity="0.2"/>
  <line x1="25" y1="190" x2="295" y2="190" stroke="#000" stroke-width="0.4" opacity="0.2"/>
  <line x1="25" y1="196" x2="295" y2="196" stroke="#000" stroke-width="0.4" opacity="0.2"/>
  <line x1="25" y1="202" x2="295" y2="202" stroke="#000" stroke-width="0.4" opacity="0.2"/>
  <line x1="25" y1="208" x2="295" y2="208" stroke="#000" stroke-width="0.4" opacity="0.2"/>
  <line x1="25" y1="214" x2="295" y2="214" stroke="#000" stroke-width="0.4" opacity="0.2"/>
  <line x1="25" y1="220" x2="295" y2="220" stroke="#000" stroke-width="0.4" opacity="0.2"/>
  <line x1="25" y1="226" x2="295" y2="226" stroke="#000" stroke-width="0.4" opacity="0.2"/>
  <line x1="25" y1="232" x2="295" y2="232" stroke="#000" stroke-width="0.4" opacity="0.2"/>
  <line x1="25" y1="238" x2="295" y2="238" stroke="#000" stroke-width="0.4" opacity="0.2"/>
  <line x1="25" y1="244" x2="295" y2="244" stroke="#000" stroke-width="0.4" opacity="0.2"/>
  <line x1="25" y1="250" x2="295" y2="250" stroke="#000" stroke-width="0.4" opacity="0.2"/>
  <line x1="25" y1="256" x2="295" y2="256" stroke="#000" stroke-width="0.4" opacity="0.2"/>
  <line x1="25" y1="262" x2="295" y2="262" stroke="#000" stroke-width="0.4" opacity="0.2"/>
  <line x1="25" y1="268" x2="295" y2="268" stroke="#000" stroke-width="0.4" opacity="0.2"/>
  <line x1="25" y1="274" x2="295" y2="274" stroke="#000" stroke-width="0.4" opacity="0.2"/>
  <line x1="25" y1="280" x2="295" y2="280" stroke="#000" stroke-width="0.4" opacity="0.2"/>
  <line x1="25" y1="286" x2="295" y2="286" stroke="#000" stroke-width="0.4" opacity="0.2"/>
  <line x1="25" y1="292" x2="295" y2="292" stroke="#000" stroke-width="0.4" opacity="0.2"/>
  <line x1="25" y1="298" x2="295" y2="298" stroke="#000" stroke-width="0.4" opacity="0.2"/>
  <line x1="25" y1="304" x2="295" y2="304" stroke="#000" stroke-width="0.4" opacity="0.2"/>
  <rect x="25" y="88" width="270" height="218" rx="6" fill="none" stroke="#000" stroke-width="1" opacity="0.3"/>
  <circle cx="160" cy="197" r="100" fill="url(#speakerRadGrad)" filter="url(#innerShadow)"/>
  <circle cx="160" cy="197" r="100.0" fill="none" stroke="#888" stroke-width="0.8" opacity="0.15"/>
  <circle cx="160" cy="197" r="82.0" fill="none" stroke="#888" stroke-width="0.8" opacity="0.20"/>
  <circle cx="160" cy="197" r="64.0" fill="none" stroke="#888" stroke-width="0.8" opacity="0.25"/>
  <circle cx="160" cy="197" r="46.0" fill="none" stroke="#888" stroke-width="0.8" opacity="0.30"/>
  <circle cx="160" cy="197" r="28.0" fill="none" stroke="#888" stroke-width="0.8" opacity="0.35"/>
  <circle cx="160" cy="197" r="14.0" fill="none" stroke="#888" stroke-width="0.8" opacity="0.40"/>
  <circle cx="160" cy="197" r="12.0" fill="#222"/>
  <circle cx="152.0" cy="189.0" r="5.0" fill="#555" opacity="0.4"/>
  <text x="160" y="318" fill="white" font-size="14" text-anchor="middle" font-weight="bold" font-style="normal" letter-spacing="4" opacity="0.95" filter="url(#textEmboss)" clip-path="url(#bodyClip)">ORANGE</text>
  <path d="M 110 18 Q 160 6 210 18" fill="none" stroke="#333" stroke-width="6" stroke-linecap="round"/>
  <rect x="27" y="320" width="16" height="8" rx="3" fill="#222"/>
  <rect x="277" y="320" width="16" height="8" rx="3" fill="#222"/>
  <text x="160" y="350" fill="white" font-size="13" text-anchor="middle" font-weight="bold" font-style="normal" letter-spacing="1" opacity="0.95" filter="url(#textEmboss)" clip-path="url(#bodyClip)">Orange AD30</text>
  <text x="160" y="368" fill="#aaa" font-size="9" text-anchor="middle" font-weight="normal" font-style="normal" letter-spacing="1" opacity="0.7" filter="url(#textEmboss)" clip-path="url(#bodyClip)">Combo Amplifier</text>
</svg>