<svg xmlns="http://www.w3.org/2000/svg" viewBox="0 0 320 420" width="320" height="420" font-family="Arial,sans-serif">
  <defs>
    <radialGradient id="bgGrad" cx="50%" cy="40%" r="65%">
      <stop offset="0%" stop-color="#2a2a2a"/>
      <stop offset="100%" stop-color="#0a0a0a"/>
    </radialGradient>
    <linearGradient id="bodyGrad" x1="0%" y1="0%" x2="100%" y2="100%">
      <stop offset="0%" stop-color="#434343"/>
      <stop offset="25%" stop-color="#111111"/>
      <stop offset="75%" stop-color="#111111"/>
      <stop offset="100%" stop-color="#000000"/>
    </linearGradient>
    <linearGradient id="bodyGradV" x1="0%" y1="0%" x2="0%" y2="100%">
      <stop offset="0%" stop-color="#434343"/>
      <stop offset="20%" stop-color="#111111"/>
      <stop offset="80%" stop-color="#111111"/>
      <stop offset="100%" stop-color="#000000"/>
    </linearGradient>
    <radialGradient id="bodyRadGrad" cx="38%" cy="32%" r="65%">
      <stop offset="0%" stop-color="#434343"/>
      <stop offset="35%" stop-color="#111111"/>
      <stop offset="100%" stop-color="#000000"/>
    </radialGradient>
    <radialGradient id="knobRingGrad" cx="35%" cy="30%" r="65%">
      <stop offset="0%" stop-color="#999"/>
      <stop offset="50%" stop-color="#444"/>
      <stop offset="100%" stop-color="#1a1a1a"/>
    </radialGradient>
    <radialGradient id="knobGrad" cx="35%" cy="30%" r="65%">
      <stop offset="0%" stop-color="#666"/>
      <stop offset="60%" stop-color="#2a2a2a"/>
      <stop offset="100%" stop-color="#0d0d0d"/>
    </radialGradient>
    <radialGradient id="screwGrad" cx="35%" cy="30%" r="65%">
      <stop offset="0%" stop-color="#bbb"/>
      <stop offset="100%" stop-color="#333"/>
    </radialGradient>
    <radialGradient id="jackGrad" cx="40%" cy="35%" r="60%">
      <stop offset="0%" stop-color="#777"/>
      <stop offset="100%" stop-color="#1a1a1a"/>
    </radialGradient>
    <linearGradient id="switchGrad" x1="0%" y1="0%" x2="0%" y2="100%">
      <stop offset="0%" stop-color="#333"/>
      <stop offset="50%" stop-color="#111"/>
      <stop offset="100%" stop-color="#080808"/>
    </linearGradient>
    <linearGradient id="grillGrad" x1="0%" y1="0%" x2="100%" y2="100%">
      <stop offset="0%" stop-color="#e6be5e"/>
      <stop offset="100%" stop-color="#b48c2c"/>
    </linearGradient>
    <linearGradient id="speakerGrad" cx="40%" cy="35%" r="60%" gradientUnits="objectBoundingBox">
      <stop offset="0%" stop-color="#555"/>
      <stop offset="100%" stop-color="#111"/>
    </linearGradient>
    <radialGradient id="speakerRadGrad" cx="45%" cy="40%" r="60%">
      <stop offset="0%" stop-color="#444"/>
      <stop offset="70%" stop-color="#1a1a1a"/>
      <stop offset="100%" stop-color="#0a0a0a"/>
    </radialGradient>
    <filter id="ledGlow" x="-80%" y="-80%" width="260%" height="260%">
      <feGaussianBlur stdDeviation="3" result="blur"/>
      <feMerge><feMergeNode in="blur"/><feMergeNode in="SourceGraphic"/></feMerge>
    </filter>
    <filter id="bodyShadow" x="-15%" y="-10%" width="140%" height="140%">
      <feDropShadow dx="5" dy="8" stdDeviation="10" flood-color="#000" flood-opacity="0.7"/>
    </filter>
    <filter id="knobShadow" x="-30%" y="-30%" width="170%" height="170%">
      <feDropShadow dx="1" dy="3" stdDeviation="4" flood-color="#000" flood-opacity="0.8"/>
    </filter>
    <filter id="textEmboss">
      <feDropShadow dx="0" dy="1" stdDeviation="0.5" flood-color="#000" flood-opacity="0.6"/>
    </filter>
    <filter id="innerShadow" x="-5%" y="-5%" width="110%" height="110%">
      <feDropShadow dx="0" dy="2" stdDeviation="3" flood-color="#000" flood-opacity="0.5"/>
    </filter>
    <clipPath id="bodyClip">
      <rect x="0" y="0" width="320" height="480"/>
    </clipPath>
  </defs>
  <rect width="320" height="420" fill="url(#bgGrad)"/>
  <rect x="15" y="15" width="290" height="360" rx="8" fill="url(#bodyGrad)" filter="url(#bodyShadow)"/>
  <circle cx="28" cy="28" r="5" fill="url(#screwGrad)"/>
  <line x1="24.5" y1="28" x2="31.5" y2="28" stroke="#222" stroke-width="1.2"/>
  <line x1="28" y1="24.5" x2="28" y2="31.5" stroke="#222" stroke-width="1.2"/>
  <circle cx="292" cy="28" r="5" fill="url(#screwGrad)"/>
  <line x1="288.5" y1="28" x2="295.5" y2="28" stroke="#222" stroke-width="1.2"/>
  <line x1="292" y1="24.5" x2="292" y2="31.5" stroke="#222" stroke-width="1.2"/>
  <circle cx="28" cy="358" r="5" fill="url(#screwGrad)"/>
  <line x1="24.5" y1="358" x2="31.5" y2="358" stroke="#222" stroke-width="1.2"/>
  <line x1="28" y1="354.5" x2="28" y2="361.5" stroke="#222" stroke-width="1.2"/>
  <circle cx="292" cy="358" r="5" fill="url(#screwGrad)"/>
  <line x1="288.5" y1="358" x2="295.5" y2="358" stroke="#222" stroke-width="1.2"/>
  <line x1="292" y1="354.5" x2="292" y2="361.5" stroke="#222" stroke-width="1.2"/>
  <rect x="25" y="40" width="270" height="310" rx="4" fill="url(#grillGrad)" filter="url(#innerShadow)"/>
  <line x1="25" y1="40" x2="25" y2="350" stroke="#000" stroke-width="0.4" opacity="0.2"/>
  <line x1="31" y1="40" x2="31" y2="350" stroke="#000" stroke-width="0.4" opacity="0.2"/>
  <line x1="37" y1="40" x2="37" y2="350" stroke="#000" stroke-width="0.4" opacity="0.2"/>
  <line x1="43" y1="40" x2="43" y2="350" stroke="#000" stroke-width="0.4" opacity="0.2"/>
  <line x1="49" y1="40" x2="49" y2="350" stroke="#000" stroke-width="0.4" opacity="0.2"/>
  <line x1="55" y1="40" x2="55" y2="350" stroke="#000" stroke-width="0.4" opacity="0.2"/>
  <line x1="61" y1="40" x2="61" y2="350" stroke="#000" stroke-width="0.4" opacity="0.2"/>
  <line x1="67" y1="40" x2="67" y2="350" stroke="#000" stroke-width="0.4" opacity="0.2"/>
  <line x1="73" y1="40" x2="73" y2="350" stroke="#000" stroke-width="0.4" opacity="0.2"/>
  <line x1="79" y1="40" x2="79" y2="350" stroke="#000" stroke-width="0.4" opacity="0.2"/>
  <line x1="85" y1="40" x2="85" y2="350" stroke="#000" stroke-width="0.4" opacity="0.2"/>
  <line x1="91" y1="40" x2="91" y2="350" stroke="#000" stroke-width="0.4" opacity="0.2"/>
  <line x1="97" y1="40" x2="97" y2="350" stroke="#000" stroke-width="0.4" opacity="0.2"/>
  <line x1="103" y1="40" x2="103" y2="350" stroke="#000" stroke-width="0.4" opacity="0.2"/>
  <line x1="109" y1="40" x2="109" y2="350" stroke="#000" stroke-width="0.4" opacity="0.2"/>
  <line x1="115" y1="40" x2="115" y2="350" stroke="#000" stroke-width="0.4" opacity="0.2"/>
  <line x1="121" y1="40" x2="121" y2="350" stroke="#000" stroke-width="0.4" opacity="0.2"/>
  <line x1="127" y1="40" x2="127" y2="350" stroke="#000" stroke-width="0.4" opacity="0.2"/>
  <line x1="133" y1="40" x2="133" y2="350" stroke="#000" stroke-width="0.4" opacity="0.2"/>
  <line x1="139" y1="40" x2="139" y2="350" stroke="#000" stroke-width="0.4" opacity="0.2"/>
  <line x1="145" y1="40" x2="145" y2="350" stroke="#000" stroke-width="0.4" opacity="0.2"/>
  <line x1="151" y1="40" x2="151" y2="350" stroke="#000" stroke-width="0.4" opacity="0.2"/>
  <line x1="157" y1="40" x2="157" y2="350" stroke="#000" stroke-width="0.4" opacity="0.2"/>
  <line x1="163" y1="40" x2="163" y2="350" stroke="#000" stroke-width="0.4" opacity="0.2"/>
  <line x1="169" y1="40" x2="169" y2="350" stroke="#000" stroke-width="0.4" opacity="0.2"/>
  <line x1="175" y1="40" x2="175" y2="350" stroke="#000" stroke-width="0.4" opacity="0.2"/>
  <line x1="181" y1="40" x2="181" y2="350" stroke="#000" stroke-width="0.4" opacity="0.2"/>
  <line x1="187" y1="40" x2="187" y2="350" stroke="#000" stroke-width="0.4" opacity="0.2"/>
  <line x1="193" y1="40" x2="193" y2="350" stroke="#000" stroke-width="0.4" opacity="0.2"/>
  <line x1="199" y1="40" x2="199" y2="350" stroke="#000" stroke-width="0.4" opacity="0.2"/>
  <line x1="205" y1="40" x2="205" y2="350" stroke="#000" stroke-width="0.4" opacity="0.2"/>
  <line x1="211" y1="40" x2="211" y2="350" stroke="#000" stroke-width="0.4" opacity="0.2"/>
  <line x1="217" y1="40" x2="217" y2="350" stroke="#000" stroke-width="0.4" opacity="0.2"/>
  <line x1="223" y1="40" x2="223" y2="350" stroke="#000" stroke-width="0.4" opacity="0.2"/>
  <line x1="229" y1="40" x2="229" y2="350" stroke="#000" stroke-width="0.4" opacity="0.2"/>
  <line x1="235" y1="40" x2="235" y2="350" stroke="#000" stroke-width="0.4" opacity="0.2"/>
  <line x1="241" y1="40" x2="241" y2="350" stroke="#000" stroke-width="0.4" opacity="0.2"/>
  <line x1="247" y1="40" x2="247" y2="350" stroke="#000" stroke-width="0.4" opacity="0.2"/>
  <line x1="253" y1="40" x2="253" y2="350" stroke="#000" stroke-width="0.4" opacity="0.2"/>
  <line x1="259" y1="40" x2="259" y2="350" stroke="#000" stroke-width="0.4" opacity="0.2"/>
  <line x1="265" y1="40" x2="265" y2="350" stroke="#000" stroke-width="0.4" opacity="0.2"/>
  <line x1="271" y1="40" x2="271" y2="350" stroke="#000" stroke-width="0.4" opacity="0.2"/>
  <line x1="277" y1="40" x2="277" y2="350" stroke="#000" stroke-width="0.4" opacity="0.2"/>
  <line x1="283" y1="40" x2="283" y2="350" stroke="#000" stroke-width="0.4" opacity="0.2"/>
  <line x1="289" y1="40" x2="289" y2="350" stroke="#000" stroke-width="0.4" opacity="0.2"/>
  <line x1="25" y1="40" x2="295" y2="40" stroke="#000" stroke-width="0.4" opacity="0.2"/>
  <line x1="25" y1="46" x2="295" y2="46" stroke="#000" stroke-width="0.4" opacity="0.2"/>
  <line x1="25" y1="52" x2="295" y2="52" stroke="#000" stroke-width="0.4" opacity="0.2"/>
  <line x1="25" y1="58" x2="295" y2="58" stroke="#000" stroke-width="0.4" opacity="0.2"/>
  <line x1="25" y1="64" x2="295" y2="64" stroke="#000" stroke-width="0.4" opacity="0.2"/>
  <line x1="25" y1="70" x2="295" y2="70" stroke="#000" stroke-width="0.4" opacity="0.2"/>
  <line x1="25" y1="76" x2="295" y2="76" stroke="#000" stroke-width="0.4" opacity="0.2"/>
  <line x1="25" y1="82" x2="295" y2="82" stroke="#000" stroke-width="0.4" opacity="0.2"/>
  <line x1="25" y1="88" x2="295" y2="88" stroke="#000" stroke-width="0.4" opacity="0.2"/>
  <line x1="25" y1="94" x2="295" y2="94" stroke="#000" stroke-width="0.4" opacity="0.2"/>
  <line x1="25" y1="100" x2="295" y2="100" stroke="#000" stroke-width="0.4" opacity="0.2"/>
  <line x1="25" y1="106" x2="295" y2="106" stroke="#000" stroke-width="0.4" opacity="0.2"/>
  <line x1="25" y1="112" x2="295" y2="112" stroke="#000" stroke-width="0.4" opacity="0.2"/>
  <line x1="25" y1="118" x2="295" y2="118" stroke="#000" stroke-width="0.4" opacity="0.2"/>
  <line x1="25" y1="124" x2="295" y2="124" stroke="#000" stroke-width="0.4" opacity="0.2"/>
  <line x1="25" y1="130" x2="295" y2="130" stroke="#000" stroke-width="0.4" opacity="0.2"/>
  <line x1="25" y1="136" x2="295" y2="136" stroke="#000" stroke-width="0.4" opacity="0.2"/>
  <line x1="25" y1="142" x2="295" y2="142" stroke="#000" stroke-width="0.4" opacity="0.2"/>
  <line x1="25" y1="148" x2="295" y2="148" stroke="#000" stroke-width="0.4" opacity="0.2"/>
  <line x1="25" y1="154" x2="295" y2="154" stroke="#000" stroke-width="0.4" opacity="0.2"/>
  <line x1="25" y1="160" x2="295" y2="160" stroke="#000" stroke-width="0.4" opacity="0.2"/>
  <line x1="25" y1="166" x2="295" y2="166" stroke="#000" stroke-width="0.4" opacity="0.2"/>
  <line x1="25" y1="172" x2="295" y2="172" stroke="#000" stroke-width="0.4" opacity="0.2"/>
  <line x1="25" y1="178" x2="295" y2="178" stroke="#000" stroke-width="0.4" opacity="0.2"/>
  <line x1="25" y1="184" x2="295" y2="184" stroke="#000" stroke-width="0.4" opacity="0.2"/>
  <line x1="25" y1="190" x2="295" y2="190" stroke="#000" stroke-width="0.4" opacity="0.2"/>
  <line x1="25" y1="196" x2="295" y2="196" stroke="#000" stroke-width="0.4" opacity="0.2"/>
  <line x1="25" y1="202" x2="295" y2="202" stroke="#000" stroke-width="0.4" opacity="0.2"/>
  <line x1="25" y1="208" x2="295" y2="208" stroke="#000" stroke-width="0.4" opacity="0.2"/>
  <line x1="25" y1="214" x2="295" y2="214" stroke="#000" stroke-width="0.4" opacity="0.2"/>
  <line x1="25" y1="220" x2="295" y2="220" stroke="#000" stroke-width="0.4" opacity="0.2"/>
  <line x1="25" y1="226" x2="295" y2="226" stroke="#000" stroke-width="0.4" opacity="0.2"/>
  <line x1="25" y1="232" x2="295" y2="232" stroke="#000" stroke-width="0.4" opacity="0.2"/>
  <line x1="25" y1="238" x2="295" y2="238" stroke="#000" stroke-width="0.4" opacity="0.2"/>
  <line x1="25" y1="244" x2="295" y2="244" stroke="#000" stroke-width="0.4" opacity="0.2"/>
  <line x1="25" y1="250" x2="295" y2="250" stroke="#000" stroke-width="0.4" opacity="0.2"/>
  <line x1="25" y1="256" x2="295" y2="256" stroke="#000" stroke-width="0.4" opacity="0.2"/>
  <line x1="25" y1="262" x2="295" y2="262" stroke="#000" stroke-width="0.4" opacity="0.2"/>
  <line x1="25" y1="268" x2="295" y2="268" stroke="#000" stroke-width="0.4" opacity="0.2"/>
  <line x1="25" y1="274" x2="295" y2="274" stroke="#000" stroke-width="0.4" opacity="0.2"/>
  <line x1="25" y1="280" x2="295" y2="280" stroke="#000" stroke-width="0.4" opacity="0.2"/>
  <line x1="25" y1="286" x2="295" y2="286" stroke="#000" stroke-width="0.4" opacity="0.2"/>
  <line x1="25" y1="292" x2="295" y2="292" stroke="#000" stroke-width="0.4" opacity="0.2"/>
  <line x1="25" y1="298" x2="295" y2="298" stroke="#000" stroke-width="0.4" opacity="0.2"/>
  <line x1="25" y1="304" x2="295" y2="304" stroke="#000" stroke-width="0.4" opacity="0.2"/>
  <line x1="25" y1="310" x2="295" y2="310" stroke="#000" stroke-width="0.4" opacity="0.2"/>
  <line x1="25" y1="316" x2="295" y2="316" stroke="#000" stroke-width="0.4" opacity="0.2"/>
  <line x1="25" y1="322" x2="295" y2="322" stroke="#000" stroke-width="0.4" opacity="0.2"/>
  <line x1="25" y1="328" x2="295" y2="328" stroke="#000" stroke-width="0.4" opacity="0.2"/>
  <line x1="25" y1="334" x2="295" y2="334" stroke="#000" stroke-width="0.4" opacity="0.2"/>
  <line x1="25" y1="340" x2="295" y2="340" stroke="#000" stroke-width="0.4" opacity="0.2"/>
  <line x1="25" y1="346" x2="295" y2="346" stroke="#000" stroke-width="0.4" opacity="0.2"/>
  <rect x="25" y="40" width="270" height="310" rx="4" fill="none" stroke="#000" stroke-width="1" opacity="0.3"/>
  <circle cx="95" cy="110" r="52" fill="url(#speakerRadGrad)" filter="url(#innerShadow)"/>
  <circle cx="95" cy="110" r="52.0" fill="none" stroke="#888" stroke-width="0.8" opacity="0.15"/>
  <circle cx="95" cy="110" r="42.6" fill="none" stroke="#888" stroke-width="0.8" opacity="0.20"/>
  <circle cx="95" cy="110" r="33.3" fill="none" stroke="#888" stroke-width="0.8" opacity="0.25"/>
  <circle cx="95" cy="110" r="23.9" fill="none" stroke="#888" stroke-width="0.8" opacity="0.30"/>
  <circle cx="95" cy="110" r="14.6" fill="none" stroke="#888" stroke-width="0.8" opacity="0.35"/>
  <circle cx="95" cy="110" r="7.3" fill="none" stroke="#888" stroke-width="0.8" opacity="0.40"/>
  <circle cx="95" cy="110" r="6.2" fill="#222"/>
  <circle cx="90.8" cy="105.8" r="2.6" fill="#555" opacity="0.4"/>
  <circle cx="225" cy="110" r="52" fill="url(#speakerRadGrad)" filter="url(#innerShadow)"/>
  <circle cx="225" cy="110" r="52.0" fill="none" stroke="#888" stroke-width="0.8" opacity="0.15"/>
  <circle cx="225" cy="110" r="42.6" fill="none" stroke="#888" stroke-width="0.8" opacity="0.20"/>
  <circle cx="225" cy="110" r="33.3" fill="none" stroke="#888" stroke-width="0.8" opacity="0.25"/>
  <circle cx="225" cy="110" r="23.9" fill="none" stroke="#888" stroke-width="0.8" opacity="0.30"/>
  <circle cx="225" cy="110" r="14.6" fill="none" stroke="#888" stroke-width="0.8" opacity="0.35"/>
  <circle cx="225" cy="110" r="7.3" fill="none" stroke="#888" stroke-width="0.8" opacity="0.40"/>
  <circle cx="225" cy="110" r="6.2" fill="#222"/>
  <circle cx="220.8" cy="105.8" r="2.6" fill="#555" opacity="0.4"/>
  <circle cx="95" cy="250" r="52" fill="url(#speakerRadGrad)" filter="url(#innerShadow)"/>
  <circle cx="95" cy="250" r="52.0" fill="none" stroke="#888" stroke-width="0.8" opacity="0.15"/>
  <circle cx="95" cy="250" r="42.6" fill="none" stroke="#888" stroke-width="0.8" opacity="0.20"/>
  <circle cx="95" cy="250" r="33.3" fill="none" stroke="#888" stroke-width="0.8" opacity="0.25"/>
  <circle cx="95" cy="250" r="23.9" fill="none" stroke="#888" stroke-width="0.8" opacity="0.30"/>
  <circle cx="95" cy="250" r="14.6" fill="none" stroke="#888" stroke-width="0.8" opacity="0.35"/>
  <circle cx="95" cy="250" r="7.3" fill="none" stroke="#888" stroke-width="0.8" opacity="0.40"/>
  <circle cx="95" cy="250" r="6.2" fill="#222"/>
  <circle cx="90.8" cy="245.8" r="2.6" fill="#555" opacity="0.4"/>
  <circle cx="225" cy="250" r="52" fill="url(#speakerRadGrad)" filter="url(#innerShadow)"/>
  <circle cx="225" cy="250" r="52.0" fill="none" stroke="#888" stroke-width="0.8" opacity="0.15"/>
  <circle cx="225" cy="250" r="42.6" fill="none" stroke="#888" stroke-width="0.8" opacity="0.20"/>
  <circle cx="225" cy="250" r="33.3" fill="none" stroke="#888" stroke-width="0.8" opacity="0.25"/>
  <circle cx="225" cy="250" r="23.9" fill="none" stroke="#888" stroke-width="0.8" opacity="0.30"/>
  <circle cx="225" cy="250" r="14.6" fill="none" stroke="#888" stroke-width="0.8" opacity="0.35"/>
  <circle cx="225" cy="250" r="7.3" fill="none" stroke="#888" stroke-width="0.8" opacity="0.40"/>
  <circle cx="225" cy="250" r="6.2" fill="#222"/>
  <circle cx="220.8" cy="245.8" r="2.6" fill="#555" opacity="0.4"/>
  <rect x="15" y="355" width="290" height="20" rx="4" fill="#0d0d0d" opacity="0.9"/>
  <text x="160" y="369" fill="#E8C840" font-size="10" text-anchor="middle" font-weight="bold" font-style="normal" letter-spacing="4" opacity="0.95" filter="url(#textEmboss)" clip-path="url(#bodyClip)">MARSHALL</text>
  <text x="160" y="395" fill="white" font-size="13" text-anchor="middle" font-weight="bold" font-style="normal" letter-spacing="1" opacity="0.95" filter="url(#textEmboss)" clip-path="url(#bodyClip)">Marshall 4x12</text>
  <text x="160" y="413" fill="#aaa" font-size="9" text-anchor="middle" font-weight="normal" font-style="normal" letter-spacing="1" opacity="0.7" filter="url(#textEmboss)" clip-path="url(#bodyClip)">4x12 Speaker Cabinet</text>
</svg>