<svg xmlns="http://www.w3.org/2000/svg" viewBox="0 0 280 440" width="280" height="440" font-family="Arial,sans-serif">
  <defs>
    <radialGradient id="bgGrad" cx="50%" cy="40%" r="65%">
      <stop offset="0%" stop-color="#2a2a2a"/>
      <stop offset="100%" stop-color="#0a0a0a"/>
    </radialGradient>
    <linearGradient id="bodyGrad" x1="0%" y1="0%" x2="100%" y2="100%">
      <stop offset="0%" stop-color="#ffffff"/>
      <stop offset="25%" stop-color="#FFFFFF"/>
      <stop offset="75%" stop-color="#FFFFFF"/>
      <stop offset="100%" stop-color="#d7d7d7"/>
    </linearGradient>
    <linearGradient id="bodyGradV" x1="0%" y1="0%" x2="0%" y2="100%">
      <stop offset="0%" stop-color="#ffffff"/>
      <stop offset="20%" stop-color="#FFFFFF"/>
      <stop offset="80%" stop-color="#FFFFFF"/>
      <stop offset="100%" stop-color="#d7d7d7"/>
    </linearGradient>
    <radialGradient id="bodyRadGrad" cx="38%" cy="32%" r="65%">
      <stop offset="0%" stop-color="#ffffff"/>
      <stop offset="35%" stop-color="#FFFFFF"/>
      <stop offset="100%" stop-color="#d7d7d7"/>
    </radialGradient>
    <radialGradient id="knobRingGrad" cx="35%" cy="30%" r="65%">
      <stop offset="0%" stop-color="#999"/>
      <stop offset="50%" stop-color="#444"/>
      <stop offset="100%" stop-color="#1a1a1a"/>
    </radialGradient>
    <radialGradient id="knobGrad" cx="35%" cy="30%" r="65%">
      <stop offset="0%" stop-color="#666"/>
      <stop offset="60%" stop-color="#2a2a2a"/>
      <stop offset="100%" stop-color="#0d0d0d"/>
    </radialGradient>
    <radialGradient id="screwGrad" cx="35%" cy="30%" r="65%">
      <stop offset="0%" stop-color="#bbb"/>
      <stop offset="100%" stop-color="#333"/>
    </radialGradient>
    <radialGradient id="jackGrad" cx="40%" cy="35%" r="60%">
      <stop offset="0%" stop-color="#777"/>
      <stop offset="100%" stop-color="#1a1a1a"/>
    </radialGradient>
    <linearGradient id="switchGrad" x1="0%" y1="0%" x2="0%" y2="100%">
      <stop offset="0%" stop-color="#333"/>
      <stop offset="50%" stop-color="#111"/>
      <stop offset="100%" stop-color="#080808"/>
    </linearGradient>
    <linearGradient id="grillGrad" x1="0%" y1="0%" x2="100%" y2="100%">
      <stop offset="0%" stop-color="#a99173"/>
      <stop offset="100%" stop-color="#775f41"/>
    </linearGradient>
    <linearGradient id="speakerGrad" cx="40%" cy="35%" r="60%" gradientUnits="objectBoundingBox">
      <stop offset="0%" stop-color="#555"/>
      <stop offset="100%" stop-color="#111"/>
    </linearGradient>
    <radialGradient id="speakerRadGrad" cx="45%" cy="40%" r="60%">
      <stop offset="0%" stop-color="#444"/>
      <stop offset="70%" stop-color="#1a1a1a"/>
      <stop offset="100%" stop-color="#0a0a0a"/>
    </radialGradient>
    <filter id="ledGlow" x="-80%" y="-80%" width="260%" height="260%">
      <feGaussianBlur stdDeviation="3" result="blur"/>
      <feMerge><feMergeNode in="blur"/><feMergeNode in="SourceGraphic"/></feMerge>
    </filter>
    <filter id="bodyShadow" x="-15%" y="-10%" width="140%" height="140%">
      <feDropShadow dx="5" dy="8" stdDeviation="10" flood-color="#000" flood-opacity="0.7"/>
    </filter>
    <filter id="knobShadow" x="-30%" y="-30%" width="170%" height="170%">
      <feDropShadow dx="1" dy="3" stdDeviation="4" flood-color="#000" flood-opacity="0.8"/>
    </filter>
    <filter id="textEmboss">
      <feDropShadow dx="0" dy="1" stdDeviation="0.5" flood-color="#000" flood-opacity="0.6"/>
    </filter>
    <filter id="innerShadow" x="-5%" y="-5%" width="110%" height="110%">
      <feDropShadow dx="0" dy="2" stdDeviation="3" flood-color="#000" flood-opacity="0.5"/>
    </filter>
    <clipPath id="bodyClip">
      <rect x="0" y="0" width="320" height="480"/>
    </clipPath>
  </defs>
  <rect width="280" height="440" fill="url(#bgGrad)"/>
  <rect x="30" y="15" width="220" height="340" rx="8" fill="url(#bodyGrad)" filter="url(#bodyShadow)"/>
  <rect x="30" y="15" width="220" height="8" rx="8" fill="white" opacity="0.25"/>
  <rect x="30" y="15" width="5" height="340" rx="3" fill="white" opacity="0.15"/>
  <circle cx="47" cy="30" r="5" fill="url(#screwGrad)"/>
  <line x1="43.5" y1="30" x2="50.5" y2="30" stroke="#222" stroke-width="1.2"/>
  <line x1="47" y1="26.5" x2="47" y2="33.5" stroke="#222" stroke-width="1.2"/>
  <circle cx="233" cy="30" r="5" fill="url(#screwGrad)"/>
  <line x1="229.5" y1="30" x2="236.5" y2="30" stroke="#222" stroke-width="1.2"/>
  <line x1="233" y1="26.5" x2="233" y2="33.5" stroke="#222" stroke-width="1.2"/>
  <circle cx="47" cy="338" r="5" fill="url(#screwGrad)"/>
  <line x1="43.5" y1="338" x2="50.5" y2="338" stroke="#222" stroke-width="1.2"/>
  <line x1="47" y1="334.5" x2="47" y2="341.5" stroke="#222" stroke-width="1.2"/>
  <circle cx="233" cy="338" r="5" fill="url(#screwGrad)"/>
  <line x1="229.5" y1="338" x2="236.5" y2="338" stroke="#222" stroke-width="1.2"/>
  <line x1="233" y1="334.5" x2="233" y2="341.5" stroke="#222" stroke-width="1.2"/>
  <!-- Knob: DELAY -->
  <line x1="59.2" y1="92.0" x2="56.6" y2="93.5" stroke="white" stroke-width="1" opacity="0.4"/>
  <line x1="59.2" y1="68.0" x2="56.6" y2="66.5" stroke="white" stroke-width="1" opacity="0.4"/>
  <line x1="80.0" y1="56.0" x2="80.0" y2="53.0" stroke="white" stroke-width="1" opacity="0.4"/>
  <line x1="100.8" y1="68.0" x2="103.4" y2="66.5" stroke="white" stroke-width="1" opacity="0.4"/>
  <line x1="100.8" y1="92.0" x2="103.4" y2="93.5" stroke="white" stroke-width="1" opacity="0.4"/>
  <circle cx="80" cy="80" r="22" fill="url(#knobRingGrad)" filter="url(#knobShadow)"/>
  <circle cx="80" cy="80" r="22" fill="none" stroke="#888" stroke-width="0.5" opacity="0.4"/>
  <circle cx="80" cy="80" r="17.16" fill="url(#knobGrad)"/>
  <ellipse cx="75.7" cy="74.9" rx="7.7" ry="4.8" fill="white" opacity="0.07"/>
  <line x1="80.0" y1="80.0" x2="66.8" y2="80.0" stroke="white" stroke-width="2" stroke-linecap="round" opacity="0.9"/>
  <circle cx="80" cy="80" r="3" fill="#3a3a3a"/>
  <text x="80" y="116" fill="white" font-size="9" text-anchor="middle" font-weight="bold" letter-spacing="0.5" filter="url(#textEmboss)" clip-path="url(#bodyClip)">DELAY</text>
  <!-- Knob: MIX -->
  <line x1="119.2" y1="92.0" x2="116.6" y2="93.5" stroke="white" stroke-width="1" opacity="0.4"/>
  <line x1="119.2" y1="68.0" x2="116.6" y2="66.5" stroke="white" stroke-width="1" opacity="0.4"/>
  <line x1="140.0" y1="56.0" x2="140.0" y2="53.0" stroke="white" stroke-width="1" opacity="0.4"/>
  <line x1="160.8" y1="68.0" x2="163.4" y2="66.5" stroke="white" stroke-width="1" opacity="0.4"/>
  <line x1="160.8" y1="92.0" x2="163.4" y2="93.5" stroke="white" stroke-width="1" opacity="0.4"/>
  <circle cx="140" cy="80" r="22" fill="url(#knobRingGrad)" filter="url(#knobShadow)"/>
  <circle cx="140" cy="80" r="22" fill="none" stroke="#888" stroke-width="0.5" opacity="0.4"/>
  <circle cx="140" cy="80" r="17.16" fill="url(#knobGrad)"/>
  <ellipse cx="135.7" cy="74.9" rx="7.7" ry="4.8" fill="white" opacity="0.07"/>
  <line x1="140.0" y1="80.0" x2="127.3" y2="76.6" stroke="white" stroke-width="2" stroke-linecap="round" opacity="0.9"/>
  <circle cx="140" cy="80" r="3" fill="#3a3a3a"/>
  <text x="140" y="116" fill="white" font-size="9" text-anchor="middle" font-weight="bold" letter-spacing="0.5" filter="url(#textEmboss)" clip-path="url(#bodyClip)">MIX</text>
  <!-- Knob: FEEDBACK -->
  <line x1="179.2" y1="92.0" x2="176.6" y2="93.5" stroke="white" stroke-width="1" opacity="0.4"/>
  <line x1="179.2" y1="68.0" x2="176.6" y2="66.5" stroke="white" stroke-width="1" opacity="0.4"/>
  <line x1="200.0" y1="56.0" x2="200.0" y2="53.0" stroke="white" stroke-width="1" opacity="0.4"/>
  <line x1="220.8" y1="68.0" x2="223.4" y2="66.5" stroke="white" stroke-width="1" opacity="0.4"/>
  <line x1="220.8" y1="92.0" x2="223.4" y2="93.5" stroke="white" stroke-width="1" opacity="0.4"/>
  <circle cx="200" cy="80" r="22" fill="url(#knobRingGrad)" filter="url(#knobShadow)"/>
  <circle cx="200" cy="80" r="22" fill="none" stroke="#888" stroke-width="0.5" opacity="0.4"/>
  <circle cx="200" cy="80" r="17.16" fill="url(#knobGrad)"/>
  <ellipse cx="195.7" cy="74.9" rx="7.7" ry="4.8" fill="white" opacity="0.07"/>
  <line x1="200.0" y1="80.0" x2="188.6" y2="73.4" stroke="white" stroke-width="2" stroke-linecap="round" opacity="0.9"/>
  <circle cx="200" cy="80" r="3" fill="#3a3a3a"/>
  <text x="200" y="116" fill="white" font-size="9" text-anchor="middle" font-weight="bold" letter-spacing="0.5" filter="url(#textEmboss)" clip-path="url(#bodyClip)">FEEDBACK</text>
  <!-- Knob: TONE -->
  <line x1="119.2" y1="167.0" x2="116.6" y2="168.5" stroke="white" stroke-width="1" opacity="0.4"/>
  <line x1="119.2" y1="143.0" x2="116.6" y2="141.5" stroke="white" stroke-width="1" opacity="0.4"/>
  <line x1="140.0" y1="131.0" x2="140.0" y2="128.0" stroke="white" stroke-width="1" opacity="0.4"/>
  <line x1="160.8" y1="143.0" x2="163.4" y2="141.5" stroke="white" stroke-width="1" opacity="0.4"/>
  <line x1="160.8" y1="167.0" x2="163.4" y2="168.5" stroke="white" stroke-width="1" opacity="0.4"/>
  <circle cx="140" cy="155" r="22" fill="url(#knobRingGrad)" filter="url(#knobShadow)"/>
  <circle cx="140" cy="155" r="22" fill="none" stroke="#888" stroke-width="0.5" opacity="0.4"/>
  <circle cx="140" cy="155" r="17.16" fill="url(#knobGrad)"/>
  <ellipse cx="135.7" cy="149.9" rx="7.7" ry="4.8" fill="white" opacity="0.07"/>
  <line x1="140.0" y1="155.0" x2="130.7" y2="145.7" stroke="white" stroke-width="2" stroke-linecap="round" opacity="0.9"/>
  <circle cx="140" cy="155" r="3" fill="#3a3a3a"/>
  <text x="140" y="191" fill="white" font-size="9" text-anchor="middle" font-weight="bold" letter-spacing="0.5" filter="url(#textEmboss)" clip-path="url(#bodyClip)">TONE</text>
  <path d="M 55 175 Q 140 155 225 175" fill="none" stroke="#cc1111" stroke-width="3"/>
  <path d="M 55 185 Q 140 165 225 185" fill="none" stroke="#cc1111" stroke-width="1.5" opacity="0.5"/>
  <text x="140" y="200" fill="#cc1111" font-size="15" text-anchor="middle" font-weight="bold" font-style="normal" letter-spacing="2" opacity="0.95" filter="url(#textEmboss)" clip-path="url(#bodyClip)">DELUXE MEMORY MAN</text>
  <text x="140" y="218" fill="#555" font-size="7" text-anchor="middle" font-weight="normal" font-style="normal" letter-spacing="1" opacity="0.8" filter="url(#textEmboss)" clip-path="url(#bodyClip)">New York City, USA</text>
  <rect x="30" y="240" width="220" height="115" rx="0" fill="#111" opacity="0.9"/>
  <circle cx="140" cy="295" r="32" fill="#1a1a1a"/>
  <circle cx="140" cy="295" r="32" fill="none" stroke="#555" stroke-width="1" opacity="0.5"/>
  <circle cx="140" cy="295" r="28" fill="url(#switchGrad)"/>
  <ellipse cx="136" cy="290" rx="13" ry="8" fill="white" opacity="0.05"/>
  <circle cx="140" cy="295" r="6" fill="#2a2a2a"/>
  <circle cx="138" cy="293" r="2" fill="#555" opacity="0.4"/>
  <circle cx="70" cy="25" r="8" fill="url(#jackGrad)"/>
  <circle cx="70" cy="25" r="5.5" fill="#1a1a1a"/>
  <circle cx="70" cy="25" r="3" fill="#0d0d0d"/>
  <circle cx="68.5" cy="23.5" r="1.2" fill="#999" opacity="0.5"/>
  <text x="70" y="43" fill="white" font-size="7" text-anchor="middle" opacity="0.8">IN</text>
  <circle cx="210" cy="25" r="8" fill="url(#jackGrad)"/>
  <circle cx="210" cy="25" r="5.5" fill="#1a1a1a"/>
  <circle cx="210" cy="25" r="3" fill="#0d0d0d"/>
  <circle cx="208.5" cy="23.5" r="1.2" fill="#999" opacity="0.5"/>
  <text x="210" y="43" fill="white" font-size="7" text-anchor="middle" opacity="0.8">OUT</text>
  <text x="140" y="380" fill="white" font-size="11" text-anchor="middle" font-weight="bold" font-style="normal" letter-spacing="1" opacity="0.95" filter="url(#textEmboss)" clip-path="url(#bodyClip)">Electro-Harmonix</text>
  <text x="140" y="398" fill="#aaa" font-size="10" text-anchor="middle" font-weight="normal" font-style="normal" letter-spacing="1" opacity="0.8" filter="url(#textEmboss)" clip-path="url(#bodyClip)">Deluxe Memory Man</text>
</svg>