<svg xmlns="http://www.w3.org/2000/svg" viewBox="0 0 320 400" width="320" height="400" font-family="Arial,sans-serif">
  <defs>
    <radialGradient id="bgGrad" cx="50%" cy="40%" r="65%">
      <stop offset="0%" stop-color="#2a2a2a"/>
      <stop offset="100%" stop-color="#0a0a0a"/>
    </radialGradient>
    <linearGradient id="bodyGrad" x1="0%" y1="0%" x2="100%" y2="100%">
      <stop offset="0%" stop-color="#ffdb9c"/>
      <stop offset="25%" stop-color="#d4a96a"/>
      <stop offset="75%" stop-color="#d4a96a"/>
      <stop offset="100%" stop-color="#ac8142"/>
    </linearGradient>
    <linearGradient id="bodyGradV" x1="0%" y1="0%" x2="0%" y2="100%">
      <stop offset="0%" stop-color="#ffdb9c"/>
      <stop offset="20%" stop-color="#d4a96a"/>
      <stop offset="80%" stop-color="#d4a96a"/>
      <stop offset="100%" stop-color="#ac8142"/>
    </linearGradient>
    <radialGradient id="bodyRadGrad" cx="38%" cy="32%" r="65%">
      <stop offset="0%" stop-color="#ffdb9c"/>
      <stop offset="35%" stop-color="#d4a96a"/>
      <stop offset="100%" stop-color="#ac8142"/>
    </radialGradient>
    <radialGradient id="knobRingGrad" cx="35%" cy="30%" r="65%">
      <stop offset="0%" stop-color="#999"/>
      <stop offset="50%" stop-color="#444"/>
      <stop offset="100%" stop-color="#1a1a1a"/>
    </radialGradient>
    <radialGradient id="knobGrad" cx="35%" cy="30%" r="65%">
      <stop offset="0%" stop-color="#666"/>
      <stop offset="60%" stop-color="#2a2a2a"/>
      <stop offset="100%" stop-color="#0d0d0d"/>
    </radialGradient>
    <radialGradient id="screwGrad" cx="35%" cy="30%" r="65%">
      <stop offset="0%" stop-color="#bbb"/>
      <stop offset="100%" stop-color="#333"/>
    </radialGradient>
    <radialGradient id="jackGrad" cx="40%" cy="35%" r="60%">
      <stop offset="0%" stop-color="#777"/>
      <stop offset="100%" stop-color="#1a1a1a"/>
    </radialGradient>
    <linearGradient id="switchGrad" x1="0%" y1="0%" x2="0%" y2="100%">
      <stop offset="0%" stop-color="#333"/>
      <stop offset="50%" stop-color="#111"/>
      <stop offset="100%" stop-color="#080808"/>
    </linearGradient>
    <linearGradient id="grillGrad" x1="0%" y1="0%" x2="100%" y2="100%">
      <stop offset="0%" stop-color="#996d4c"/>
      <stop offset="100%" stop-color="#673b1a"/>
    </linearGradient>
    <linearGradient id="speakerGrad" cx="40%" cy="35%" r="60%" gradientUnits="objectBoundingBox">
      <stop offset="0%" stop-color="#555"/>
      <stop offset="100%" stop-color="#111"/>
    </linearGradient>
    <radialGradient id="speakerRadGrad" cx="45%" cy="40%" r="60%">
      <stop offset="0%" stop-color="#444"/>
      <stop offset="70%" stop-color="#1a1a1a"/>
      <stop offset="100%" stop-color="#0a0a0a"/>
    </radialGradient>
    <filter id="ledGlow" x="-80%" y="-80%" width="260%" height="260%">
      <feGaussianBlur stdDeviation="3" result="blur"/>
      <feMerge><feMergeNode in="blur"/><feMergeNode in="SourceGraphic"/></feMerge>
    </filter>
    <filter id="bodyShadow" x="-15%" y="-10%" width="140%" height="140%">
      <feDropShadow dx="5" dy="8" stdDeviation="10" flood-color="#000" flood-opacity="0.7"/>
    </filter>
    <filter id="knobShadow" x="-30%" y="-30%" width="170%" height="170%">
      <feDropShadow dx="1" dy="3" stdDeviation="4" flood-color="#000" flood-opacity="0.8"/>
    </filter>
    <filter id="textEmboss">
      <feDropShadow dx="0" dy="1" stdDeviation="0.5" flood-color="#000" flood-opacity="0.6"/>
    </filter>
    <filter id="innerShadow" x="-5%" y="-5%" width="110%" height="110%">
      <feDropShadow dx="0" dy="2" stdDeviation="3" flood-color="#000" flood-opacity="0.5"/>
    </filter>
    <clipPath id="bodyClip">
      <rect x="0" y="0" width="320" height="480"/>
    </clipPath>
  </defs>
  <rect width="320" height="400" fill="url(#bgGrad)"/>
  <rect x="15" y="15" width="290" height="330" rx="8" fill="url(#bodyGrad)" filter="url(#bodyShadow)"/>
  <line x1="0" y1="15" x2="60" y2="345" stroke="#000" stroke-width="0.4" opacity="0.12"/>
  <line x1="8" y1="15" x2="68" y2="345" stroke="#000" stroke-width="0.4" opacity="0.12"/>
  <line x1="16" y1="15" x2="76" y2="345" stroke="#000" stroke-width="0.4" opacity="0.12"/>
  <line x1="24" y1="15" x2="84" y2="345" stroke="#000" stroke-width="0.4" opacity="0.12"/>
  <line x1="32" y1="15" x2="92" y2="345" stroke="#000" stroke-width="0.4" opacity="0.12"/>
  <line x1="40" y1="15" x2="100" y2="345" stroke="#000" stroke-width="0.4" opacity="0.12"/>
  <line x1="48" y1="15" x2="108" y2="345" stroke="#000" stroke-width="0.4" opacity="0.12"/>
  <line x1="56" y1="15" x2="116" y2="345" stroke="#000" stroke-width="0.4" opacity="0.12"/>
  <line x1="64" y1="15" x2="124" y2="345" stroke="#000" stroke-width="0.4" opacity="0.12"/>
  <line x1="72" y1="15" x2="132" y2="345" stroke="#000" stroke-width="0.4" opacity="0.12"/>
  <line x1="80" y1="15" x2="140" y2="345" stroke="#000" stroke-width="0.4" opacity="0.12"/>
  <line x1="88" y1="15" x2="148" y2="345" stroke="#000" stroke-width="0.4" opacity="0.12"/>
  <line x1="96" y1="15" x2="156" y2="345" stroke="#000" stroke-width="0.4" opacity="0.12"/>
  <line x1="104" y1="15" x2="164" y2="345" stroke="#000" stroke-width="0.4" opacity="0.12"/>
  <line x1="112" y1="15" x2="172" y2="345" stroke="#000" stroke-width="0.4" opacity="0.12"/>
  <line x1="120" y1="15" x2="180" y2="345" stroke="#000" stroke-width="0.4" opacity="0.12"/>
  <line x1="128" y1="15" x2="188" y2="345" stroke="#000" stroke-width="0.4" opacity="0.12"/>
  <line x1="136" y1="15" x2="196" y2="345" stroke="#000" stroke-width="0.4" opacity="0.12"/>
  <line x1="144" y1="15" x2="204" y2="345" stroke="#000" stroke-width="0.4" opacity="0.12"/>
  <line x1="152" y1="15" x2="212" y2="345" stroke="#000" stroke-width="0.4" opacity="0.12"/>
  <line x1="160" y1="15" x2="220" y2="345" stroke="#000" stroke-width="0.4" opacity="0.12"/>
  <line x1="168" y1="15" x2="228" y2="345" stroke="#000" stroke-width="0.4" opacity="0.12"/>
  <line x1="176" y1="15" x2="236" y2="345" stroke="#000" stroke-width="0.4" opacity="0.12"/>
  <line x1="184" y1="15" x2="244" y2="345" stroke="#000" stroke-width="0.4" opacity="0.12"/>
  <line x1="192" y1="15" x2="252" y2="345" stroke="#000" stroke-width="0.4" opacity="0.12"/>
  <line x1="200" y1="15" x2="260" y2="345" stroke="#000" stroke-width="0.4" opacity="0.12"/>
  <line x1="208" y1="15" x2="268" y2="345" stroke="#000" stroke-width="0.4" opacity="0.12"/>
  <line x1="216" y1="15" x2="276" y2="345" stroke="#000" stroke-width="0.4" opacity="0.12"/>
  <line x1="224" y1="15" x2="284" y2="345" stroke="#000" stroke-width="0.4" opacity="0.12"/>
  <line x1="232" y1="15" x2="292" y2="345" stroke="#000" stroke-width="0.4" opacity="0.12"/>
  <line x1="240" y1="15" x2="300" y2="345" stroke="#000" stroke-width="0.4" opacity="0.12"/>
  <line x1="248" y1="15" x2="308" y2="345" stroke="#000" stroke-width="0.4" opacity="0.12"/>
  <line x1="256" y1="15" x2="316" y2="345" stroke="#000" stroke-width="0.4" opacity="0.12"/>
  <line x1="264" y1="15" x2="324" y2="345" stroke="#000" stroke-width="0.4" opacity="0.12"/>
  <line x1="272" y1="15" x2="332" y2="345" stroke="#000" stroke-width="0.4" opacity="0.12"/>
  <line x1="280" y1="15" x2="340" y2="345" stroke="#000" stroke-width="0.4" opacity="0.12"/>
  <line x1="288" y1="15" x2="348" y2="345" stroke="#000" stroke-width="0.4" opacity="0.12"/>
  <line x1="296" y1="15" x2="356" y2="345" stroke="#000" stroke-width="0.4" opacity="0.12"/>
  <line x1="304" y1="15" x2="364" y2="345" stroke="#000" stroke-width="0.4" opacity="0.12"/>
  <line x1="312" y1="15" x2="372" y2="345" stroke="#000" stroke-width="0.4" opacity="0.12"/>
  <circle cx="28" cy="28" r="5" fill="url(#screwGrad)"/>
  <line x1="24.5" y1="28" x2="31.5" y2="28" stroke="#222" stroke-width="1.2"/>
  <line x1="28" y1="24.5" x2="28" y2="31.5" stroke="#222" stroke-width="1.2"/>
  <circle cx="292" cy="28" r="5" fill="url(#screwGrad)"/>
  <line x1="288.5" y1="28" x2="295.5" y2="28" stroke="#222" stroke-width="1.2"/>
  <line x1="292" y1="24.5" x2="292" y2="31.5" stroke="#222" stroke-width="1.2"/>
  <circle cx="28" cy="328" r="5" fill="url(#screwGrad)"/>
  <line x1="24.5" y1="328" x2="31.5" y2="328" stroke="#222" stroke-width="1.2"/>
  <line x1="28" y1="324.5" x2="28" y2="331.5" stroke="#222" stroke-width="1.2"/>
  <circle cx="292" cy="328" r="5" fill="url(#screwGrad)"/>
  <line x1="288.5" y1="328" x2="295.5" y2="328" stroke="#222" stroke-width="1.2"/>
  <line x1="292" y1="324.5" x2="292" y2="331.5" stroke="#222" stroke-width="1.2"/>
  <rect x="15" y="15" width="290" height="68" rx="8" fill="#aaaaaa" opacity="0.88"/>
  <rect x="15" y="15" width="290" height="68" rx="8" fill="none" stroke="#777" stroke-width="0.5"/>
  <!-- Knob: VOLUME -->
  <line x1="122.4" y1="57.0" x2="119.8" y2="58.5" stroke="white" stroke-width="1" opacity="0.4"/>
  <line x1="122.4" y1="39.0" x2="119.8" y2="37.5" stroke="white" stroke-width="1" opacity="0.4"/>
  <line x1="138.0" y1="30.0" x2="138.0" y2="27.0" stroke="white" stroke-width="1" opacity="0.4"/>
  <line x1="153.6" y1="39.0" x2="156.2" y2="37.5" stroke="white" stroke-width="1" opacity="0.4"/>
  <line x1="153.6" y1="57.0" x2="156.2" y2="58.5" stroke="white" stroke-width="1" opacity="0.4"/>
  <circle cx="138" cy="48" r="16" fill="url(#knobRingGrad)" filter="url(#knobShadow)"/>
  <circle cx="138" cy="48" r="16" fill="none" stroke="#888" stroke-width="0.5" opacity="0.4"/>
  <circle cx="138" cy="48" r="12.48" fill="url(#knobGrad)"/>
  <ellipse cx="134.9" cy="44.3" rx="5.6" ry="3.5" fill="white" opacity="0.07"/>
  <line x1="138.0" y1="48.0" x2="129.5" y2="48.0" stroke="white" stroke-width="2" stroke-linecap="round" opacity="0.9"/>
  <circle cx="138" cy="48" r="3" fill="#3a3a3a"/>
  <text x="138" y="78" fill="#222" font-size="8" text-anchor="middle" font-weight="bold" letter-spacing="0.5" filter="url(#textEmboss)" clip-path="url(#bodyClip)">VOLUME</text>
  <!-- Knob: TONE -->
  <line x1="167.4" y1="57.0" x2="164.8" y2="58.5" stroke="white" stroke-width="1" opacity="0.4"/>
  <line x1="167.4" y1="39.0" x2="164.8" y2="37.5" stroke="white" stroke-width="1" opacity="0.4"/>
  <line x1="183.0" y1="30.0" x2="183.0" y2="27.0" stroke="white" stroke-width="1" opacity="0.4"/>
  <line x1="198.6" y1="39.0" x2="201.2" y2="37.5" stroke="white" stroke-width="1" opacity="0.4"/>
  <line x1="198.6" y1="57.0" x2="201.2" y2="58.5" stroke="white" stroke-width="1" opacity="0.4"/>
  <circle cx="183" cy="48" r="16" fill="url(#knobRingGrad)" filter="url(#knobShadow)"/>
  <circle cx="183" cy="48" r="16" fill="none" stroke="#888" stroke-width="0.5" opacity="0.4"/>
  <circle cx="183" cy="48" r="12.48" fill="url(#knobGrad)"/>
  <ellipse cx="179.9" cy="44.3" rx="5.6" ry="3.5" fill="white" opacity="0.07"/>
  <line x1="183.0" y1="48.0" x2="174.8" y2="45.8" stroke="white" stroke-width="2" stroke-linecap="round" opacity="0.9"/>
  <circle cx="183" cy="48" r="3" fill="#3a3a3a"/>
  <text x="183" y="78" fill="#222" font-size="8" text-anchor="middle" font-weight="bold" letter-spacing="0.5" filter="url(#textEmboss)" clip-path="url(#bodyClip)">TONE</text>
  <text x="55" y="55" fill="#222" font-size="13" text-anchor="middle" font-weight="bold" font-style="normal" letter-spacing="2" opacity="0.95" filter="url(#textEmboss)" clip-path="url(#bodyClip)">TWEED</text>
  <rect x="25" y="92" width="270" height="218" rx="4" fill="url(#grillGrad)" filter="url(#innerShadow)"/>
  <line x1="25" y1="92" x2="25" y2="310" stroke="#000" stroke-width="0.4" opacity="0.2"/>
  <line x1="31" y1="92" x2="31" y2="310" stroke="#000" stroke-width="0.4" opacity="0.2"/>
  <line x1="37" y1="92" x2="37" y2="310" stroke="#000" stroke-width="0.4" opacity="0.2"/>
  <line x1="43" y1="92" x2="43" y2="310" stroke="#000" stroke-width="0.4" opacity="0.2"/>
  <line x1="49" y1="92" x2="49" y2="310" stroke="#000" stroke-width="0.4" opacity="0.2"/>
  <line x1="55" y1="92" x2="55" y2="310" stroke="#000" stroke-width="0.4" opacity="0.2"/>
  <line x1="61" y1="92" x2="61" y2="310" stroke="#000" stroke-width="0.4" opacity="0.2"/>
  <line x1="67" y1="92" x2="67" y2="310" stroke="#000" stroke-width="0.4" opacity="0.2"/>
  <line x1="73" y1="92" x2="73" y2="310" stroke="#000" stroke-width="0.4" opacity="0.2"/>
  <line x1="79" y1="92" x2="79" y2="310" stroke="#000" stroke-width="0.4" opacity="0.2"/>
  <line x1="85" y1="92" x2="85" y2="310" stroke="#000" stroke-width="0.4" opacity="0.2"/>
  <line x1="91" y1="92" x2="91" y2="310" stroke="#000" stroke-width="0.4" opacity="0.2"/>
  <line x1="97" y1="92" x2="97" y2="310" stroke="#000" stroke-width="0.4" opacity="0.2"/>
  <line x1="103" y1="92" x2="103" y2="310" stroke="#000" stroke-width="0.4" opacity="0.2"/>
  <line x1="109" y1="92" x2="109" y2="310" stroke="#000" stroke-width="0.4" opacity="0.2"/>
  <line x1="115" y1="92" x2="115" y2="310" stroke="#000" stroke-width="0.4" opacity="0.2"/>
  <line x1="121" y1="92" x2="121" y2="310" stroke="#000" stroke-width="0.4" opacity="0.2"/>
  <line x1="127" y1="92" x2="127" y2="310" stroke="#000" stroke-width="0.4" opacity="0.2"/>
  <line x1="133" y1="92" x2="133" y2="310" stroke="#000" stroke-width="0.4" opacity="0.2"/>
  <line x1="139" y1="92" x2="139" y2="310" stroke="#000" stroke-width="0.4" opacity="0.2"/>
  <line x1="145" y1="92" x2="145" y2="310" stroke="#000" stroke-width="0.4" opacity="0.2"/>
  <line x1="151" y1="92" x2="151" y2="310" stroke="#000" stroke-width="0.4" opacity="0.2"/>
  <line x1="157" y1="92" x2="157" y2="310" stroke="#000" stroke-width="0.4" opacity="0.2"/>
  <line x1="163" y1="92" x2="163" y2="310" stroke="#000" stroke-width="0.4" opacity="0.2"/>
  <line x1="169" y1="92" x2="169" y2="310" stroke="#000" stroke-width="0.4" opacity="0.2"/>
  <line x1="175" y1="92" x2="175" y2="310" stroke="#000" stroke-width="0.4" opacity="0.2"/>
  <line x1="181" y1="92" x2="181" y2="310" stroke="#000" stroke-width="0.4" opacity="0.2"/>
  <line x1="187" y1="92" x2="187" y2="310" stroke="#000" stroke-width="0.4" opacity="0.2"/>
  <line x1="193" y1="92" x2="193" y2="310" stroke="#000" stroke-width="0.4" opacity="0.2"/>
  <line x1="199" y1="92" x2="199" y2="310" stroke="#000" stroke-width="0.4" opacity="0.2"/>
  <line x1="205" y1="92" x2="205" y2="310" stroke="#000" stroke-width="0.4" opacity="0.2"/>
  <line x1="211" y1="92" x2="211" y2="310" stroke="#000" stroke-width="0.4" opacity="0.2"/>
  <line x1="217" y1="92" x2="217" y2="310" stroke="#000" stroke-width="0.4" opacity="0.2"/>
  <line x1="223" y1="92" x2="223" y2="310" stroke="#000" stroke-width="0.4" opacity="0.2"/>
  <line x1="229" y1="92" x2="229" y2="310" stroke="#000" stroke-width="0.4" opacity="0.2"/>
  <line x1="235" y1="92" x2="235" y2="310" stroke="#000" stroke-width="0.4" opacity="0.2"/>
  <line x1="241" y1="92" x2="241" y2="310" stroke="#000" stroke-width="0.4" opacity="0.2"/>
  <line x1="247" y1="92" x2="247" y2="310" stroke="#000" stroke-width="0.4" opacity="0.2"/>
  <line x1="253" y1="92" x2="253" y2="310" stroke="#000" stroke-width="0.4" opacity="0.2"/>
  <line x1="259" y1="92" x2="259" y2="310" stroke="#000" stroke-width="0.4" opacity="0.2"/>
  <line x1="265" y1="92" x2="265" y2="310" stroke="#000" stroke-width="0.4" opacity="0.2"/>
  <line x1="271" y1="92" x2="271" y2="310" stroke="#000" stroke-width="0.4" opacity="0.2"/>
  <line x1="277" y1="92" x2="277" y2="310" stroke="#000" stroke-width="0.4" opacity="0.2"/>
  <line x1="283" y1="92" x2="283" y2="310" stroke="#000" stroke-width="0.4" opacity="0.2"/>
  <line x1="289" y1="92" x2="289" y2="310" stroke="#000" stroke-width="0.4" opacity="0.2"/>
  <line x1="25" y1="92" x2="295" y2="92" stroke="#000" stroke-width="0.4" opacity="0.2"/>
  <line x1="25" y1="98" x2="295" y2="98" stroke="#000" stroke-width="0.4" opacity="0.2"/>
  <line x1="25" y1="104" x2="295" y2="104" stroke="#000" stroke-width="0.4" opacity="0.2"/>
  <line x1="25" y1="110" x2="295" y2="110" stroke="#000" stroke-width="0.4" opacity="0.2"/>
  <line x1="25" y1="116" x2="295" y2="116" stroke="#000" stroke-width="0.4" opacity="0.2"/>
  <line x1="25" y1="122" x2="295" y2="122" stroke="#000" stroke-width="0.4" opacity="0.2"/>
  <line x1="25" y1="128" x2="295" y2="128" stroke="#000" stroke-width="0.4" opacity="0.2"/>
  <line x1="25" y1="134" x2="295" y2="134" stroke="#000" stroke-width="0.4" opacity="0.2"/>
  <line x1="25" y1="140" x2="295" y2="140" stroke="#000" stroke-width="0.4" opacity="0.2"/>
  <line x1="25" y1="146" x2="295" y2="146" stroke="#000" stroke-width="0.4" opacity="0.2"/>
  <line x1="25" y1="152" x2="295" y2="152" stroke="#000" stroke-width="0.4" opacity="0.2"/>
  <line x1="25" y1="158" x2="295" y2="158" stroke="#000" stroke-width="0.4" opacity="0.2"/>
  <line x1="25" y1="164" x2="295" y2="164" stroke="#000" stroke-width="0.4" opacity="0.2"/>
  <line x1="25" y1="170" x2="295" y2="170" stroke="#000" stroke-width="0.4" opacity="0.2"/>
  <line x1="25" y1="176" x2="295" y2="176" stroke="#000" stroke-width="0.4" opacity="0.2"/>
  <line x1="25" y1="182" x2="295" y2="182" stroke="#000" stroke-width="0.4" opacity="0.2"/>
  <line x1="25" y1="188" x2="295" y2="188" stroke="#000" stroke-width="0.4" opacity="0.2"/>
  <line x1="25" y1="194" x2="295" y2="194" stroke="#000" stroke-width="0.4" opacity="0.2"/>
  <line x1="25" y1="200" x2="295" y2="200" stroke="#000" stroke-width="0.4" opacity="0.2"/>
  <line x1="25" y1="206" x2="295" y2="206" stroke="#000" stroke-width="0.4" opacity="0.2"/>
  <line x1="25" y1="212" x2="295" y2="212" stroke="#000" stroke-width="0.4" opacity="0.2"/>
  <line x1="25" y1="218" x2="295" y2="218" stroke="#000" stroke-width="0.4" opacity="0.2"/>
  <line x1="25" y1="224" x2="295" y2="224" stroke="#000" stroke-width="0.4" opacity="0.2"/>
  <line x1="25" y1="230" x2="295" y2="230" stroke="#000" stroke-width="0.4" opacity="0.2"/>
  <line x1="25" y1="236" x2="295" y2="236" stroke="#000" stroke-width="0.4" opacity="0.2"/>
  <line x1="25" y1="242" x2="295" y2="242" stroke="#000" stroke-width="0.4" opacity="0.2"/>
  <line x1="25" y1="248" x2="295" y2="248" stroke="#000" stroke-width="0.4" opacity="0.2"/>
  <line x1="25" y1="254" x2="295" y2="254" stroke="#000" stroke-width="0.4" opacity="0.2"/>
  <line x1="25" y1="260" x2="295" y2="260" stroke="#000" stroke-width="0.4" opacity="0.2"/>
  <line x1="25" y1="266" x2="295" y2="266" stroke="#000" stroke-width="0.4" opacity="0.2"/>
  <line x1="25" y1="272" x2="295" y2="272" stroke="#000" stroke-width="0.4" opacity="0.2"/>
  <line x1="25" y1="278" x2="295" y2="278" stroke="#000" stroke-width="0.4" opacity="0.2"/>
  <line x1="25" y1="284" x2="295" y2="284" stroke="#000" stroke-width="0.4" opacity="0.2"/>
  <line x1="25" y1="290" x2="295" y2="290" stroke="#000" stroke-width="0.4" opacity="0.2"/>
  <line x1="25" y1="296" x2="295" y2="296" stroke="#000" stroke-width="0.4" opacity="0.2"/>
  <line x1="25" y1="302" x2="295" y2="302" stroke="#000" stroke-width="0.4" opacity="0.2"/>
  <line x1="25" y1="308" x2="295" y2="308" stroke="#000" stroke-width="0.4" opacity="0.2"/>
  <rect x="25" y="92" width="270" height="218" rx="4" fill="none" stroke="#000" stroke-width="1" opacity="0.3"/>
  <circle cx="160" cy="200" r="100" fill="url(#speakerRadGrad)" filter="url(#innerShadow)"/>
  <circle cx="160" cy="200" r="100.0" fill="none" stroke="#888" stroke-width="0.8" opacity="0.15"/>
  <circle cx="160" cy="200" r="82.0" fill="none" stroke="#888" stroke-width="0.8" opacity="0.20"/>
  <circle cx="160" cy="200" r="64.0" fill="none" stroke="#888" stroke-width="0.8" opacity="0.25"/>
  <circle cx="160" cy="200" r="46.0" fill="none" stroke="#888" stroke-width="0.8" opacity="0.30"/>
  <circle cx="160" cy="200" r="28.0" fill="none" stroke="#888" stroke-width="0.8" opacity="0.35"/>
  <circle cx="160" cy="200" r="14.0" fill="none" stroke="#888" stroke-width="0.8" opacity="0.40"/>
  <circle cx="160" cy="200" r="12.0" fill="#222"/>
  <circle cx="152.0" cy="192.0" r="5.0" fill="#555" opacity="0.4"/>
  <path d="M 115 18 Q 160 6 205 18" fill="none" stroke="#5a3a1a" stroke-width="6" stroke-linecap="round"/>
  <rect x="27" y="340" width="16" height="8" rx="3" fill="#333"/>
  <rect x="277" y="340" width="16" height="8" rx="3" fill="#333"/>
  <text x="160" y="370" fill="white" font-size="13" text-anchor="middle" font-weight="bold" font-style="normal" letter-spacing="1" opacity="0.95" filter="url(#textEmboss)" clip-path="url(#bodyClip)">Tweed Prince</text>
  <text x="160" y="388" fill="#aaa" font-size="9" text-anchor="middle" font-weight="normal" font-style="normal" letter-spacing="1" opacity="0.7" filter="url(#textEmboss)" clip-path="url(#bodyClip)">Tweed Combo Amplifier</text>
</svg>