<svg xmlns="http://www.w3.org/2000/svg" viewBox="0 0 340 400" width="340" height="400" font-family="Arial,sans-serif">
  <defs>
    <radialGradient id="bgGrad" cx="50%" cy="40%" r="65%">
      <stop offset="0%" stop-color="#2a2a2a"/>
      <stop offset="100%" stop-color="#0a0a0a"/>
    </radialGradient>
    <linearGradient id="bodyGrad" x1="0%" y1="0%" x2="100%" y2="100%">
      <stop offset="0%" stop-color="#f4d4aa"/>
      <stop offset="25%" stop-color="#c2a278"/>
      <stop offset="75%" stop-color="#c2a278"/>
      <stop offset="100%" stop-color="#9a7a50"/>
    </linearGradient>
    <linearGradient id="bodyGradV" x1="0%" y1="0%" x2="0%" y2="100%">
      <stop offset="0%" stop-color="#f4d4aa"/>
      <stop offset="20%" stop-color="#c2a278"/>
      <stop offset="80%" stop-color="#c2a278"/>
      <stop offset="100%" stop-color="#9a7a50"/>
    </linearGradient>
    <radialGradient id="bodyRadGrad" cx="38%" cy="32%" r="65%">
      <stop offset="0%" stop-color="#f4d4aa"/>
      <stop offset="35%" stop-color="#c2a278"/>
      <stop offset="100%" stop-color="#9a7a50"/>
    </radialGradient>
    <radialGradient id="knobRingGrad" cx="35%" cy="30%" r="65%">
      <stop offset="0%" stop-color="#999"/>
      <stop offset="50%" stop-color="#444"/>
      <stop offset="100%" stop-color="#1a1a1a"/>
    </radialGradient>
    <radialGradient id="knobGrad" cx="35%" cy="30%" r="65%">
      <stop offset="0%" stop-color="#666"/>
      <stop offset="60%" stop-color="#2a2a2a"/>
      <stop offset="100%" stop-color="#0d0d0d"/>
    </radialGradient>
    <radialGradient id="screwGrad" cx="35%" cy="30%" r="65%">
      <stop offset="0%" stop-color="#bbb"/>
      <stop offset="100%" stop-color="#333"/>
    </radialGradient>
    <radialGradient id="jackGrad" cx="40%" cy="35%" r="60%">
      <stop offset="0%" stop-color="#777"/>
      <stop offset="100%" stop-color="#1a1a1a"/>
    </radialGradient>
    <linearGradient id="switchGrad" x1="0%" y1="0%" x2="0%" y2="100%">
      <stop offset="0%" stop-color="#333"/>
      <stop offset="50%" stop-color="#111"/>
      <stop offset="100%" stop-color="#080808"/>
    </linearGradient>
    <linearGradient id="grillGrad" x1="0%" y1="0%" x2="100%" y2="100%">
      <stop offset="0%" stop-color="#787878"/>
      <stop offset="100%" stop-color="#464646"/>
    </linearGradient>
    <linearGradient id="speakerGrad" cx="40%" cy="35%" r="60%" gradientUnits="objectBoundingBox">
      <stop offset="0%" stop-color="#555"/>
      <stop offset="100%" stop-color="#111"/>
    </linearGradient>
    <radialGradient id="speakerRadGrad" cx="45%" cy="40%" r="60%">
      <stop offset="0%" stop-color="#444"/>
      <stop offset="70%" stop-color="#1a1a1a"/>
      <stop offset="100%" stop-color="#0a0a0a"/>
    </radialGradient>
    <filter id="ledGlow" x="-80%" y="-80%" width="260%" height="260%">
      <feGaussianBlur stdDeviation="3" result="blur"/>
      <feMerge><feMergeNode in="blur"/><feMergeNode in="SourceGraphic"/></feMerge>
    </filter>
    <filter id="bodyShadow" x="-15%" y="-10%" width="140%" height="140%">
      <feDropShadow dx="5" dy="8" stdDeviation="10" flood-color="#000" flood-opacity="0.7"/>
    </filter>
    <filter id="knobShadow" x="-30%" y="-30%" width="170%" height="170%">
      <feDropShadow dx="1" dy="3" stdDeviation="4" flood-color="#000" flood-opacity="0.8"/>
    </filter>
    <filter id="textEmboss">
      <feDropShadow dx="0" dy="1" stdDeviation="0.5" flood-color="#000" flood-opacity="0.6"/>
    </filter>
    <filter id="innerShadow" x="-5%" y="-5%" width="110%" height="110%">
      <feDropShadow dx="0" dy="2" stdDeviation="3" flood-color="#000" flood-opacity="0.5"/>
    </filter>
    <clipPath id="bodyClip">
      <rect x="0" y="0" width="320" height="480"/>
    </clipPath>
  </defs>
  <rect width="340" height="400" fill="url(#bgGrad)"/>
  <rect x="15" y="15" width="310" height="330" rx="10" fill="url(#bodyGrad)" filter="url(#bodyShadow)"/>
  <rect x="15" y="15" width="310" height="7" rx="10" fill="#555" opacity="0.2"/>
  <circle cx="28" cy="28" r="5" fill="url(#screwGrad)"/>
  <line x1="24.5" y1="28" x2="31.5" y2="28" stroke="#222" stroke-width="1.2"/>
  <line x1="28" y1="24.5" x2="28" y2="31.5" stroke="#222" stroke-width="1.2"/>
  <circle cx="302" cy="28" r="5" fill="url(#screwGrad)"/>
  <line x1="298.5" y1="28" x2="305.5" y2="28" stroke="#222" stroke-width="1.2"/>
  <line x1="302" y1="24.5" x2="302" y2="31.5" stroke="#222" stroke-width="1.2"/>
  <circle cx="28" cy="328" r="5" fill="url(#screwGrad)"/>
  <line x1="24.5" y1="328" x2="31.5" y2="328" stroke="#222" stroke-width="1.2"/>
  <line x1="28" y1="324.5" x2="28" y2="331.5" stroke="#222" stroke-width="1.2"/>
  <circle cx="302" cy="328" r="5" fill="url(#screwGrad)"/>
  <line x1="298.5" y1="328" x2="305.5" y2="328" stroke="#222" stroke-width="1.2"/>
  <line x1="302" y1="324.5" x2="302" y2="331.5" stroke="#222" stroke-width="1.2"/>
  <rect x="15" y="15" width="310" height="75" rx="10" fill="#0d0d0d" opacity="0.9"/>
  <!-- Knob: VOLUME -->
  <line x1="44.1" y1="60.0" x2="41.5" y2="61.5" stroke="white" stroke-width="1" opacity="0.4"/>
  <line x1="44.1" y1="44.0" x2="41.5" y2="42.5" stroke="white" stroke-width="1" opacity="0.4"/>
  <line x1="58.0" y1="36.0" x2="58.0" y2="33.0" stroke="white" stroke-width="1" opacity="0.4"/>
  <line x1="71.9" y1="44.0" x2="74.5" y2="42.5" stroke="white" stroke-width="1" opacity="0.4"/>
  <line x1="71.9" y1="60.0" x2="74.5" y2="61.5" stroke="white" stroke-width="1" opacity="0.4"/>
  <circle cx="58" cy="52" r="14" fill="url(#knobRingGrad)" filter="url(#knobShadow)"/>
  <circle cx="58" cy="52" r="14" fill="none" stroke="#888" stroke-width="0.5" opacity="0.4"/>
  <circle cx="58" cy="52" r="10.92" fill="url(#knobGrad)"/>
  <ellipse cx="55.3" cy="48.7" rx="4.9" ry="3.1" fill="white" opacity="0.07"/>
  <line x1="58.0" y1="52.0" x2="51.1" y2="52.0" stroke="white" stroke-width="2" stroke-linecap="round" opacity="0.9"/>
  <circle cx="58" cy="52" r="3" fill="#3a3a3a"/>
  <text x="58" y="80" fill="white" font-size="7" text-anchor="middle" font-weight="bold" letter-spacing="0.5" filter="url(#textEmboss)" clip-path="url(#bodyClip)">VOLUME</text>
  <!-- Knob: TREBLE -->
  <line x1="76.1" y1="60.0" x2="73.5" y2="61.5" stroke="white" stroke-width="1" opacity="0.4"/>
  <line x1="76.1" y1="44.0" x2="73.5" y2="42.5" stroke="white" stroke-width="1" opacity="0.4"/>
  <line x1="90.0" y1="36.0" x2="90.0" y2="33.0" stroke="white" stroke-width="1" opacity="0.4"/>
  <line x1="103.9" y1="44.0" x2="106.5" y2="42.5" stroke="white" stroke-width="1" opacity="0.4"/>
  <line x1="103.9" y1="60.0" x2="106.5" y2="61.5" stroke="white" stroke-width="1" opacity="0.4"/>
  <circle cx="90" cy="52" r="14" fill="url(#knobRingGrad)" filter="url(#knobShadow)"/>
  <circle cx="90" cy="52" r="14" fill="none" stroke="#888" stroke-width="0.5" opacity="0.4"/>
  <circle cx="90" cy="52" r="10.92" fill="url(#knobGrad)"/>
  <ellipse cx="87.3" cy="48.7" rx="4.9" ry="3.1" fill="white" opacity="0.07"/>
  <line x1="90.0" y1="52.0" x2="83.2" y2="50.8" stroke="white" stroke-width="2" stroke-linecap="round" opacity="0.9"/>
  <circle cx="90" cy="52" r="3" fill="#3a3a3a"/>
  <text x="90" y="80" fill="white" font-size="7" text-anchor="middle" font-weight="bold" letter-spacing="0.5" filter="url(#textEmboss)" clip-path="url(#bodyClip)">TREBLE</text>
  <!-- Knob: BASS -->
  <line x1="108.1" y1="60.0" x2="105.5" y2="61.5" stroke="white" stroke-width="1" opacity="0.4"/>
  <line x1="108.1" y1="44.0" x2="105.5" y2="42.5" stroke="white" stroke-width="1" opacity="0.4"/>
  <line x1="122.0" y1="36.0" x2="122.0" y2="33.0" stroke="white" stroke-width="1" opacity="0.4"/>
  <line x1="135.9" y1="44.0" x2="138.5" y2="42.5" stroke="white" stroke-width="1" opacity="0.4"/>
  <line x1="135.9" y1="60.0" x2="138.5" y2="61.5" stroke="white" stroke-width="1" opacity="0.4"/>
  <circle cx="122" cy="52" r="14" fill="url(#knobRingGrad)" filter="url(#knobShadow)"/>
  <circle cx="122" cy="52" r="14" fill="none" stroke="#888" stroke-width="0.5" opacity="0.4"/>
  <circle cx="122" cy="52" r="10.92" fill="url(#knobGrad)"/>
  <ellipse cx="119.3" cy="48.7" rx="4.9" ry="3.1" fill="white" opacity="0.07"/>
  <line x1="122.0" y1="52.0" x2="115.5" y2="49.6" stroke="white" stroke-width="2" stroke-linecap="round" opacity="0.9"/>
  <circle cx="122" cy="52" r="3" fill="#3a3a3a"/>
  <text x="122" y="80" fill="white" font-size="7" text-anchor="middle" font-weight="bold" letter-spacing="0.5" filter="url(#textEmboss)" clip-path="url(#bodyClip)">BASS</text>
  <!-- Knob: MID -->
  <line x1="140.1" y1="60.0" x2="137.5" y2="61.5" stroke="white" stroke-width="1" opacity="0.4"/>
  <line x1="140.1" y1="44.0" x2="137.5" y2="42.5" stroke="white" stroke-width="1" opacity="0.4"/>
  <line x1="154.0" y1="36.0" x2="154.0" y2="33.0" stroke="white" stroke-width="1" opacity="0.4"/>
  <line x1="167.9" y1="44.0" x2="170.5" y2="42.5" stroke="white" stroke-width="1" opacity="0.4"/>
  <line x1="167.9" y1="60.0" x2="170.5" y2="61.5" stroke="white" stroke-width="1" opacity="0.4"/>
  <circle cx="154" cy="52" r="14" fill="url(#knobRingGrad)" filter="url(#knobShadow)"/>
  <circle cx="154" cy="52" r="14" fill="none" stroke="#888" stroke-width="0.5" opacity="0.4"/>
  <circle cx="154" cy="52" r="10.92" fill="url(#knobGrad)"/>
  <ellipse cx="151.3" cy="48.7" rx="4.9" ry="3.1" fill="white" opacity="0.07"/>
  <line x1="154.0" y1="52.0" x2="148.0" y2="48.5" stroke="white" stroke-width="2" stroke-linecap="round" opacity="0.9"/>
  <circle cx="154" cy="52" r="3" fill="#3a3a3a"/>
  <text x="154" y="80" fill="white" font-size="7" text-anchor="middle" font-weight="bold" letter-spacing="0.5" filter="url(#textEmboss)" clip-path="url(#bodyClip)">MID</text>
  <!-- Knob: FAT -->
  <line x1="172.1" y1="60.0" x2="169.5" y2="61.5" stroke="white" stroke-width="1" opacity="0.4"/>
  <line x1="172.1" y1="44.0" x2="169.5" y2="42.5" stroke="white" stroke-width="1" opacity="0.4"/>
  <line x1="186.0" y1="36.0" x2="186.0" y2="33.0" stroke="white" stroke-width="1" opacity="0.4"/>
  <line x1="199.9" y1="44.0" x2="202.5" y2="42.5" stroke="white" stroke-width="1" opacity="0.4"/>
  <line x1="199.9" y1="60.0" x2="202.5" y2="61.5" stroke="white" stroke-width="1" opacity="0.4"/>
  <circle cx="186" cy="52" r="14" fill="url(#knobRingGrad)" filter="url(#knobShadow)"/>
  <circle cx="186" cy="52" r="14" fill="none" stroke="#888" stroke-width="0.5" opacity="0.4"/>
  <circle cx="186" cy="52" r="10.92" fill="url(#knobGrad)"/>
  <ellipse cx="183.3" cy="48.7" rx="4.9" ry="3.1" fill="white" opacity="0.07"/>
  <line x1="186.0" y1="52.0" x2="180.7" y2="47.6" stroke="white" stroke-width="2" stroke-linecap="round" opacity="0.9"/>
  <circle cx="186" cy="52" r="3" fill="#3a3a3a"/>
  <text x="186" y="80" fill="white" font-size="7" text-anchor="middle" font-weight="bold" letter-spacing="0.5" filter="url(#textEmboss)" clip-path="url(#bodyClip)">FAT</text>
  <!-- Knob: REVERB -->
  <line x1="204.1" y1="60.0" x2="201.5" y2="61.5" stroke="white" stroke-width="1" opacity="0.4"/>
  <line x1="204.1" y1="44.0" x2="201.5" y2="42.5" stroke="white" stroke-width="1" opacity="0.4"/>
  <line x1="218.0" y1="36.0" x2="218.0" y2="33.0" stroke="white" stroke-width="1" opacity="0.4"/>
  <line x1="231.9" y1="44.0" x2="234.5" y2="42.5" stroke="white" stroke-width="1" opacity="0.4"/>
  <line x1="231.9" y1="60.0" x2="234.5" y2="61.5" stroke="white" stroke-width="1" opacity="0.4"/>
  <circle cx="218" cy="52" r="14" fill="url(#knobRingGrad)" filter="url(#knobShadow)"/>
  <circle cx="218" cy="52" r="14" fill="none" stroke="#888" stroke-width="0.5" opacity="0.4"/>
  <circle cx="218" cy="52" r="10.92" fill="url(#knobGrad)"/>
  <ellipse cx="215.3" cy="48.7" rx="4.9" ry="3.1" fill="white" opacity="0.07"/>
  <line x1="218.0" y1="52.0" x2="213.6" y2="46.7" stroke="white" stroke-width="2" stroke-linecap="round" opacity="0.9"/>
  <circle cx="218" cy="52" r="3" fill="#3a3a3a"/>
  <text x="218" y="80" fill="white" font-size="7" text-anchor="middle" font-weight="bold" letter-spacing="0.5" filter="url(#textEmboss)" clip-path="url(#bodyClip)">REVERB</text>
  <!-- Knob: SPEED -->
  <line x1="236.1" y1="60.0" x2="233.5" y2="61.5" stroke="white" stroke-width="1" opacity="0.4"/>
  <line x1="236.1" y1="44.0" x2="233.5" y2="42.5" stroke="white" stroke-width="1" opacity="0.4"/>
  <line x1="250.0" y1="36.0" x2="250.0" y2="33.0" stroke="white" stroke-width="1" opacity="0.4"/>
  <line x1="263.9" y1="44.0" x2="266.5" y2="42.5" stroke="white" stroke-width="1" opacity="0.4"/>
  <line x1="263.9" y1="60.0" x2="266.5" y2="61.5" stroke="white" stroke-width="1" opacity="0.4"/>
  <circle cx="250" cy="52" r="14" fill="url(#knobRingGrad)" filter="url(#knobShadow)"/>
  <circle cx="250" cy="52" r="14" fill="none" stroke="#888" stroke-width="0.5" opacity="0.4"/>
  <circle cx="250" cy="52" r="10.92" fill="url(#knobGrad)"/>
  <ellipse cx="247.3" cy="48.7" rx="4.9" ry="3.1" fill="white" opacity="0.07"/>
  <line x1="250.0" y1="52.0" x2="246.5" y2="46.0" stroke="white" stroke-width="2" stroke-linecap="round" opacity="0.9"/>
  <circle cx="250" cy="52" r="3" fill="#3a3a3a"/>
  <text x="250" y="80" fill="white" font-size="7" text-anchor="middle" font-weight="bold" letter-spacing="0.5" filter="url(#textEmboss)" clip-path="url(#bodyClip)">SPEED</text>
  <!-- Knob: INTENSITY -->
  <line x1="268.1" y1="60.0" x2="265.5" y2="61.5" stroke="white" stroke-width="1" opacity="0.4"/>
  <line x1="268.1" y1="44.0" x2="265.5" y2="42.5" stroke="white" stroke-width="1" opacity="0.4"/>
  <line x1="282.0" y1="36.0" x2="282.0" y2="33.0" stroke="white" stroke-width="1" opacity="0.4"/>
  <line x1="295.9" y1="44.0" x2="298.5" y2="42.5" stroke="white" stroke-width="1" opacity="0.4"/>
  <line x1="295.9" y1="60.0" x2="298.5" y2="61.5" stroke="white" stroke-width="1" opacity="0.4"/>
  <circle cx="282" cy="52" r="14" fill="url(#knobRingGrad)" filter="url(#knobShadow)"/>
  <circle cx="282" cy="52" r="14" fill="none" stroke="#888" stroke-width="0.5" opacity="0.4"/>
  <circle cx="282" cy="52" r="10.92" fill="url(#knobGrad)"/>
  <ellipse cx="279.3" cy="48.7" rx="4.9" ry="3.1" fill="white" opacity="0.07"/>
  <line x1="282.0" y1="52.0" x2="279.6" y2="45.5" stroke="white" stroke-width="2" stroke-linecap="round" opacity="0.9"/>
  <circle cx="282" cy="52" r="3" fill="#3a3a3a"/>
  <text x="282" y="80" fill="white" font-size="7" text-anchor="middle" font-weight="bold" letter-spacing="0.5" filter="url(#textEmboss)" clip-path="url(#bodyClip)">INTENSIT</text>
  <circle cx="295" cy="40" r="7" fill="#111"/>
  <circle cx="295" cy="40" r="5" fill="#cc0000" filter="url(#ledGlow)"/>
  <circle cx="293.5" cy="38.5" r="2" fill="white" opacity="0.5"/>
  <circle cx="295" cy="40" r="8" fill="none" stroke="#ff0000" stroke-width="1" opacity="0.25"/>
  <rect x="25" y="100" width="290" height="220" rx="6" fill="url(#grillGrad)" filter="url(#innerShadow)"/>
  <line x1="25" y1="100" x2="25" y2="320" stroke="#000" stroke-width="0.4" opacity="0.2"/>
  <line x1="31" y1="100" x2="31" y2="320" stroke="#000" stroke-width="0.4" opacity="0.2"/>
  <line x1="37" y1="100" x2="37" y2="320" stroke="#000" stroke-width="0.4" opacity="0.2"/>
  <line x1="43" y1="100" x2="43" y2="320" stroke="#000" stroke-width="0.4" opacity="0.2"/>
  <line x1="49" y1="100" x2="49" y2="320" stroke="#000" stroke-width="0.4" opacity="0.2"/>
  <line x1="55" y1="100" x2="55" y2="320" stroke="#000" stroke-width="0.4" opacity="0.2"/>
  <line x1="61" y1="100" x2="61" y2="320" stroke="#000" stroke-width="0.4" opacity="0.2"/>
  <line x1="67" y1="100" x2="67" y2="320" stroke="#000" stroke-width="0.4" opacity="0.2"/>
  <line x1="73" y1="100" x2="73" y2="320" stroke="#000" stroke-width="0.4" opacity="0.2"/>
  <line x1="79" y1="100" x2="79" y2="320" stroke="#000" stroke-width="0.4" opacity="0.2"/>
  <line x1="85" y1="100" x2="85" y2="320" stroke="#000" stroke-width="0.4" opacity="0.2"/>
  <line x1="91" y1="100" x2="91" y2="320" stroke="#000" stroke-width="0.4" opacity="0.2"/>
  <line x1="97" y1="100" x2="97" y2="320" stroke="#000" stroke-width="0.4" opacity="0.2"/>
  <line x1="103" y1="100" x2="103" y2="320" stroke="#000" stroke-width="0.4" opacity="0.2"/>
  <line x1="109" y1="100" x2="109" y2="320" stroke="#000" stroke-width="0.4" opacity="0.2"/>
  <line x1="115" y1="100" x2="115" y2="320" stroke="#000" stroke-width="0.4" opacity="0.2"/>
  <line x1="121" y1="100" x2="121" y2="320" stroke="#000" stroke-width="0.4" opacity="0.2"/>
  <line x1="127" y1="100" x2="127" y2="320" stroke="#000" stroke-width="0.4" opacity="0.2"/>
  <line x1="133" y1="100" x2="133" y2="320" stroke="#000" stroke-width="0.4" opacity="0.2"/>
  <line x1="139" y1="100" x2="139" y2="320" stroke="#000" stroke-width="0.4" opacity="0.2"/>
  <line x1="145" y1="100" x2="145" y2="320" stroke="#000" stroke-width="0.4" opacity="0.2"/>
  <line x1="151" y1="100" x2="151" y2="320" stroke="#000" stroke-width="0.4" opacity="0.2"/>
  <line x1="157" y1="100" x2="157" y2="320" stroke="#000" stroke-width="0.4" opacity="0.2"/>
  <line x1="163" y1="100" x2="163" y2="320" stroke="#000" stroke-width="0.4" opacity="0.2"/>
  <line x1="169" y1="100" x2="169" y2="320" stroke="#000" stroke-width="0.4" opacity="0.2"/>
  <line x1="175" y1="100" x2="175" y2="320" stroke="#000" stroke-width="0.4" opacity="0.2"/>
  <line x1="181" y1="100" x2="181" y2="320" stroke="#000" stroke-width="0.4" opacity="0.2"/>
  <line x1="187" y1="100" x2="187" y2="320" stroke="#000" stroke-width="0.4" opacity="0.2"/>
  <line x1="193" y1="100" x2="193" y2="320" stroke="#000" stroke-width="0.4" opacity="0.2"/>
  <line x1="199" y1="100" x2="199" y2="320" stroke="#000" stroke-width="0.4" opacity="0.2"/>
  <line x1="205" y1="100" x2="205" y2="320" stroke="#000" stroke-width="0.4" opacity="0.2"/>
  <line x1="211" y1="100" x2="211" y2="320" stroke="#000" stroke-width="0.4" opacity="0.2"/>
  <line x1="217" y1="100" x2="217" y2="320" stroke="#000" stroke-width="0.4" opacity="0.2"/>
  <line x1="223" y1="100" x2="223" y2="320" stroke="#000" stroke-width="0.4" opacity="0.2"/>
  <line x1="229" y1="100" x2="229" y2="320" stroke="#000" stroke-width="0.4" opacity="0.2"/>
  <line x1="235" y1="100" x2="235" y2="320" stroke="#000" stroke-width="0.4" opacity="0.2"/>
  <line x1="241" y1="100" x2="241" y2="320" stroke="#000" stroke-width="0.4" opacity="0.2"/>
  <line x1="247" y1="100" x2="247" y2="320" stroke="#000" stroke-width="0.4" opacity="0.2"/>
  <line x1="253" y1="100" x2="253" y2="320" stroke="#000" stroke-width="0.4" opacity="0.2"/>
  <line x1="259" y1="100" x2="259" y2="320" stroke="#000" stroke-width="0.4" opacity="0.2"/>
  <line x1="265" y1="100" x2="265" y2="320" stroke="#000" stroke-width="0.4" opacity="0.2"/>
  <line x1="271" y1="100" x2="271" y2="320" stroke="#000" stroke-width="0.4" opacity="0.2"/>
  <line x1="277" y1="100" x2="277" y2="320" stroke="#000" stroke-width="0.4" opacity="0.2"/>
  <line x1="283" y1="100" x2="283" y2="320" stroke="#000" stroke-width="0.4" opacity="0.2"/>
  <line x1="289" y1="100" x2="289" y2="320" stroke="#000" stroke-width="0.4" opacity="0.2"/>
  <line x1="295" y1="100" x2="295" y2="320" stroke="#000" stroke-width="0.4" opacity="0.2"/>
  <line x1="301" y1="100" x2="301" y2="320" stroke="#000" stroke-width="0.4" opacity="0.2"/>
  <line x1="307" y1="100" x2="307" y2="320" stroke="#000" stroke-width="0.4" opacity="0.2"/>
  <line x1="313" y1="100" x2="313" y2="320" stroke="#000" stroke-width="0.4" opacity="0.2"/>
  <line x1="25" y1="100" x2="315" y2="100" stroke="#000" stroke-width="0.4" opacity="0.2"/>
  <line x1="25" y1="106" x2="315" y2="106" stroke="#000" stroke-width="0.4" opacity="0.2"/>
  <line x1="25" y1="112" x2="315" y2="112" stroke="#000" stroke-width="0.4" opacity="0.2"/>
  <line x1="25" y1="118" x2="315" y2="118" stroke="#000" stroke-width="0.4" opacity="0.2"/>
  <line x1="25" y1="124" x2="315" y2="124" stroke="#000" stroke-width="0.4" opacity="0.2"/>
  <line x1="25" y1="130" x2="315" y2="130" stroke="#000" stroke-width="0.4" opacity="0.2"/>
  <line x1="25" y1="136" x2="315" y2="136" stroke="#000" stroke-width="0.4" opacity="0.2"/>
  <line x1="25" y1="142" x2="315" y2="142" stroke="#000" stroke-width="0.4" opacity="0.2"/>
  <line x1="25" y1="148" x2="315" y2="148" stroke="#000" stroke-width="0.4" opacity="0.2"/>
  <line x1="25" y1="154" x2="315" y2="154" stroke="#000" stroke-width="0.4" opacity="0.2"/>
  <line x1="25" y1="160" x2="315" y2="160" stroke="#000" stroke-width="0.4" opacity="0.2"/>
  <line x1="25" y1="166" x2="315" y2="166" stroke="#000" stroke-width="0.4" opacity="0.2"/>
  <line x1="25" y1="172" x2="315" y2="172" stroke="#000" stroke-width="0.4" opacity="0.2"/>
  <line x1="25" y1="178" x2="315" y2="178" stroke="#000" stroke-width="0.4" opacity="0.2"/>
  <line x1="25" y1="184" x2="315" y2="184" stroke="#000" stroke-width="0.4" opacity="0.2"/>
  <line x1="25" y1="190" x2="315" y2="190" stroke="#000" stroke-width="0.4" opacity="0.2"/>
  <line x1="25" y1="196" x2="315" y2="196" stroke="#000" stroke-width="0.4" opacity="0.2"/>
  <line x1="25" y1="202" x2="315" y2="202" stroke="#000" stroke-width="0.4" opacity="0.2"/>
  <line x1="25" y1="208" x2="315" y2="208" stroke="#000" stroke-width="0.4" opacity="0.2"/>
  <line x1="25" y1="214" x2="315" y2="214" stroke="#000" stroke-width="0.4" opacity="0.2"/>
  <line x1="25" y1="220" x2="315" y2="220" stroke="#000" stroke-width="0.4" opacity="0.2"/>
  <line x1="25" y1="226" x2="315" y2="226" stroke="#000" stroke-width="0.4" opacity="0.2"/>
  <line x1="25" y1="232" x2="315" y2="232" stroke="#000" stroke-width="0.4" opacity="0.2"/>
  <line x1="25" y1="238" x2="315" y2="238" stroke="#000" stroke-width="0.4" opacity="0.2"/>
  <line x1="25" y1="244" x2="315" y2="244" stroke="#000" stroke-width="0.4" opacity="0.2"/>
  <line x1="25" y1="250" x2="315" y2="250" stroke="#000" stroke-width="0.4" opacity="0.2"/>
  <line x1="25" y1="256" x2="315" y2="256" stroke="#000" stroke-width="0.4" opacity="0.2"/>
  <line x1="25" y1="262" x2="315" y2="262" stroke="#000" stroke-width="0.4" opacity="0.2"/>
  <line x1="25" y1="268" x2="315" y2="268" stroke="#000" stroke-width="0.4" opacity="0.2"/>
  <line x1="25" y1="274" x2="315" y2="274" stroke="#000" stroke-width="0.4" opacity="0.2"/>
  <line x1="25" y1="280" x2="315" y2="280" stroke="#000" stroke-width="0.4" opacity="0.2"/>
  <line x1="25" y1="286" x2="315" y2="286" stroke="#000" stroke-width="0.4" opacity="0.2"/>
  <line x1="25" y1="292" x2="315" y2="292" stroke="#000" stroke-width="0.4" opacity="0.2"/>
  <line x1="25" y1="298" x2="315" y2="298" stroke="#000" stroke-width="0.4" opacity="0.2"/>
  <line x1="25" y1="304" x2="315" y2="304" stroke="#000" stroke-width="0.4" opacity="0.2"/>
  <line x1="25" y1="310" x2="315" y2="310" stroke="#000" stroke-width="0.4" opacity="0.2"/>
  <line x1="25" y1="316" x2="315" y2="316" stroke="#000" stroke-width="0.4" opacity="0.2"/>
  <rect x="25" y="100" width="290" height="220" rx="6" fill="none" stroke="#000" stroke-width="1" opacity="0.3"/>
  <circle cx="170" cy="210" r="105" fill="url(#speakerRadGrad)" filter="url(#innerShadow)"/>
  <circle cx="170" cy="210" r="105.0" fill="none" stroke="#888" stroke-width="0.8" opacity="0.15"/>
  <circle cx="170" cy="210" r="86.1" fill="none" stroke="#888" stroke-width="0.8" opacity="0.20"/>
  <circle cx="170" cy="210" r="67.2" fill="none" stroke="#888" stroke-width="0.8" opacity="0.25"/>
  <circle cx="170" cy="210" r="48.3" fill="none" stroke="#888" stroke-width="0.8" opacity="0.30"/>
  <circle cx="170" cy="210" r="29.4" fill="none" stroke="#888" stroke-width="0.8" opacity="0.35"/>
  <circle cx="170" cy="210" r="14.7" fill="none" stroke="#888" stroke-width="0.8" opacity="0.40"/>
  <circle cx="170" cy="210" r="12.6" fill="#222"/>
  <circle cx="161.6" cy="201.6" r="5.2" fill="#555" opacity="0.4"/>
  <text x="170" y="338" fill="#888888" font-size="13" text-anchor="middle" font-weight="bold" font-style="normal" letter-spacing="3" opacity="0.95" filter="url(#textEmboss)" clip-path="url(#bodyClip)">BROWN</text>
  <text x="170" y="355" fill="#aaa" font-size="10" text-anchor="middle" font-weight="normal" font-style="normal" letter-spacing="1" opacity="0.8" filter="url(#textEmboss)" clip-path="url(#bodyClip)">King Clean</text>
  <path d="M 120 18 Q 170 8 220 18" fill="none" stroke="#555" stroke-width="5" stroke-linecap="round"/>
  <rect x="27" y="340" width="16" height="8" rx="3" fill="#222"/>
  <rect x="297" y="340" width="16" height="8" rx="3" fill="#222"/>
  <text x="170" y="375" fill="white" font-size="13" text-anchor="middle" font-weight="bold" font-style="normal" letter-spacing="1" opacity="0.95" filter="url(#textEmboss)" clip-path="url(#bodyClip)">Brown King Clean</text>
  <text x="170" y="393" fill="#aaa" font-size="9" text-anchor="middle" font-weight="normal" font-style="normal" letter-spacing="1" opacity="0.7" filter="url(#textEmboss)" clip-path="url(#bodyClip)">Combo Amplifier</text>
</svg>