<svg xmlns="http://www.w3.org/2000/svg" viewBox="0 0 420 220" width="420" height="220" font-family="Arial,sans-serif">
  <defs>
    <radialGradient id="bgGrad" cx="50%" cy="40%" r="65%">
      <stop offset="0%" stop-color="#2a2a2a"/>
      <stop offset="100%" stop-color="#0a0a0a"/>
    </radialGradient>
    <linearGradient id="bodyGrad" x1="0%" y1="0%" x2="100%" y2="100%">
      <stop offset="0%" stop-color="#4c4c4c"/>
      <stop offset="25%" stop-color="#1a1a1a"/>
      <stop offset="75%" stop-color="#1a1a1a"/>
      <stop offset="100%" stop-color="#000000"/>
    </linearGradient>
    <linearGradient id="bodyGradV" x1="0%" y1="0%" x2="0%" y2="100%">
      <stop offset="0%" stop-color="#4c4c4c"/>
      <stop offset="20%" stop-color="#1a1a1a"/>
      <stop offset="80%" stop-color="#1a1a1a"/>
      <stop offset="100%" stop-color="#000000"/>
    </linearGradient>
    <radialGradient id="bodyRadGrad" cx="38%" cy="32%" r="65%">
      <stop offset="0%" stop-color="#4c4c4c"/>
      <stop offset="35%" stop-color="#1a1a1a"/>
      <stop offset="100%" stop-color="#000000"/>
    </radialGradient>
    <radialGradient id="knobRingGrad" cx="35%" cy="30%" r="65%">
      <stop offset="0%" stop-color="#999"/>
      <stop offset="50%" stop-color="#444"/>
      <stop offset="100%" stop-color="#1a1a1a"/>
    </radialGradient>
    <radialGradient id="knobGrad" cx="35%" cy="30%" r="65%">
      <stop offset="0%" stop-color="#666"/>
      <stop offset="60%" stop-color="#2a2a2a"/>
      <stop offset="100%" stop-color="#0d0d0d"/>
    </radialGradient>
    <radialGradient id="screwGrad" cx="35%" cy="30%" r="65%">
      <stop offset="0%" stop-color="#bbb"/>
      <stop offset="100%" stop-color="#333"/>
    </radialGradient>
    <radialGradient id="jackGrad" cx="40%" cy="35%" r="60%">
      <stop offset="0%" stop-color="#777"/>
      <stop offset="100%" stop-color="#1a1a1a"/>
    </radialGradient>
    <linearGradient id="switchGrad" x1="0%" y1="0%" x2="0%" y2="100%">
      <stop offset="0%" stop-color="#333"/>
      <stop offset="50%" stop-color="#111"/>
      <stop offset="100%" stop-color="#080808"/>
    </linearGradient>
    <linearGradient id="grillGrad" x1="0%" y1="0%" x2="100%" y2="100%">
      <stop offset="0%" stop-color="#a99173"/>
      <stop offset="100%" stop-color="#775f41"/>
    </linearGradient>
    <linearGradient id="speakerGrad" cx="40%" cy="35%" r="60%" gradientUnits="objectBoundingBox">
      <stop offset="0%" stop-color="#555"/>
      <stop offset="100%" stop-color="#111"/>
    </linearGradient>
    <radialGradient id="speakerRadGrad" cx="45%" cy="40%" r="60%">
      <stop offset="0%" stop-color="#444"/>
      <stop offset="70%" stop-color="#1a1a1a"/>
      <stop offset="100%" stop-color="#0a0a0a"/>
    </radialGradient>
    <filter id="ledGlow" x="-80%" y="-80%" width="260%" height="260%">
      <feGaussianBlur stdDeviation="3" result="blur"/>
      <feMerge><feMergeNode in="blur"/><feMergeNode in="SourceGraphic"/></feMerge>
    </filter>
    <filter id="bodyShadow" x="-15%" y="-10%" width="140%" height="140%">
      <feDropShadow dx="5" dy="8" stdDeviation="10" flood-color="#000" flood-opacity="0.7"/>
    </filter>
    <filter id="knobShadow" x="-30%" y="-30%" width="170%" height="170%">
      <feDropShadow dx="1" dy="3" stdDeviation="4" flood-color="#000" flood-opacity="0.8"/>
    </filter>
    <filter id="textEmboss">
      <feDropShadow dx="0" dy="1" stdDeviation="0.5" flood-color="#000" flood-opacity="0.6"/>
    </filter>
    <filter id="innerShadow" x="-5%" y="-5%" width="110%" height="110%">
      <feDropShadow dx="0" dy="2" stdDeviation="3" flood-color="#000" flood-opacity="0.5"/>
    </filter>
    <clipPath id="bodyClip">
      <rect x="0" y="0" width="320" height="480"/>
    </clipPath>
  </defs>
  <rect width="420" height="220" fill="url(#bgGrad)"/>
  <rect x="10" y="25" width="400" height="120" rx="4" fill="url(#bodyGrad)" filter="url(#bodyShadow)"/>
  <rect x="10" y="25" width="400" height="5" rx="4" fill="#555" opacity="0.3"/>
  <rect x="10" y="25" width="30" height="120" rx="4" fill="#333"/>
  <rect x="380" y="25" width="30" height="120" rx="4" fill="#333"/>
  <circle cx="20" cy="40" r="5" fill="url(#screwGrad)"/>
  <line x1="16.5" y1="40" x2="23.5" y2="40" stroke="#222" stroke-width="1.2"/>
  <line x1="20" y1="36.5" x2="20" y2="43.5" stroke="#222" stroke-width="1.2"/>
  <circle cx="20" cy="120" r="5" fill="url(#screwGrad)"/>
  <line x1="16.5" y1="120" x2="23.5" y2="120" stroke="#222" stroke-width="1.2"/>
  <line x1="20" y1="116.5" x2="20" y2="123.5" stroke="#222" stroke-width="1.2"/>
  <circle cx="390" cy="40" r="5" fill="url(#screwGrad)"/>
  <line x1="386.5" y1="40" x2="393.5" y2="40" stroke="#222" stroke-width="1.2"/>
  <line x1="390" y1="36.5" x2="390" y2="43.5" stroke="#222" stroke-width="1.2"/>
  <circle cx="390" cy="120" r="5" fill="url(#screwGrad)"/>
  <line x1="386.5" y1="120" x2="393.5" y2="120" stroke="#222" stroke-width="1.2"/>
  <line x1="390" y1="116.5" x2="390" y2="123.5" stroke="#222" stroke-width="1.2"/>
  <rect x="50" y="38" width="80" height="50" rx="3" fill="#001100"/>
  <rect x="52" y="40" width="76" height="46" rx="2" fill="#003300" opacity="0.5"/>
  <text x="90" y="68" fill="#00ff00" font-size="10" text-anchor="middle" font-weight="normal" font-style="normal" letter-spacing="1" opacity="0.9" filter="url(#textEmboss)" clip-path="url(#bodyClip)">XT Blu</text>
  <!-- Knob: VOLUME -->
  <line x1="179.1" y1="83.0" x2="176.5" y2="84.5" stroke="white" stroke-width="1" opacity="0.4"/>
  <line x1="179.1" y1="67.0" x2="176.5" y2="65.5" stroke="white" stroke-width="1" opacity="0.4"/>
  <line x1="193.0" y1="59.0" x2="193.0" y2="56.0" stroke="white" stroke-width="1" opacity="0.4"/>
  <line x1="206.9" y1="67.0" x2="209.5" y2="65.5" stroke="white" stroke-width="1" opacity="0.4"/>
  <line x1="206.9" y1="83.0" x2="209.5" y2="84.5" stroke="white" stroke-width="1" opacity="0.4"/>
  <circle cx="193" cy="75" r="14" fill="url(#knobRingGrad)" filter="url(#knobShadow)"/>
  <circle cx="193" cy="75" r="14" fill="none" stroke="#888" stroke-width="0.5" opacity="0.4"/>
  <circle cx="193" cy="75" r="10.92" fill="url(#knobGrad)"/>
  <ellipse cx="190.3" cy="71.7" rx="4.9" ry="3.1" fill="white" opacity="0.07"/>
  <line x1="193.0" y1="75.0" x2="186.1" y2="75.0" stroke="white" stroke-width="2" stroke-linecap="round" opacity="0.9"/>
  <circle cx="193" cy="75" r="3" fill="#3a3a3a"/>
  <text x="193" y="103" fill="white" font-size="7" text-anchor="middle" font-weight="bold" letter-spacing="0.5" filter="url(#textEmboss)" clip-path="url(#bodyClip)">VOLUME</text>
  <!-- Knob: BASS -->
  <line x1="204.1" y1="83.0" x2="201.5" y2="84.5" stroke="white" stroke-width="1" opacity="0.4"/>
  <line x1="204.1" y1="67.0" x2="201.5" y2="65.5" stroke="white" stroke-width="1" opacity="0.4"/>
  <line x1="218.0" y1="59.0" x2="218.0" y2="56.0" stroke="white" stroke-width="1" opacity="0.4"/>
  <line x1="231.9" y1="67.0" x2="234.5" y2="65.5" stroke="white" stroke-width="1" opacity="0.4"/>
  <line x1="231.9" y1="83.0" x2="234.5" y2="84.5" stroke="white" stroke-width="1" opacity="0.4"/>
  <circle cx="218" cy="75" r="14" fill="url(#knobRingGrad)" filter="url(#knobShadow)"/>
  <circle cx="218" cy="75" r="14" fill="none" stroke="#888" stroke-width="0.5" opacity="0.4"/>
  <circle cx="218" cy="75" r="10.92" fill="url(#knobGrad)"/>
  <ellipse cx="215.3" cy="71.7" rx="4.9" ry="3.1" fill="white" opacity="0.07"/>
  <line x1="218.0" y1="75.0" x2="211.3" y2="73.2" stroke="white" stroke-width="2" stroke-linecap="round" opacity="0.9"/>
  <circle cx="218" cy="75" r="3" fill="#3a3a3a"/>
  <text x="218" y="103" fill="white" font-size="7" text-anchor="middle" font-weight="bold" letter-spacing="0.5" filter="url(#textEmboss)" clip-path="url(#bodyClip)">BASS</text>
  <!-- Knob: LO-MID -->
  <line x1="229.1" y1="83.0" x2="226.5" y2="84.5" stroke="white" stroke-width="1" opacity="0.4"/>
  <line x1="229.1" y1="67.0" x2="226.5" y2="65.5" stroke="white" stroke-width="1" opacity="0.4"/>
  <line x1="243.0" y1="59.0" x2="243.0" y2="56.0" stroke="white" stroke-width="1" opacity="0.4"/>
  <line x1="256.9" y1="67.0" x2="259.5" y2="65.5" stroke="white" stroke-width="1" opacity="0.4"/>
  <line x1="256.9" y1="83.0" x2="259.5" y2="84.5" stroke="white" stroke-width="1" opacity="0.4"/>
  <circle cx="243" cy="75" r="14" fill="url(#knobRingGrad)" filter="url(#knobShadow)"/>
  <circle cx="243" cy="75" r="14" fill="none" stroke="#888" stroke-width="0.5" opacity="0.4"/>
  <circle cx="243" cy="75" r="10.92" fill="url(#knobGrad)"/>
  <ellipse cx="240.3" cy="71.7" rx="4.9" ry="3.1" fill="white" opacity="0.07"/>
  <line x1="243.0" y1="75.0" x2="237.0" y2="71.5" stroke="white" stroke-width="2" stroke-linecap="round" opacity="0.9"/>
  <circle cx="243" cy="75" r="3" fill="#3a3a3a"/>
  <text x="243" y="103" fill="white" font-size="7" text-anchor="middle" font-weight="bold" letter-spacing="0.5" filter="url(#textEmboss)" clip-path="url(#bodyClip)">LO-MID</text>
  <!-- Knob: HI-MID -->
  <line x1="254.1" y1="83.0" x2="251.5" y2="84.5" stroke="white" stroke-width="1" opacity="0.4"/>
  <line x1="254.1" y1="67.0" x2="251.5" y2="65.5" stroke="white" stroke-width="1" opacity="0.4"/>
  <line x1="268.0" y1="59.0" x2="268.0" y2="56.0" stroke="white" stroke-width="1" opacity="0.4"/>
  <line x1="281.9" y1="67.0" x2="284.5" y2="65.5" stroke="white" stroke-width="1" opacity="0.4"/>
  <line x1="281.9" y1="83.0" x2="284.5" y2="84.5" stroke="white" stroke-width="1" opacity="0.4"/>
  <circle cx="268" cy="75" r="14" fill="url(#knobRingGrad)" filter="url(#knobShadow)"/>
  <circle cx="268" cy="75" r="14" fill="none" stroke="#888" stroke-width="0.5" opacity="0.4"/>
  <circle cx="268" cy="75" r="10.92" fill="url(#knobGrad)"/>
  <ellipse cx="265.3" cy="71.7" rx="4.9" ry="3.1" fill="white" opacity="0.07"/>
  <line x1="268.0" y1="75.0" x2="263.1" y2="70.1" stroke="white" stroke-width="2" stroke-linecap="round" opacity="0.9"/>
  <circle cx="268" cy="75" r="3" fill="#3a3a3a"/>
  <text x="268" y="103" fill="white" font-size="7" text-anchor="middle" font-weight="bold" letter-spacing="0.5" filter="url(#textEmboss)" clip-path="url(#bodyClip)">HI-MID</text>
  <!-- Knob: TREBLE -->
  <line x1="279.1" y1="83.0" x2="276.5" y2="84.5" stroke="white" stroke-width="1" opacity="0.4"/>
  <line x1="279.1" y1="67.0" x2="276.5" y2="65.5" stroke="white" stroke-width="1" opacity="0.4"/>
  <line x1="293.0" y1="59.0" x2="293.0" y2="56.0" stroke="white" stroke-width="1" opacity="0.4"/>
  <line x1="306.9" y1="67.0" x2="309.5" y2="65.5" stroke="white" stroke-width="1" opacity="0.4"/>
  <line x1="306.9" y1="83.0" x2="309.5" y2="84.5" stroke="white" stroke-width="1" opacity="0.4"/>
  <circle cx="293" cy="75" r="14" fill="url(#knobRingGrad)" filter="url(#knobShadow)"/>
  <circle cx="293" cy="75" r="14" fill="none" stroke="#888" stroke-width="0.5" opacity="0.4"/>
  <circle cx="293" cy="75" r="10.92" fill="url(#knobGrad)"/>
  <ellipse cx="290.3" cy="71.7" rx="4.9" ry="3.1" fill="white" opacity="0.07"/>
  <line x1="293.0" y1="75.0" x2="289.5" y2="69.0" stroke="white" stroke-width="2" stroke-linecap="round" opacity="0.9"/>
  <circle cx="293" cy="75" r="3" fill="#3a3a3a"/>
  <text x="293" y="103" fill="white" font-size="7" text-anchor="middle" font-weight="bold" letter-spacing="0.5" filter="url(#textEmboss)" clip-path="url(#bodyClip)">TREBLE</text>
  <!-- Knob: CROSSOVER -->
  <line x1="304.1" y1="83.0" x2="301.5" y2="84.5" stroke="white" stroke-width="1" opacity="0.4"/>
  <line x1="304.1" y1="67.0" x2="301.5" y2="65.5" stroke="white" stroke-width="1" opacity="0.4"/>
  <line x1="318.0" y1="59.0" x2="318.0" y2="56.0" stroke="white" stroke-width="1" opacity="0.4"/>
  <line x1="331.9" y1="67.0" x2="334.5" y2="65.5" stroke="white" stroke-width="1" opacity="0.4"/>
  <line x1="331.9" y1="83.0" x2="334.5" y2="84.5" stroke="white" stroke-width="1" opacity="0.4"/>
  <circle cx="318" cy="75" r="14" fill="url(#knobRingGrad)" filter="url(#knobShadow)"/>
  <circle cx="318" cy="75" r="14" fill="none" stroke="#888" stroke-width="0.5" opacity="0.4"/>
  <circle cx="318" cy="75" r="10.92" fill="url(#knobGrad)"/>
  <ellipse cx="315.3" cy="71.7" rx="4.9" ry="3.1" fill="white" opacity="0.07"/>
  <line x1="318.0" y1="75.0" x2="316.2" y2="68.3" stroke="white" stroke-width="2" stroke-linecap="round" opacity="0.9"/>
  <circle cx="318" cy="75" r="3" fill="#3a3a3a"/>
  <text x="318" y="103" fill="white" font-size="7" text-anchor="middle" font-weight="bold" letter-spacing="0.5" filter="url(#textEmboss)" clip-path="url(#bodyClip)">CROSSOVE</text>
  <!-- Knob: WOOFER -->
  <line x1="329.1" y1="83.0" x2="326.5" y2="84.5" stroke="white" stroke-width="1" opacity="0.4"/>
  <line x1="329.1" y1="67.0" x2="326.5" y2="65.5" stroke="white" stroke-width="1" opacity="0.4"/>
  <line x1="343.0" y1="59.0" x2="343.0" y2="56.0" stroke="white" stroke-width="1" opacity="0.4"/>
  <line x1="356.9" y1="67.0" x2="359.5" y2="65.5" stroke="white" stroke-width="1" opacity="0.4"/>
  <line x1="356.9" y1="83.0" x2="359.5" y2="84.5" stroke="white" stroke-width="1" opacity="0.4"/>
  <circle cx="343" cy="75" r="14" fill="url(#knobRingGrad)" filter="url(#knobShadow)"/>
  <circle cx="343" cy="75" r="14" fill="none" stroke="#888" stroke-width="0.5" opacity="0.4"/>
  <circle cx="343" cy="75" r="10.92" fill="url(#knobGrad)"/>
  <ellipse cx="340.3" cy="71.7" rx="4.9" ry="3.1" fill="white" opacity="0.07"/>
  <line x1="343.0" y1="75.0" x2="343.0" y2="68.1" stroke="white" stroke-width="2" stroke-linecap="round" opacity="0.9"/>
  <circle cx="343" cy="75" r="3" fill="#3a3a3a"/>
  <text x="343" y="103" fill="white" font-size="7" text-anchor="middle" font-weight="bold" letter-spacing="0.5" filter="url(#textEmboss)" clip-path="url(#bodyClip)">WOOFER</text>
  <!-- Knob: TWEETER -->
  <line x1="354.1" y1="83.0" x2="351.5" y2="84.5" stroke="white" stroke-width="1" opacity="0.4"/>
  <line x1="354.1" y1="67.0" x2="351.5" y2="65.5" stroke="white" stroke-width="1" opacity="0.4"/>
  <line x1="368.0" y1="59.0" x2="368.0" y2="56.0" stroke="white" stroke-width="1" opacity="0.4"/>
  <line x1="381.9" y1="67.0" x2="384.5" y2="65.5" stroke="white" stroke-width="1" opacity="0.4"/>
  <line x1="381.9" y1="83.0" x2="384.5" y2="84.5" stroke="white" stroke-width="1" opacity="0.4"/>
  <circle cx="368" cy="75" r="14" fill="url(#knobRingGrad)" filter="url(#knobShadow)"/>
  <circle cx="368" cy="75" r="14" fill="none" stroke="#888" stroke-width="0.5" opacity="0.4"/>
  <circle cx="368" cy="75" r="10.92" fill="url(#knobGrad)"/>
  <ellipse cx="365.3" cy="71.7" rx="4.9" ry="3.1" fill="white" opacity="0.07"/>
  <line x1="368.0" y1="75.0" x2="369.8" y2="68.3" stroke="white" stroke-width="2" stroke-linecap="round" opacity="0.9"/>
  <circle cx="368" cy="75" r="3" fill="#3a3a3a"/>
  <text x="368" y="103" fill="white" font-size="7" text-anchor="middle" font-weight="bold" letter-spacing="0.5" filter="url(#textEmboss)" clip-path="url(#bodyClip)">TWEETER</text>
  <circle cx="355" cy="50" r="7" fill="#111"/>
  <circle cx="355" cy="50" r="5" fill="#00cc00" filter="url(#ledGlow)"/>
  <circle cx="353.5" cy="48.5" r="2" fill="white" opacity="0.5"/>
  <circle cx="355" cy="50" r="8" fill="none" stroke="#00ff00" stroke-width="1" opacity="0.25"/>
  <text x="90" y="120" fill="#aaa" font-size="9" text-anchor="middle" font-weight="normal" font-style="normal" letter-spacing="2" opacity="0.8" filter="url(#textEmboss)" clip-path="url(#bodyClip)">BOGER</text>
  <text x="210" y="175" fill="white" font-size="13" text-anchor="middle" font-weight="bold" font-style="normal" letter-spacing="1" opacity="0.95" filter="url(#textEmboss)" clip-path="url(#bodyClip)">Boger XT Blue M</text>
  <text x="210" y="193" fill="#aaa" font-size="9" text-anchor="middle" font-weight="normal" font-style="normal" letter-spacing="1" opacity="0.7" filter="url(#textEmboss)" clip-path="url(#bodyClip)">Rack Unit</text>
</svg>