<svg xmlns="http://www.w3.org/2000/svg" viewBox="0 0 400 300" width="400" height="300" font-family="Arial,sans-serif">
  <defs>
    <radialGradient id="bgGrad" cx="50%" cy="40%" r="65%">
      <stop offset="0%" stop-color="#2a2a2a"/>
      <stop offset="100%" stop-color="#0a0a0a"/>
    </radialGradient>
    <linearGradient id="bodyGrad" x1="0%" y1="0%" x2="100%" y2="100%">
      <stop offset="0%" stop-color="#4c4c4c"/>
      <stop offset="25%" stop-color="#1a1a1a"/>
      <stop offset="75%" stop-color="#1a1a1a"/>
      <stop offset="100%" stop-color="#000000"/>
    </linearGradient>
    <linearGradient id="bodyGradV" x1="0%" y1="0%" x2="0%" y2="100%">
      <stop offset="0%" stop-color="#4c4c4c"/>
      <stop offset="20%" stop-color="#1a1a1a"/>
      <stop offset="80%" stop-color="#1a1a1a"/>
      <stop offset="100%" stop-color="#000000"/>
    </linearGradient>
    <radialGradient id="bodyRadGrad" cx="38%" cy="32%" r="65%">
      <stop offset="0%" stop-color="#4c4c4c"/>
      <stop offset="35%" stop-color="#1a1a1a"/>
      <stop offset="100%" stop-color="#000000"/>
    </radialGradient>
    <radialGradient id="knobRingGrad" cx="35%" cy="30%" r="65%">
      <stop offset="0%" stop-color="#999"/>
      <stop offset="50%" stop-color="#444"/>
      <stop offset="100%" stop-color="#1a1a1a"/>
    </radialGradient>
    <radialGradient id="knobGrad" cx="35%" cy="30%" r="65%">
      <stop offset="0%" stop-color="#666"/>
      <stop offset="60%" stop-color="#2a2a2a"/>
      <stop offset="100%" stop-color="#0d0d0d"/>
    </radialGradient>
    <radialGradient id="screwGrad" cx="35%" cy="30%" r="65%">
      <stop offset="0%" stop-color="#bbb"/>
      <stop offset="100%" stop-color="#333"/>
    </radialGradient>
    <radialGradient id="jackGrad" cx="40%" cy="35%" r="60%">
      <stop offset="0%" stop-color="#777"/>
      <stop offset="100%" stop-color="#1a1a1a"/>
    </radialGradient>
    <linearGradient id="switchGrad" x1="0%" y1="0%" x2="0%" y2="100%">
      <stop offset="0%" stop-color="#333"/>
      <stop offset="50%" stop-color="#111"/>
      <stop offset="100%" stop-color="#080808"/>
    </linearGradient>
    <linearGradient id="grillGrad" x1="0%" y1="0%" x2="100%" y2="100%">
      <stop offset="0%" stop-color="#e6be5e"/>
      <stop offset="100%" stop-color="#b48c2c"/>
    </linearGradient>
    <linearGradient id="speakerGrad" cx="40%" cy="35%" r="60%" gradientUnits="objectBoundingBox">
      <stop offset="0%" stop-color="#555"/>
      <stop offset="100%" stop-color="#111"/>
    </linearGradient>
    <radialGradient id="speakerRadGrad" cx="45%" cy="40%" r="60%">
      <stop offset="0%" stop-color="#444"/>
      <stop offset="70%" stop-color="#1a1a1a"/>
      <stop offset="100%" stop-color="#0a0a0a"/>
    </radialGradient>
    <filter id="ledGlow" x="-80%" y="-80%" width="260%" height="260%">
      <feGaussianBlur stdDeviation="3" result="blur"/>
      <feMerge><feMergeNode in="blur"/><feMergeNode in="SourceGraphic"/></feMerge>
    </filter>
    <filter id="bodyShadow" x="-15%" y="-10%" width="140%" height="140%">
      <feDropShadow dx="5" dy="8" stdDeviation="10" flood-color="#000" flood-opacity="0.7"/>
    </filter>
    <filter id="knobShadow" x="-30%" y="-30%" width="170%" height="170%">
      <feDropShadow dx="1" dy="3" stdDeviation="4" flood-color="#000" flood-opacity="0.8"/>
    </filter>
    <filter id="textEmboss">
      <feDropShadow dx="0" dy="1" stdDeviation="0.5" flood-color="#000" flood-opacity="0.6"/>
    </filter>
    <filter id="innerShadow" x="-5%" y="-5%" width="110%" height="110%">
      <feDropShadow dx="0" dy="2" stdDeviation="3" flood-color="#000" flood-opacity="0.5"/>
    </filter>
    <clipPath id="bodyClip">
      <rect x="0" y="0" width="320" height="480"/>
    </clipPath>
  </defs>
  <rect width="400" height="300" fill="url(#bgGrad)"/>
  <rect x="15" y="20" width="370" height="195" rx="8" fill="url(#bodyGrad)" filter="url(#bodyShadow)"/>
  <rect x="15" y="20" width="370" height="7" rx="8" fill="#555" opacity="0.3"/>
  <circle cx="30" cy="33" r="5" fill="url(#screwGrad)"/>
  <line x1="26.5" y1="33" x2="33.5" y2="33" stroke="#222" stroke-width="1.2"/>
  <line x1="30" y1="29.5" x2="30" y2="36.5" stroke="#222" stroke-width="1.2"/>
  <circle cx="370" cy="33" r="5" fill="url(#screwGrad)"/>
  <line x1="366.5" y1="33" x2="373.5" y2="33" stroke="#222" stroke-width="1.2"/>
  <line x1="370" y1="29.5" x2="370" y2="36.5" stroke="#222" stroke-width="1.2"/>
  <circle cx="30" cy="200" r="5" fill="url(#screwGrad)"/>
  <line x1="26.5" y1="200" x2="33.5" y2="200" stroke="#222" stroke-width="1.2"/>
  <line x1="30" y1="196.5" x2="30" y2="203.5" stroke="#222" stroke-width="1.2"/>
  <circle cx="370" cy="200" r="5" fill="url(#screwGrad)"/>
  <line x1="366.5" y1="200" x2="373.5" y2="200" stroke="#222" stroke-width="1.2"/>
  <line x1="370" y1="196.5" x2="370" y2="203.5" stroke="#222" stroke-width="1.2"/>
  <rect x="15" y="165" width="370" height="50" rx="0" fill="url(#grillGrad)" filter="url(#innerShadow)"/>
  <line x1="15" y1="165" x2="15" y2="215" stroke="#000" stroke-width="0.4" opacity="0.2"/>
  <line x1="21" y1="165" x2="21" y2="215" stroke="#000" stroke-width="0.4" opacity="0.2"/>
  <line x1="27" y1="165" x2="27" y2="215" stroke="#000" stroke-width="0.4" opacity="0.2"/>
  <line x1="33" y1="165" x2="33" y2="215" stroke="#000" stroke-width="0.4" opacity="0.2"/>
  <line x1="39" y1="165" x2="39" y2="215" stroke="#000" stroke-width="0.4" opacity="0.2"/>
  <line x1="45" y1="165" x2="45" y2="215" stroke="#000" stroke-width="0.4" opacity="0.2"/>
  <line x1="51" y1="165" x2="51" y2="215" stroke="#000" stroke-width="0.4" opacity="0.2"/>
  <line x1="57" y1="165" x2="57" y2="215" stroke="#000" stroke-width="0.4" opacity="0.2"/>
  <line x1="63" y1="165" x2="63" y2="215" stroke="#000" stroke-width="0.4" opacity="0.2"/>
  <line x1="69" y1="165" x2="69" y2="215" stroke="#000" stroke-width="0.4" opacity="0.2"/>
  <line x1="75" y1="165" x2="75" y2="215" stroke="#000" stroke-width="0.4" opacity="0.2"/>
  <line x1="81" y1="165" x2="81" y2="215" stroke="#000" stroke-width="0.4" opacity="0.2"/>
  <line x1="87" y1="165" x2="87" y2="215" stroke="#000" stroke-width="0.4" opacity="0.2"/>
  <line x1="93" y1="165" x2="93" y2="215" stroke="#000" stroke-width="0.4" opacity="0.2"/>
  <line x1="99" y1="165" x2="99" y2="215" stroke="#000" stroke-width="0.4" opacity="0.2"/>
  <line x1="105" y1="165" x2="105" y2="215" stroke="#000" stroke-width="0.4" opacity="0.2"/>
  <line x1="111" y1="165" x2="111" y2="215" stroke="#000" stroke-width="0.4" opacity="0.2"/>
  <line x1="117" y1="165" x2="117" y2="215" stroke="#000" stroke-width="0.4" opacity="0.2"/>
  <line x1="123" y1="165" x2="123" y2="215" stroke="#000" stroke-width="0.4" opacity="0.2"/>
  <line x1="129" y1="165" x2="129" y2="215" stroke="#000" stroke-width="0.4" opacity="0.2"/>
  <line x1="135" y1="165" x2="135" y2="215" stroke="#000" stroke-width="0.4" opacity="0.2"/>
  <line x1="141" y1="165" x2="141" y2="215" stroke="#000" stroke-width="0.4" opacity="0.2"/>
  <line x1="147" y1="165" x2="147" y2="215" stroke="#000" stroke-width="0.4" opacity="0.2"/>
  <line x1="153" y1="165" x2="153" y2="215" stroke="#000" stroke-width="0.4" opacity="0.2"/>
  <line x1="159" y1="165" x2="159" y2="215" stroke="#000" stroke-width="0.4" opacity="0.2"/>
  <line x1="165" y1="165" x2="165" y2="215" stroke="#000" stroke-width="0.4" opacity="0.2"/>
  <line x1="171" y1="165" x2="171" y2="215" stroke="#000" stroke-width="0.4" opacity="0.2"/>
  <line x1="177" y1="165" x2="177" y2="215" stroke="#000" stroke-width="0.4" opacity="0.2"/>
  <line x1="183" y1="165" x2="183" y2="215" stroke="#000" stroke-width="0.4" opacity="0.2"/>
  <line x1="189" y1="165" x2="189" y2="215" stroke="#000" stroke-width="0.4" opacity="0.2"/>
  <line x1="195" y1="165" x2="195" y2="215" stroke="#000" stroke-width="0.4" opacity="0.2"/>
  <line x1="201" y1="165" x2="201" y2="215" stroke="#000" stroke-width="0.4" opacity="0.2"/>
  <line x1="207" y1="165" x2="207" y2="215" stroke="#000" stroke-width="0.4" opacity="0.2"/>
  <line x1="213" y1="165" x2="213" y2="215" stroke="#000" stroke-width="0.4" opacity="0.2"/>
  <line x1="219" y1="165" x2="219" y2="215" stroke="#000" stroke-width="0.4" opacity="0.2"/>
  <line x1="225" y1="165" x2="225" y2="215" stroke="#000" stroke-width="0.4" opacity="0.2"/>
  <line x1="231" y1="165" x2="231" y2="215" stroke="#000" stroke-width="0.4" opacity="0.2"/>
  <line x1="237" y1="165" x2="237" y2="215" stroke="#000" stroke-width="0.4" opacity="0.2"/>
  <line x1="243" y1="165" x2="243" y2="215" stroke="#000" stroke-width="0.4" opacity="0.2"/>
  <line x1="249" y1="165" x2="249" y2="215" stroke="#000" stroke-width="0.4" opacity="0.2"/>
  <line x1="255" y1="165" x2="255" y2="215" stroke="#000" stroke-width="0.4" opacity="0.2"/>
  <line x1="261" y1="165" x2="261" y2="215" stroke="#000" stroke-width="0.4" opacity="0.2"/>
  <line x1="267" y1="165" x2="267" y2="215" stroke="#000" stroke-width="0.4" opacity="0.2"/>
  <line x1="273" y1="165" x2="273" y2="215" stroke="#000" stroke-width="0.4" opacity="0.2"/>
  <line x1="279" y1="165" x2="279" y2="215" stroke="#000" stroke-width="0.4" opacity="0.2"/>
  <line x1="285" y1="165" x2="285" y2="215" stroke="#000" stroke-width="0.4" opacity="0.2"/>
  <line x1="291" y1="165" x2="291" y2="215" stroke="#000" stroke-width="0.4" opacity="0.2"/>
  <line x1="297" y1="165" x2="297" y2="215" stroke="#000" stroke-width="0.4" opacity="0.2"/>
  <line x1="303" y1="165" x2="303" y2="215" stroke="#000" stroke-width="0.4" opacity="0.2"/>
  <line x1="309" y1="165" x2="309" y2="215" stroke="#000" stroke-width="0.4" opacity="0.2"/>
  <line x1="315" y1="165" x2="315" y2="215" stroke="#000" stroke-width="0.4" opacity="0.2"/>
  <line x1="321" y1="165" x2="321" y2="215" stroke="#000" stroke-width="0.4" opacity="0.2"/>
  <line x1="327" y1="165" x2="327" y2="215" stroke="#000" stroke-width="0.4" opacity="0.2"/>
  <line x1="333" y1="165" x2="333" y2="215" stroke="#000" stroke-width="0.4" opacity="0.2"/>
  <line x1="339" y1="165" x2="339" y2="215" stroke="#000" stroke-width="0.4" opacity="0.2"/>
  <line x1="345" y1="165" x2="345" y2="215" stroke="#000" stroke-width="0.4" opacity="0.2"/>
  <line x1="351" y1="165" x2="351" y2="215" stroke="#000" stroke-width="0.4" opacity="0.2"/>
  <line x1="357" y1="165" x2="357" y2="215" stroke="#000" stroke-width="0.4" opacity="0.2"/>
  <line x1="363" y1="165" x2="363" y2="215" stroke="#000" stroke-width="0.4" opacity="0.2"/>
  <line x1="369" y1="165" x2="369" y2="215" stroke="#000" stroke-width="0.4" opacity="0.2"/>
  <line x1="375" y1="165" x2="375" y2="215" stroke="#000" stroke-width="0.4" opacity="0.2"/>
  <line x1="381" y1="165" x2="381" y2="215" stroke="#000" stroke-width="0.4" opacity="0.2"/>
  <line x1="15" y1="165" x2="385" y2="165" stroke="#000" stroke-width="0.4" opacity="0.2"/>
  <line x1="15" y1="171" x2="385" y2="171" stroke="#000" stroke-width="0.4" opacity="0.2"/>
  <line x1="15" y1="177" x2="385" y2="177" stroke="#000" stroke-width="0.4" opacity="0.2"/>
  <line x1="15" y1="183" x2="385" y2="183" stroke="#000" stroke-width="0.4" opacity="0.2"/>
  <line x1="15" y1="189" x2="385" y2="189" stroke="#000" stroke-width="0.4" opacity="0.2"/>
  <line x1="15" y1="195" x2="385" y2="195" stroke="#000" stroke-width="0.4" opacity="0.2"/>
  <line x1="15" y1="201" x2="385" y2="201" stroke="#000" stroke-width="0.4" opacity="0.2"/>
  <line x1="15" y1="207" x2="385" y2="207" stroke="#000" stroke-width="0.4" opacity="0.2"/>
  <line x1="15" y1="213" x2="385" y2="213" stroke="#000" stroke-width="0.4" opacity="0.2"/>
  <rect x="15" y="165" width="370" height="50" rx="0" fill="none" stroke="#000" stroke-width="1" opacity="0.3"/>
  <rect x="15" y="20" width="370" height="145" rx="8" fill="#0d0d0d" opacity="0.7"/>
  <text x="90" y="75" fill="#E8C840" font-size="18" text-anchor="middle" font-weight="bold" font-style="normal" letter-spacing="3" opacity="0.95" filter="url(#textEmboss)" clip-path="url(#bodyClip)">SUPERSTAR</text>
  <text x="90" y="95" fill="#aaa" font-size="11" text-anchor="middle" font-weight="normal" font-style="normal" letter-spacing="2" opacity="0.85" filter="url(#textEmboss)" clip-path="url(#bodyClip)">Drive</text>
  <circle cx="355" cy="55" r="7" fill="#111"/>
  <circle cx="355" cy="55" r="5" fill="#cc0000" filter="url(#ledGlow)"/>
  <circle cx="353.5" cy="53.5" r="2" fill="white" opacity="0.5"/>
  <circle cx="355" cy="55" r="8" fill="none" stroke="#ff0000" stroke-width="1" opacity="0.25"/>
  <!-- Knob: INPUT -->
  <line x1="166.1" y1="98.0" x2="163.5" y2="99.5" stroke="white" stroke-width="1" opacity="0.4"/>
  <line x1="166.1" y1="82.0" x2="163.5" y2="80.5" stroke="white" stroke-width="1" opacity="0.4"/>
  <line x1="180.0" y1="74.0" x2="180.0" y2="71.0" stroke="white" stroke-width="1" opacity="0.4"/>
  <line x1="193.9" y1="82.0" x2="196.5" y2="80.5" stroke="white" stroke-width="1" opacity="0.4"/>
  <line x1="193.9" y1="98.0" x2="196.5" y2="99.5" stroke="white" stroke-width="1" opacity="0.4"/>
  <circle cx="180" cy="90" r="14" fill="url(#knobRingGrad)" filter="url(#knobShadow)"/>
  <circle cx="180" cy="90" r="14" fill="none" stroke="#888" stroke-width="0.5" opacity="0.4"/>
  <circle cx="180" cy="90" r="10.92" fill="url(#knobGrad)"/>
  <ellipse cx="177.3" cy="86.7" rx="4.9" ry="3.1" fill="white" opacity="0.07"/>
  <line x1="180.0" y1="90.0" x2="173.1" y2="90.0" stroke="white" stroke-width="2" stroke-linecap="round" opacity="0.9"/>
  <circle cx="180" cy="90" r="3" fill="#3a3a3a"/>
  <text x="180" y="118" fill="white" font-size="7" text-anchor="middle" font-weight="bold" letter-spacing="0.5" filter="url(#textEmboss)" clip-path="url(#bodyClip)">INPUT</text>
  <!-- Knob: VOICING -->
  <line x1="190.1" y1="98.0" x2="187.5" y2="99.5" stroke="white" stroke-width="1" opacity="0.4"/>
  <line x1="190.1" y1="82.0" x2="187.5" y2="80.5" stroke="white" stroke-width="1" opacity="0.4"/>
  <line x1="204.0" y1="74.0" x2="204.0" y2="71.0" stroke="white" stroke-width="1" opacity="0.4"/>
  <line x1="217.9" y1="82.0" x2="220.5" y2="80.5" stroke="white" stroke-width="1" opacity="0.4"/>
  <line x1="217.9" y1="98.0" x2="220.5" y2="99.5" stroke="white" stroke-width="1" opacity="0.4"/>
  <circle cx="204" cy="90" r="14" fill="url(#knobRingGrad)" filter="url(#knobShadow)"/>
  <circle cx="204" cy="90" r="14" fill="none" stroke="#888" stroke-width="0.5" opacity="0.4"/>
  <circle cx="204" cy="90" r="10.92" fill="url(#knobGrad)"/>
  <ellipse cx="201.3" cy="86.7" rx="4.9" ry="3.1" fill="white" opacity="0.07"/>
  <line x1="204.0" y1="90.0" x2="197.2" y2="88.8" stroke="white" stroke-width="2" stroke-linecap="round" opacity="0.9"/>
  <circle cx="204" cy="90" r="3" fill="#3a3a3a"/>
  <text x="204" y="118" fill="white" font-size="7" text-anchor="middle" font-weight="bold" letter-spacing="0.5" filter="url(#textEmboss)" clip-path="url(#bodyClip)">VOICING</text>
  <!-- Knob: BASS -->
  <line x1="214.1" y1="98.0" x2="211.5" y2="99.5" stroke="white" stroke-width="1" opacity="0.4"/>
  <line x1="214.1" y1="82.0" x2="211.5" y2="80.5" stroke="white" stroke-width="1" opacity="0.4"/>
  <line x1="228.0" y1="74.0" x2="228.0" y2="71.0" stroke="white" stroke-width="1" opacity="0.4"/>
  <line x1="241.9" y1="82.0" x2="244.5" y2="80.5" stroke="white" stroke-width="1" opacity="0.4"/>
  <line x1="241.9" y1="98.0" x2="244.5" y2="99.5" stroke="white" stroke-width="1" opacity="0.4"/>
  <circle cx="228" cy="90" r="14" fill="url(#knobRingGrad)" filter="url(#knobShadow)"/>
  <circle cx="228" cy="90" r="14" fill="none" stroke="#888" stroke-width="0.5" opacity="0.4"/>
  <circle cx="228" cy="90" r="10.92" fill="url(#knobGrad)"/>
  <ellipse cx="225.3" cy="86.7" rx="4.9" ry="3.1" fill="white" opacity="0.07"/>
  <line x1="228.0" y1="90.0" x2="221.5" y2="87.6" stroke="white" stroke-width="2" stroke-linecap="round" opacity="0.9"/>
  <circle cx="228" cy="90" r="3" fill="#3a3a3a"/>
  <text x="228" y="118" fill="white" font-size="7" text-anchor="middle" font-weight="bold" letter-spacing="0.5" filter="url(#textEmboss)" clip-path="url(#bodyClip)">BASS</text>
  <!-- Knob: LOW MID -->
  <line x1="238.1" y1="98.0" x2="235.5" y2="99.5" stroke="white" stroke-width="1" opacity="0.4"/>
  <line x1="238.1" y1="82.0" x2="235.5" y2="80.5" stroke="white" stroke-width="1" opacity="0.4"/>
  <line x1="252.0" y1="74.0" x2="252.0" y2="71.0" stroke="white" stroke-width="1" opacity="0.4"/>
  <line x1="265.9" y1="82.0" x2="268.5" y2="80.5" stroke="white" stroke-width="1" opacity="0.4"/>
  <line x1="265.9" y1="98.0" x2="268.5" y2="99.5" stroke="white" stroke-width="1" opacity="0.4"/>
  <circle cx="252" cy="90" r="14" fill="url(#knobRingGrad)" filter="url(#knobShadow)"/>
  <circle cx="252" cy="90" r="14" fill="none" stroke="#888" stroke-width="0.5" opacity="0.4"/>
  <circle cx="252" cy="90" r="10.92" fill="url(#knobGrad)"/>
  <ellipse cx="249.3" cy="86.7" rx="4.9" ry="3.1" fill="white" opacity="0.07"/>
  <line x1="252.0" y1="90.0" x2="246.0" y2="86.5" stroke="white" stroke-width="2" stroke-linecap="round" opacity="0.9"/>
  <circle cx="252" cy="90" r="3" fill="#3a3a3a"/>
  <text x="252" y="118" fill="white" font-size="7" text-anchor="middle" font-weight="bold" letter-spacing="0.5" filter="url(#textEmboss)" clip-path="url(#bodyClip)">LOW MID</text>
  <!-- Knob: HIGH MID -->
  <line x1="262.1" y1="98.0" x2="259.5" y2="99.5" stroke="white" stroke-width="1" opacity="0.4"/>
  <line x1="262.1" y1="82.0" x2="259.5" y2="80.5" stroke="white" stroke-width="1" opacity="0.4"/>
  <line x1="276.0" y1="74.0" x2="276.0" y2="71.0" stroke="white" stroke-width="1" opacity="0.4"/>
  <line x1="289.9" y1="82.0" x2="292.5" y2="80.5" stroke="white" stroke-width="1" opacity="0.4"/>
  <line x1="289.9" y1="98.0" x2="292.5" y2="99.5" stroke="white" stroke-width="1" opacity="0.4"/>
  <circle cx="276" cy="90" r="14" fill="url(#knobRingGrad)" filter="url(#knobShadow)"/>
  <circle cx="276" cy="90" r="14" fill="none" stroke="#888" stroke-width="0.5" opacity="0.4"/>
  <circle cx="276" cy="90" r="10.92" fill="url(#knobGrad)"/>
  <ellipse cx="273.3" cy="86.7" rx="4.9" ry="3.1" fill="white" opacity="0.07"/>
  <line x1="276.0" y1="90.0" x2="270.7" y2="85.6" stroke="white" stroke-width="2" stroke-linecap="round" opacity="0.9"/>
  <circle cx="276" cy="90" r="3" fill="#3a3a3a"/>
  <text x="276" y="118" fill="white" font-size="7" text-anchor="middle" font-weight="bold" letter-spacing="0.5" filter="url(#textEmboss)" clip-path="url(#bodyClip)">HIGH MID</text>
  <!-- Knob: TREBLE -->
  <line x1="286.1" y1="98.0" x2="283.5" y2="99.5" stroke="white" stroke-width="1" opacity="0.4"/>
  <line x1="286.1" y1="82.0" x2="283.5" y2="80.5" stroke="white" stroke-width="1" opacity="0.4"/>
  <line x1="300.0" y1="74.0" x2="300.0" y2="71.0" stroke="white" stroke-width="1" opacity="0.4"/>
  <line x1="313.9" y1="82.0" x2="316.5" y2="80.5" stroke="white" stroke-width="1" opacity="0.4"/>
  <line x1="313.9" y1="98.0" x2="316.5" y2="99.5" stroke="white" stroke-width="1" opacity="0.4"/>
  <circle cx="300" cy="90" r="14" fill="url(#knobRingGrad)" filter="url(#knobShadow)"/>
  <circle cx="300" cy="90" r="14" fill="none" stroke="#888" stroke-width="0.5" opacity="0.4"/>
  <circle cx="300" cy="90" r="10.92" fill="url(#knobGrad)"/>
  <ellipse cx="297.3" cy="86.7" rx="4.9" ry="3.1" fill="white" opacity="0.07"/>
  <line x1="300.0" y1="90.0" x2="295.6" y2="84.7" stroke="white" stroke-width="2" stroke-linecap="round" opacity="0.9"/>
  <circle cx="300" cy="90" r="3" fill="#3a3a3a"/>
  <text x="300" y="118" fill="white" font-size="7" text-anchor="middle" font-weight="bold" letter-spacing="0.5" filter="url(#textEmboss)" clip-path="url(#bodyClip)">TREBLE</text>
  <!-- Knob: MASTER -->
  <line x1="310.1" y1="98.0" x2="307.5" y2="99.5" stroke="white" stroke-width="1" opacity="0.4"/>
  <line x1="310.1" y1="82.0" x2="307.5" y2="80.5" stroke="white" stroke-width="1" opacity="0.4"/>
  <line x1="324.0" y1="74.0" x2="324.0" y2="71.0" stroke="white" stroke-width="1" opacity="0.4"/>
  <line x1="337.9" y1="82.0" x2="340.5" y2="80.5" stroke="white" stroke-width="1" opacity="0.4"/>
  <line x1="337.9" y1="98.0" x2="340.5" y2="99.5" stroke="white" stroke-width="1" opacity="0.4"/>
  <circle cx="324" cy="90" r="14" fill="url(#knobRingGrad)" filter="url(#knobShadow)"/>
  <circle cx="324" cy="90" r="14" fill="none" stroke="#888" stroke-width="0.5" opacity="0.4"/>
  <circle cx="324" cy="90" r="10.92" fill="url(#knobGrad)"/>
  <ellipse cx="321.3" cy="86.7" rx="4.9" ry="3.1" fill="white" opacity="0.07"/>
  <line x1="324.0" y1="90.0" x2="320.5" y2="84.0" stroke="white" stroke-width="2" stroke-linecap="round" opacity="0.9"/>
  <circle cx="324" cy="90" r="3" fill="#3a3a3a"/>
  <text x="324" y="118" fill="white" font-size="7" text-anchor="middle" font-weight="bold" letter-spacing="0.5" filter="url(#textEmboss)" clip-path="url(#bodyClip)">MASTER</text>
  <rect x="340" y="110" width="28" height="14" rx="7" fill="#222"/>
  <circle cx="348" cy="117" r="5" fill="#cc0000" filter="url(#ledGlow)"/>
  <text x="354" y="135" fill="#aaa" font-size="7" text-anchor="middle" font-weight="normal" font-style="normal" letter-spacing="1" opacity="0.7" filter="url(#textEmboss)" clip-path="url(#bodyClip)">PWR</text>
  <text x="200" y="245" fill="white" font-size="14" text-anchor="middle" font-weight="bold" font-style="normal" letter-spacing="1" opacity="0.95" filter="url(#textEmboss)" clip-path="url(#bodyClip)">Superstar Drive</text>
  <text x="200" y="263" fill="#aaa" font-size="9" text-anchor="middle" font-weight="normal" font-style="normal" letter-spacing="1" opacity="0.7" filter="url(#textEmboss)" clip-path="url(#bodyClip)">Guitar Amplifier Head</text>
</svg>