<svg xmlns="http://www.w3.org/2000/svg" viewBox="0 0 240 360" width="240" height="360" font-family="Arial,sans-serif">
  <defs>
    <radialGradient id="bgGrad" cx="50%" cy="40%" r="65%">
      <stop offset="0%" stop-color="#2a2a2a"/>
      <stop offset="100%" stop-color="#0a0a0a"/>
    </radialGradient>
    <linearGradient id="bodyGrad" x1="0%" y1="0%" x2="100%" y2="100%">
      <stop offset="0%" stop-color="#6c4c8c"/>
      <stop offset="25%" stop-color="#3a1a5a"/>
      <stop offset="75%" stop-color="#3a1a5a"/>
      <stop offset="100%" stop-color="#120032"/>
    </linearGradient>
    <linearGradient id="bodyGradV" x1="0%" y1="0%" x2="0%" y2="100%">
      <stop offset="0%" stop-color="#6c4c8c"/>
      <stop offset="20%" stop-color="#3a1a5a"/>
      <stop offset="80%" stop-color="#3a1a5a"/>
      <stop offset="100%" stop-color="#120032"/>
    </linearGradient>
    <radialGradient id="bodyRadGrad" cx="38%" cy="32%" r="65%">
      <stop offset="0%" stop-color="#6c4c8c"/>
      <stop offset="35%" stop-color="#3a1a5a"/>
      <stop offset="100%" stop-color="#120032"/>
    </radialGradient>
    <radialGradient id="knobRingGrad" cx="35%" cy="30%" r="65%">
      <stop offset="0%" stop-color="#999"/>
      <stop offset="50%" stop-color="#444"/>
      <stop offset="100%" stop-color="#1a1a1a"/>
    </radialGradient>
    <radialGradient id="knobGrad" cx="35%" cy="30%" r="65%">
      <stop offset="0%" stop-color="#666"/>
      <stop offset="60%" stop-color="#2a2a2a"/>
      <stop offset="100%" stop-color="#0d0d0d"/>
    </radialGradient>
    <radialGradient id="screwGrad" cx="35%" cy="30%" r="65%">
      <stop offset="0%" stop-color="#bbb"/>
      <stop offset="100%" stop-color="#333"/>
    </radialGradient>
    <radialGradient id="jackGrad" cx="40%" cy="35%" r="60%">
      <stop offset="0%" stop-color="#777"/>
      <stop offset="100%" stop-color="#1a1a1a"/>
    </radialGradient>
    <linearGradient id="switchGrad" x1="0%" y1="0%" x2="0%" y2="100%">
      <stop offset="0%" stop-color="#333"/>
      <stop offset="50%" stop-color="#111"/>
      <stop offset="100%" stop-color="#080808"/>
    </linearGradient>
    <linearGradient id="grillGrad" x1="0%" y1="0%" x2="100%" y2="100%">
      <stop offset="0%" stop-color="#a99173"/>
      <stop offset="100%" stop-color="#775f41"/>
    </linearGradient>
    <linearGradient id="speakerGrad" cx="40%" cy="35%" r="60%" gradientUnits="objectBoundingBox">
      <stop offset="0%" stop-color="#555"/>
      <stop offset="100%" stop-color="#111"/>
    </linearGradient>
    <radialGradient id="speakerRadGrad" cx="45%" cy="40%" r="60%">
      <stop offset="0%" stop-color="#444"/>
      <stop offset="70%" stop-color="#1a1a1a"/>
      <stop offset="100%" stop-color="#0a0a0a"/>
    </radialGradient>
    <filter id="ledGlow" x="-80%" y="-80%" width="260%" height="260%">
      <feGaussianBlur stdDeviation="3" result="blur"/>
      <feMerge><feMergeNode in="blur"/><feMergeNode in="SourceGraphic"/></feMerge>
    </filter>
    <filter id="bodyShadow" x="-15%" y="-10%" width="140%" height="140%">
      <feDropShadow dx="5" dy="8" stdDeviation="10" flood-color="#000" flood-opacity="0.7"/>
    </filter>
    <filter id="knobShadow" x="-30%" y="-30%" width="170%" height="170%">
      <feDropShadow dx="1" dy="3" stdDeviation="4" flood-color="#000" flood-opacity="0.8"/>
    </filter>
    <filter id="textEmboss">
      <feDropShadow dx="0" dy="1" stdDeviation="0.5" flood-color="#000" flood-opacity="0.6"/>
    </filter>
    <filter id="innerShadow" x="-5%" y="-5%" width="110%" height="110%">
      <feDropShadow dx="0" dy="2" stdDeviation="3" flood-color="#000" flood-opacity="0.5"/>
    </filter>
    <clipPath id="bodyClip">
      <rect x="0" y="0" width="320" height="480"/>
    </clipPath>
  </defs>
  <rect width="240" height="360" fill="url(#bgGrad)"/>
  <rect x="35" y="25" width="170" height="230" rx="10" fill="url(#bodyGrad)" filter="url(#bodyShadow)"/>
  <rect x="35" y="25" width="170" height="7" rx="10" fill="white" opacity="0.15"/>
  <circle cx="50" cy="40" r="5" fill="url(#screwGrad)"/>
  <line x1="46.5" y1="40" x2="53.5" y2="40" stroke="#222" stroke-width="1.2"/>
  <line x1="50" y1="36.5" x2="50" y2="43.5" stroke="#222" stroke-width="1.2"/>
  <circle cx="190" cy="40" r="5" fill="url(#screwGrad)"/>
  <line x1="186.5" y1="40" x2="193.5" y2="40" stroke="#222" stroke-width="1.2"/>
  <line x1="190" y1="36.5" x2="190" y2="43.5" stroke="#222" stroke-width="1.2"/>
  <circle cx="50" cy="238" r="5" fill="url(#screwGrad)"/>
  <line x1="46.5" y1="238" x2="53.5" y2="238" stroke="#222" stroke-width="1.2"/>
  <line x1="50" y1="234.5" x2="50" y2="241.5" stroke="#222" stroke-width="1.2"/>
  <circle cx="190" cy="238" r="5" fill="url(#screwGrad)"/>
  <line x1="186.5" y1="238" x2="193.5" y2="238" stroke="#222" stroke-width="1.2"/>
  <line x1="190" y1="234.5" x2="190" y2="241.5" stroke="#222" stroke-width="1.2"/>
  <circle cx="75" cy="30" r="8" fill="url(#jackGrad)"/>
  <circle cx="75" cy="30" r="5.5" fill="#1a1a1a"/>
  <circle cx="75" cy="30" r="3" fill="#0d0d0d"/>
  <circle cx="73.5" cy="28.5" r="1.2" fill="#999" opacity="0.5"/>
  <text x="75" y="48" fill="white" font-size="7" text-anchor="middle" opacity="0.8">IN</text>
  <circle cx="165" cy="30" r="8" fill="url(#jackGrad)"/>
  <circle cx="165" cy="30" r="5.5" fill="#1a1a1a"/>
  <circle cx="165" cy="30" r="3" fill="#0d0d0d"/>
  <circle cx="163.5" cy="28.5" r="1.2" fill="#999" opacity="0.5"/>
  <text x="165" y="48" fill="white" font-size="7" text-anchor="middle" opacity="0.8">OUT</text>
  <circle cx="185" cy="55" r="7" fill="#111"/>
  <circle cx="185" cy="55" r="5" fill="#cc0000" filter="url(#ledGlow)"/>
  <circle cx="183.5" cy="53.5" r="2" fill="white" opacity="0.5"/>
  <circle cx="185" cy="55" r="8" fill="none" stroke="#ff0000" stroke-width="1" opacity="0.25"/>
  <!-- Knob: MIX -->
  <line x1="62.7" y1="125.0" x2="60.1" y2="126.5" stroke="white" stroke-width="1" opacity="0.4"/>
  <line x1="62.7" y1="105.0" x2="60.1" y2="103.5" stroke="white" stroke-width="1" opacity="0.4"/>
  <line x1="80.0" y1="95.0" x2="80.0" y2="92.0" stroke="white" stroke-width="1" opacity="0.4"/>
  <line x1="97.3" y1="105.0" x2="99.9" y2="103.5" stroke="white" stroke-width="1" opacity="0.4"/>
  <line x1="97.3" y1="125.0" x2="99.9" y2="126.5" stroke="white" stroke-width="1" opacity="0.4"/>
  <circle cx="80" cy="115" r="18" fill="url(#knobRingGrad)" filter="url(#knobShadow)"/>
  <circle cx="80" cy="115" r="18" fill="none" stroke="#888" stroke-width="0.5" opacity="0.4"/>
  <circle cx="80" cy="115" r="14.040000000000001" fill="url(#knobGrad)"/>
  <ellipse cx="76.5" cy="110.8" rx="6.3" ry="3.9" fill="white" opacity="0.07"/>
  <line x1="80.0" y1="115.0" x2="70.0" y2="115.0" stroke="white" stroke-width="2" stroke-linecap="round" opacity="0.9"/>
  <circle cx="80" cy="115" r="3" fill="#3a3a3a"/>
  <text x="80" y="147" fill="white" font-size="9" text-anchor="middle" font-weight="bold" letter-spacing="0.5" filter="url(#textEmboss)" clip-path="url(#bodyClip)">MIX</text>
  <!-- Knob: RATE -->
  <line x1="102.7" y1="125.0" x2="100.1" y2="126.5" stroke="white" stroke-width="1" opacity="0.4"/>
  <line x1="102.7" y1="105.0" x2="100.1" y2="103.5" stroke="white" stroke-width="1" opacity="0.4"/>
  <line x1="120.0" y1="95.0" x2="120.0" y2="92.0" stroke="white" stroke-width="1" opacity="0.4"/>
  <line x1="137.3" y1="105.0" x2="139.9" y2="103.5" stroke="white" stroke-width="1" opacity="0.4"/>
  <line x1="137.3" y1="125.0" x2="139.9" y2="126.5" stroke="white" stroke-width="1" opacity="0.4"/>
  <circle cx="120" cy="115" r="18" fill="url(#knobRingGrad)" filter="url(#knobShadow)"/>
  <circle cx="120" cy="115" r="18" fill="none" stroke="#888" stroke-width="0.5" opacity="0.4"/>
  <circle cx="120" cy="115" r="14.040000000000001" fill="url(#knobGrad)"/>
  <ellipse cx="116.5" cy="110.8" rx="6.3" ry="3.9" fill="white" opacity="0.07"/>
  <line x1="120.0" y1="115.0" x2="110.6" y2="111.6" stroke="white" stroke-width="2" stroke-linecap="round" opacity="0.9"/>
  <circle cx="120" cy="115" r="3" fill="#3a3a3a"/>
  <text x="120" y="147" fill="white" font-size="9" text-anchor="middle" font-weight="bold" letter-spacing="0.5" filter="url(#textEmboss)" clip-path="url(#bodyClip)">RATE</text>
  <!-- Knob: DEPTH -->
  <line x1="142.7" y1="125.0" x2="140.1" y2="126.5" stroke="white" stroke-width="1" opacity="0.4"/>
  <line x1="142.7" y1="105.0" x2="140.1" y2="103.5" stroke="white" stroke-width="1" opacity="0.4"/>
  <line x1="160.0" y1="95.0" x2="160.0" y2="92.0" stroke="white" stroke-width="1" opacity="0.4"/>
  <line x1="177.3" y1="105.0" x2="179.9" y2="103.5" stroke="white" stroke-width="1" opacity="0.4"/>
  <line x1="177.3" y1="125.0" x2="179.9" y2="126.5" stroke="white" stroke-width="1" opacity="0.4"/>
  <circle cx="160" cy="115" r="18" fill="url(#knobRingGrad)" filter="url(#knobShadow)"/>
  <circle cx="160" cy="115" r="18" fill="none" stroke="#888" stroke-width="0.5" opacity="0.4"/>
  <circle cx="160" cy="115" r="14.040000000000001" fill="url(#knobGrad)"/>
  <ellipse cx="156.5" cy="110.8" rx="6.3" ry="3.9" fill="white" opacity="0.07"/>
  <line x1="160.0" y1="115.0" x2="152.3" y2="108.5" stroke="white" stroke-width="2" stroke-linecap="round" opacity="0.9"/>
  <circle cx="160" cy="115" r="3" fill="#3a3a3a"/>
  <text x="160" y="147" fill="white" font-size="9" text-anchor="middle" font-weight="bold" letter-spacing="0.5" filter="url(#textEmboss)" clip-path="url(#bodyClip)">DEPTH</text>
  <text x="120" y="178" fill="white" font-size="13" text-anchor="middle" font-weight="bold" font-style="normal" letter-spacing="1" opacity="0.95" filter="url(#textEmboss)" clip-path="url(#bodyClip)">Dream</text>
  <text x="120" y="195" fill="#aaa" font-size="8" text-anchor="middle" font-weight="bold" font-style="normal" letter-spacing="2" opacity="0.7" filter="url(#textEmboss)" clip-path="url(#bodyClip)">LIQUID</text>
  <circle cx="120" cy="225" r="20" fill="#1a1a1a"/>
  <circle cx="120" cy="225" r="20" fill="none" stroke="#555" stroke-width="1" opacity="0.5"/>
  <circle cx="120" cy="225" r="16" fill="url(#switchGrad)"/>
  <ellipse cx="116" cy="220" rx="7" ry="4" fill="white" opacity="0.05"/>
  <circle cx="120" cy="225" r="6" fill="#2a2a2a"/>
  <circle cx="118" cy="223" r="2" fill="#555" opacity="0.4"/>
  <text x="120" y="300" fill="white" font-size="12" text-anchor="middle" font-weight="bold" font-style="normal" letter-spacing="1" opacity="0.95" filter="url(#textEmboss)" clip-path="url(#bodyClip)">Liquid Dream</text>
  <text x="120" y="318" fill="#aaa" font-size="9" text-anchor="middle" font-weight="normal" font-style="normal" letter-spacing="1" opacity="0.7" filter="url(#textEmboss)" clip-path="url(#bodyClip)">Mini Pedal</text>
</svg>